<?xml version="1.0" encoding="UTF-8"?>
<svg width="20px" height="20px" viewBox="0 0 20 20" version="1.1" xmlns="http://www.w3.org/2000/svg" xmlns:xlink="http://www.w3.org/1999/xlink">
    <title>F05FC7F4-818A-44C0-9266-74FD48943CA6</title>
    <g id="Page-1" stroke="none" stroke-width="1" fill="none" fill-rule="evenodd">
        <g id="Home_v2" transform="translate(-1360.000000, -40.000000)" fill="#63BAE9">
            <g id="Combined-Shape-3" transform="translate(1360.000000, 40.000000)">
                <path d="M6.59090909,15.9090909 C7.72058244,15.9090909 8.63636364,16.8248721 8.63636364,17.9545455 C8.63636364,19.0842188 7.72058244,20 6.59090909,20 C5.46123574,20 4.54545455,19.0842188 4.54545455,17.9545455 C4.54545455,16.8248721 5.46123574,15.9090909 6.59090909,15.9090909 Z M15.6818182,15.9090909 C16.8114915,15.9090909 17.7272727,16.8248721 17.7272727,17.9545455 C17.7272727,19.0842188 16.8114915,20 15.6818182,20 C14.5521448,20 13.6363636,19.0842188 13.6363636,17.9545455 C13.6363636,16.8248721 14.5521448,15.9090909 15.6818182,15.9090909 Z M3.63636364,-3.8676133e-14 C4.04088585,-3.8676133e-14 4.39338573,0.266634865 4.50737172,0.648628441 L4.52590348,0.721567163 L5.235,4.09 L17.7290454,4.09090909 C18.9322366,4.09090909 19.9149623,5.02402245 19.9947673,6.2090386 L20,6.36497849 L20,9.85489891 C20,11.0398497 19.1007657,12.1466295 17.9392838,12.3898959 L17.9392838,12.3898959 L7.88798305,14.4950891 C6.6551754,14.7532943 5.45168961,13.963639 5.19883113,12.7279079 L5.19883113,12.7279079 L2.89909091,1.81818182 L0.909090909,1.81818182 C0.429835548,1.81818182 0.0371976719,1.44732828 0.00249351656,0.976937429 L-5.15950918e-14,0.909090909 C-5.15950918e-14,0.429835548 0.370853541,0.0371976719 0.841244389,0.00249351656 L0.909090909,-3.8676133e-14 L3.63636364,-3.8676133e-14 Z M17.7290454,5.90909091 L5.65909091,5.90909091 L6.98010403,12.3634192 C7.03090922,12.6117065 7.26804277,12.7672994 7.5152616,12.7155206 L7.5152616,12.7155206 L17.5665624,10.6103274 C17.8859178,10.5434401 18.1818182,10.1792452 18.1818182,9.85489891 L18.1818182,9.85489891 L18.1818182,6.36497849 C18.1818182,6.11085371 17.9801679,5.90909091 17.7290454,5.90909091 L17.7290454,5.90909091 Z" id="Combined-Shape"></path>
            </g>
        </g>
    </g>
</svg>