<?xml version="1.0" encoding="UTF-8"?>
<svg width="22px" height="18px" viewBox="0 0 22 18" version="1.1" xmlns="http://www.w3.org/2000/svg" xmlns:xlink="http://www.w3.org/1999/xlink">
    <title>51A08DBC-FBBC-44E7-83F2-EC9C9467838F</title>
    <g id="Page-1" stroke="none" stroke-width="1" fill="none" fill-rule="evenodd">
        <g id="Checkout_1_panier" transform="translate(-154.000000, -828.000000)" fill="#8B8B8B">
            <g id="Group-9" transform="translate(154.000000, 814.000000)">
                <g id="Group-8" transform="translate(0.000000, 12.000000)">
                    <g id="Arrow-/-Small-/-Right" transform="translate(11.000000, 11.000000) scale(-1, 1) translate(-11.000000, -11.000000) translate(0.000000, 2.000000)">
                        <g id="Fill-3" transform="translate(2.000000, 1.636364)">
                            <path d="M17.7561012,6.2056188 C15.9120994,4.33914502 14.1846175,2.36107878 12.2748865,0.560600535 C11.6146072,-0.0615573928 10.6191092,0.933775299 11.2805836,1.55833306 C12.8317918,3.02103415 14.26409,4.59952741 15.7346307,6.14142314 C5.96611207,6.14536753 5.47975583,6.28061373 0.679401391,6.28061373 C-0.226467186,6.28061373 -0.226467075,7.6917183 0.679401391,7.6917183 C5.47975583,7.6917183 5.96611207,7.55649331 15.8021524,7.55252772 C14.1780446,9.46999805 12.2707038,11.1348855 10.718898,13.1201512 C10.1661755,13.8275034 11.153308,14.8336353 11.7126034,14.1178837 C13.6193467,11.6790487 16.0208513,9.6955828 17.8666457,7.20095149 C18.0178228,6.99696529 18.0285785,6.79657884 17.958069,6.62679032 C17.9461182,6.48280006 17.8863644,6.33700991 17.7561012,6.2056188 Z" id="Fill-1"></path>
                        </g>
                    </g>
                </g>
            </g>
        </g>
    </g>
</svg>