<svg xmlns="http://www.w3.org/2000/svg" width="40.264" height="40.264" viewBox="0 0 40.264 40.264">
  <g id="Groupe_12" data-name="Groupe 12" transform="translate(-0.302)">
    <path id="Tracé_23" data-name="Tracé 23" d="M59.336,74.417a16.7,16.7,0,1,0-16.725-16.7,16.712,16.712,0,0,0,16.725,16.7Zm0-32.01a15.308,15.308,0,1,1-15.33,15.31h0a15.336,15.336,0,0,1,15.33-15.31Z" transform="translate(-38.902 -37.714)" fill="#63bae9"/>
    <path id="Tracé_24" data-name="Tracé 24" d="M20.388,40.264a20.134,20.134,0,0,1-9.8-2.574A19.881,19.881,0,0,1,1.076,25.621,20.217,20.217,0,0,1,.782,15.7a.588.588,0,0,1,.435-.447.674.674,0,0,1,.189-.026.659.659,0,0,1,.149.017.632.632,0,0,1,.451.771,18.4,18.4,0,0,0,.248,9.268A18.872,18.872,0,0,0,38.563,14.974,18.876,18.876,0,0,0,4.279,10.348a.735.735,0,0,1-.392.276.589.589,0,0,1-.169.024.627.627,0,0,1-.33-.1.653.653,0,0,1-.2-.889,20.166,20.166,0,0,1,36.6,4.964A20.147,20.147,0,0,1,25.919,39.489,20.278,20.278,0,0,1,20.388,40.264Z" transform="translate(0 0)" fill="#63bae9"/>
    <path id="Tracé_25" data-name="Tracé 25" d="M142.235,188.7a2.471,2.471,0,0,1-.287-.017,3.8,3.8,0,0,1-2.143-1.238l-3.021-3.021a.661.661,0,0,1,.933-.936l3.022,3.023a2.519,2.519,0,0,0,1.365.861,2.19,2.19,0,0,0,1.665-.861l9.774-9.709a.66.66,0,1,1,.931.937l-9.773,9.709A3.558,3.558,0,0,1,142.235,188.7Z" transform="translate(-125.29 -162.385)" fill="#63bae9"/>
  </g>
</svg>