<?xml version="1.0" encoding="utf-8"?>
<!-- Generator: Adobe Illustrator 25.0.1, SVG Export Plug-In . SVG Version: 6.00 Build 0)  -->
<svg version="1.1" id="Calque_1" xmlns="http://www.w3.org/2000/svg" xmlns:xlink="http://www.w3.org/1999/xlink" x="0px" y="0px"
	 viewBox="0 0 60 60" style="enable-background:new 0 0 60 60;" xml:space="preserve">
<style type="text/css">
	.st0{fill:#DE1A46;}
</style>
<g>
	<path class="st0" d="M56.4,9.87H37.9L37,6.85V1c0-0.55-0.45-1-1-1H4C3.45,0,3,0.45,3,1v5.85l-2.96,9.86C0.01,16.81,0,16.9,0,17v42
		c0,0.55,0.45,1,1,1h38c0.02,0,0.03,0,0.05,0H56.4c1.99,0,3.6-1.61,3.6-3.6V13.47C60,11.48,58.39,9.87,56.4,9.87z M5,2h30v4H5L5,2
		L5,2z M31.94,58H2V18h22.97c0.53,0,1-0.4,1.03-0.93c0.04-0.58-0.42-1.07-1-1.07H2.34l2.4-8h30.51l0.56,1.87h-0.65
		c-1.99,0-3.6,1.61-3.6,3.6V56.4C31.57,56.97,31.7,57.52,31.94,58z M57.96,56.4c0,0.86-0.7,1.56-1.56,1.56H35.17
		c-0.86,0-1.56-0.7-1.56-1.56V13.47c0-0.86,0.7-1.56,1.56-1.56H56.4c0.86,0,1.56,0.7,1.56,1.56V56.4z"/>
	<g>
		<path class="st0" d="M54.2,38.5l-1.2-1.8v-1.11c0-1.08-0.88-1.96-1.97-1.96h-2.87l1.31-2.6c2.54-2.04,2.96-5.75,0.92-8.29
			s-5.75-2.95-8.29-0.92c-0.01,0.02-0.03,0.03-0.04,0.03c-0.17,0.15-0.35,0.3-0.5,0.46c-0.37,0.37-0.67,0.78-0.91,1.22
			c-1.1,1.95-1.02,4.44,0.37,6.35c0.05,0.08,0.11,0.15,0.17,0.23c0.12,0.15,0.25,0.3,0.38,0.43c0.17,0.18,0.35,0.35,0.54,0.5
			l0.48,0.94l0.83,1.66h-2.87c-0.36,0-0.69,0.1-0.98,0.26c-0.59,0.34-0.98,0.98-0.98,1.7v1.11l-1.2,1.8
			c-0.07,0.1-0.11,0.24-0.11,0.37c0,0.93,0.51,1.79,1.32,2.26v7.56c0,0.37,0.29,0.65,0.65,0.65h13.11c0.36,0,0.65-0.29,0.65-0.65
			v-7.56c0.81-0.47,1.31-1.33,1.31-2.26C54.3,38.74,54.27,38.61,54.2,38.5z M51.03,34.93c0.37,0,0.65,0.3,0.65,0.65v0.66h-4.83
			l0.66-1.32H51.03z M43.21,30.3c-0.04-0.09-0.1-0.17-0.19-0.23c-0.17-0.12-0.32-0.26-0.46-0.4c-0.44-0.43-0.77-0.93-0.99-1.47
			c-0.48-1.13-0.49-2.42,0-3.57c0.14-0.34,0.33-0.67,0.57-0.98c0.03-0.03,0.05-0.06,0.08-0.09c1.54-1.94,4.36-2.31,6.35-0.8
			c2.02,1.53,2.42,4.41,0.89,6.43c-0.25,0.33-0.55,0.64-0.89,0.89c-0.08,0.06-0.15,0.14-0.19,0.23l-2.58,5.14L43.21,30.3z
			 M39.89,35.59c0-0.36,0.3-0.65,0.65-0.65h3.53l0.65,1.32h-4.83V35.59z M45.13,48.04h-1.31V44.1h1.31L45.13,48.04L45.13,48.04z
			 M47.75,48.04h-1.32V44.1h1.32V48.04z M51.68,48.04h-2.62v-4.59c0-0.36-0.29-0.65-0.65-0.65h-5.24c-0.36,0-0.65,0.3-0.65,0.65
			v4.59h-2.62v-6.55c0.2,0,0.39-0.03,0.57-0.07c0.4-0.09,0.78-0.27,1.1-0.53c0.1-0.1,0.2-0.19,0.3-0.3
			c0.07,0.08,0.14,0.16,0.21,0.22c0.98,0.88,2.47,0.91,3.48,0.03c0.09-0.08,0.17-0.16,0.24-0.24c0.96,1.09,2.61,1.19,3.69,0.24
			c0.09-0.08,0.17-0.16,0.24-0.24c0.5,0.57,1.21,0.9,1.96,0.9L51.68,48.04L51.68,48.04z M51.51,40.17c-0.65-0.09-1.13-0.64-1.13-1.3
			c0-0.37-0.3-0.66-0.65-0.66c-0.37,0-0.66,0.3-0.66,0.66c0,0.72-0.58,1.31-1.31,1.31c-0.72,0-1.32-0.58-1.32-1.31
			c0-0.37-0.29-0.66-0.65-0.66c-0.36,0-0.65,0.3-0.65,0.66c0,0.72-0.58,1.31-1.31,1.31c-0.73,0-1.32-0.58-1.32-1.31
			c0-0.21-0.1-0.39-0.24-0.51c-0.11-0.09-0.25-0.15-0.41-0.15c-0.1,0-0.21,0.03-0.3,0.08c-0.22,0.1-0.36,0.32-0.36,0.58
			c0,0.46-0.24,0.87-0.62,1.11c-0.2,0.13-0.44,0.2-0.7,0.2c-0.11,0-0.22-0.02-0.32-0.04c-0.51-0.12-0.91-0.55-0.98-1.09l0.99-1.49
			h12.4l0.99,1.49C52.88,39.77,52.22,40.26,51.51,40.17z"/>
		<path class="st0" d="M45.78,23.8c-1.45,0-2.62,1.18-2.62,2.62c0,1.45,1.18,2.62,2.62,2.62c1.45,0,2.62-1.18,2.62-2.62
			S47.23,23.8,45.78,23.8z M45.78,27.73c-0.72-0.01-1.31-0.59-1.31-1.32c0-0.72,0.58-1.31,1.31-1.31c0.72,0,1.32,0.58,1.32,1.31
			S46.51,27.73,45.78,27.73z"/>
	</g>
	<g>
		<path class="st0" d="M16.35,33.26c-2.46,0-4.46,2-4.46,4.46c0,1.45,1.77,3.91,2.53,4.9c0.58,0.76,2.59,3.27,3.89,3.64l0.02,0.01
			c0.26,0.07,0.46,0.07,0.61,0.07h0.17c0.11,0,0.29,0,0.52-0.08c1.31-0.39,3.3-2.88,3.88-3.64c0.76-0.99,2.53-3.45,2.53-4.9v-0.02
			c-0.03-1.18-0.5-2.29-1.34-3.13c-0.85-0.85-1.97-1.31-3.17-1.31c-0.93,0-1.83,0.29-2.6,0.83C18.18,33.55,17.29,33.26,16.35,33.26z
			 M19.45,35.58c0.58-0.54,1.32-0.84,2.09-0.84c1.63,0,3,1.35,3.03,2.99c0,0.54-0.7,2.02-2.22,4c-1.49,1.95-2.75,3.01-3.13,3.12
			c-0.01,0-0.02,0.01-0.04,0.01c-0.01,0-0.01,0-0.07,0h-0.17c-0.1,0-0.16,0-0.24-0.02c-0.4-0.13-1.63-1.17-3.12-3.12
			c-1.53-1.99-2.22-3.47-2.22-4.01c0-1.65,1.34-2.99,2.99-2.99c0.77,0,1.52,0.3,2.09,0.84C18.73,35.84,19.17,35.84,19.45,35.58z"/>
		<path class="st0" d="M15.99,23.53c-1.32,0-2.39,1.42-2.39,3.17s1.07,3.17,2.39,3.17c1.32,0,2.39-1.42,2.39-3.17
			S17.3,23.53,15.99,23.53z M16.9,26.69c0,1.03-0.54,1.69-0.92,1.69c-0.37,0-0.92-0.66-0.92-1.69c0-1.03,0.54-1.69,0.92-1.69
			C16.36,25,16.9,25.66,16.9,26.69z"/>
		<path class="st0" d="M21.73,23.53c-1.32,0-2.39,1.42-2.39,3.17s1.07,3.17,2.39,3.17c1.32,0,2.39-1.42,2.39-3.17
			S23.05,23.53,21.73,23.53z M21.73,28.39c-0.37,0-0.92-0.66-0.92-1.69c0-1.03,0.54-1.69,0.92-1.69s0.92,0.66,0.92,1.69
			C22.65,27.73,22.1,28.39,21.73,28.39z"/>
		<path class="st0" d="M26.86,33.38c1.32,0,2.39-1.42,2.39-3.17c0-1.74-1.07-3.17-2.39-3.17s-2.39,1.42-2.39,3.17
			C24.47,31.96,25.54,33.38,26.86,33.38z M25.94,30.22c0-1.03,0.54-1.69,0.92-1.69c0.37,0,0.92,0.66,0.92,1.69s-0.54,1.69-0.92,1.69
			C26.48,31.91,25.94,31.25,25.94,30.22z"/>
		<path class="st0" d="M10.85,27.01c-1.32,0-2.39,1.42-2.39,3.17c0,1.74,1.07,3.17,2.39,3.17s2.39-1.42,2.39-3.17
			C13.24,28.43,12.16,27.01,10.85,27.01z M11.76,30.18c0,1.03-0.54,1.69-0.92,1.69s-0.92-0.66-0.92-1.69c0-1.03,0.54-1.69,0.92-1.69
			S11.76,29.14,11.76,30.18z"/>
	</g>
</g>
</svg>
