<?xml version="1.0" encoding="utf-8"?>
<!-- Generator: Adobe Illustrator 25.0.1, SVG Export Plug-In . SVG Version: 6.00 Build 0)  -->
<svg version="1.1" id="Calque_1" xmlns="http://www.w3.org/2000/svg" xmlns:xlink="http://www.w3.org/1999/xlink" x="0px" y="0px"
	 viewBox="0 0 60 60" style="enable-background:new 0 0 60 60;" xml:space="preserve">
<style type="text/css">
	.st0{fill:#DE1A46;}
</style>
<g>
	<path class="st0" d="M29.99,0c-7.84,0-14.22,6.38-14.22,14.22c0,7.84,6.38,14.22,14.22,14.22s14.22-6.38,14.22-14.22
		C44.21,6.38,37.84,0,29.99,0z M29.99,26.62c-6.83,0-12.39-5.56-12.39-12.4c0-6.83,5.57-12.39,12.39-12.4l0.36,0.01v0.01
		c6.67,0.19,12.04,5.68,12.04,12.39C42.39,21.06,36.83,26.62,29.99,26.62z"/>
	<path class="st0" d="M29.99,29.83c-12.18,0.01-22.1,9.93-22.12,22.12c0,0.5,0.41,0.91,0.91,0.91c0.5,0,0.91-0.41,0.91-0.91
		c0.01-7.56,4.17-14.44,10.86-17.96l0.23-0.12c0.02-0.01,0.05-0.03,0.08-0.04c0.37-0.2,1.15-0.6,1.8-0.84l0.27-0.1
		c2.26-0.84,4.63-1.26,7.04-1.26c2.81,0,5.54,0.57,8.11,1.7l0.38,0.16l0.02,0.01l0,0c0.4,0.18,1.17,0.66,1.63,0.93
		c0.04,0.03,0.09,0.05,0.12,0.07l0.17,0.1c6.06,3.63,9.84,10.27,9.87,17.34c0,0.5,0.41,0.91,0.91,0.91c0.5,0,0.91-0.41,0.91-0.91
		C52.1,39.77,42.18,29.85,29.99,29.83z"/>
	<path class="st0" d="M44.73,55.57c-0.44-1.45-1.76-2.43-3.28-2.43c-0.34,0-0.68,0.05-1,0.15c-0.99,0.3-1.78,1.02-2.17,1.98
		l-0.09,0.23h-0.24c-1.81,0-3.55-0.69-4.89-1.93c-2.65-2.62-2.56-7.5-2.51-9.85v-4l1.07,0c3.42-0.3,6.45-2.13,8.32-5l0.19-0.29
		c-0.45-0.27-1.23-0.76-1.63-0.93l-0.25,0.36c-1.57,2.27-4.05,3.72-6.8,3.97c-0.26,0.02-0.53,0.03-0.79,0.03
		c-3.21,0-6.24-1.7-7.9-4.44l-0.22-0.37l0.14-0.05c-0.65,0.24-1.43,0.64-1.8,0.84l0.18,0.3c1.58,2.76,4.28,4.71,7.39,5.34l0.29,0.06
		v4.4c0,2.97-0.01,7.93,3.02,10.94c1.66,1.55,3.81,2.42,6.08,2.45l0.26,0l0.08,0.25c0.44,1.45,1.76,2.43,3.28,2.43
		c0.34,0,0.67-0.05,1-0.15c0.87-0.27,1.6-0.86,2.03-1.67C44.91,57.37,45,56.44,44.73,55.57z M41.43,58.24
		c-0.82,0-1.52-0.63-1.61-1.45l-0.01-0.07l0.02-0.07c0.02-0.08,0.03-0.16,0.03-0.25v-0.17l0.01-0.04c0.19-0.72,0.84-1.22,1.58-1.22
		h0c0.9,0,1.63,0.74,1.62,1.64C43.07,57.52,42.33,58.24,41.43,58.24z"/>
	<path class="st0" d="M19.54,51.93c-0.55-0.01-0.88-0.45-0.88-1.16v-1.73h-1.85c-0.5,0-0.91-0.41-0.91-0.91s0.41-0.91,0.91-0.91
		h1.87v-1.9c-0.01-0.29,0.07-0.52,0.24-0.7c0.16-0.18,0.39-0.29,0.63-0.3c0.27,0.01,0.49,0.1,0.66,0.28
		c0.17,0.17,0.25,0.4,0.25,0.64l0,1.98h1.92c0.56,0,0.96,0.4,0.97,0.9c0,0.51-0.42,0.92-0.93,0.92h-1.97v1.76
		c-0.01,0.68-0.36,1.12-0.88,1.12L19.54,51.93L19.54,51.93z"/>
	<path class="st0" d="M40.12,34.43c0.04,0.03,0.09,0.05,0.12,0.07"/>
	<path class="st0" d="M38.45,33.48c0.01,0,0.01,0.01,0.02,0.01c0.01,0,0.01,0.01,0.02,0.01"/>
</g>
</svg>
