<?xml version="1.0" encoding="UTF-8"?>
<svg width="20px" height="20px" viewBox="0 0 20 20" version="1.1" xmlns="http://www.w3.org/2000/svg" xmlns:xlink="http://www.w3.org/1999/xlink">
    <title>A8614162-389B-4CC0-A055-038BF43BDFB0</title>
    <g id="Page-1" stroke="none" stroke-width="1" fill="none" fill-rule="evenodd">
        <g id="Job_offer" transform="translate(-951.000000, -687.000000)" fill="#63BAE9">
            <g id="Group" transform="translate(930.000000, 424.000000)">
                <g id="Group-24-Copy-3" transform="translate(21.000000, 261.000000)">
                    <g id="ico-/-20px-/-Euro" transform="translate(0.000000, 2.000000)">
                        <g id="Combined-Shape-2" transform="translate(1.000000, 1.000000)">
                            <path d="M2.60216883,2.60225649 C6.07242857,-0.867535714 11.7178831,-0.867301947 15.1872078,2.60225649 C18.6572338,6.0720487 18.6572338,11.717737 15.1872078,15.1872955 C13.4524286,16.9223084 11.1736753,17.7898149 8.89468831,17.7898149 C6.61593506,17.7898149 4.33718182,16.9223084 2.60216883,15.1872955 C-0.86738961,11.717737 -0.86738961,6.0720487 2.60216883,2.60225649 Z M8.89492208,1.59308766 C7.02409091,1.59308766 5.15349351,2.30513961 3.72938961,3.72924351 C0.880948052,6.57768507 0.880948052,11.2121007 3.72938961,14.0605422 C6.5775974,16.90875 11.2117792,16.90875 14.0604545,14.0605422 C16.9086623,11.2121007 16.9086623,6.57768507 14.0604545,3.72924351 C12.6361169,2.30513961 10.7655195,1.59308766 8.89492208,1.59308766 Z M8.28705974,4.38713182 C9.49142338,4.22583312 10.6859688,4.5437552 11.6511896,5.2810539 C12.0009039,5.5482487 12.067761,6.04827468 11.8005662,6.39822273 C11.5333714,6.74770325 11.0331117,6.81502792 10.6836312,6.54759935 C9.44560519,5.60201494 7.6953974,5.79043052 6.68015065,6.93962533 L6.68015065,6.93962533 L7.55467013,6.93962533 C7.99485195,6.93962533 8.35157922,7.29658636 8.35157922,7.73653442 C8.35157922,8.17671623 7.99485195,8.53367727 7.55467013,8.53367727 L7.55467013,8.53367727 L5.96202078,8.53367727 C5.92812468,8.81372922 5.9342026,9.09611883 5.97931948,9.37289805 L5.97931948,9.37289805 L7.55467013,9.37289805 C7.99485195,9.37289805 8.35157922,9.72962533 8.35157922,10.1698071 C8.35157922,10.609989 7.99485195,10.9667162 7.55467013,10.9667162 L7.55467013,10.9667162 L6.78931948,10.9667162 C6.88492987,11.0634955 6.98568312,11.1572357 7.09672208,11.2420929 C8.15287792,12.0488201 9.62770909,12.0488201 10.6836312,11.2420929 C11.0333455,10.9748981 11.5336052,11.041989 11.8005662,11.3917032 C12.067761,11.7414175 12.0009039,12.2414435 11.6511896,12.5086383 C10.8383844,13.1295214 9.86428052,13.439963 8.89017662,13.439963 C7.91607273,13.439963 6.94196883,13.1295214 6.12916364,12.5086383 C5.58168312,12.0901968 5.14991688,11.5625864 4.84508571,10.9667162 L4.84508571,10.9667162 L4.30835844,10.9667162 C3.86817662,10.9667162 3.51144935,10.609989 3.51144935,10.1698071 C3.51144935,9.72962533 3.86817662,9.37289805 4.30835844,9.37289805 L4.30835844,9.37289805 L4.37194286,9.37289805 C4.34202078,9.09120974 4.33641039,8.81069026 4.35791688,8.53367727 L4.35791688,8.53367727 L4.30835844,8.53367727 C3.86817662,8.53367727 3.51144935,8.17671623 3.51144935,7.73653442 C3.51144935,7.29658636 3.86817662,6.93962533 4.30835844,6.93962533 L4.30835844,6.93962533 L4.78454026,6.93962533 C4.91942338,6.65817078 5.08235844,6.38770325 5.27638442,6.13383312 C6.01368312,5.16861234 7.08316364,4.54819675 8.28705974,4.38713182 Z" id="Combined-Shape"></path>
                        </g>
                    </g>
                </g>
            </g>
        </g>
    </g>
</svg>