<svg xmlns="http://www.w3.org/2000/svg" width="21" height="20" viewBox="0 0 21 20">
    <g fill="none" fill-rule="evenodd">
        <g fill="#FFF">
            <g>
                <g>
                    <g>
                        <g>
                            <path d="M5.333 10.667c1.214 0 2.273.823 2.572 2h7.428c.369 0 .667.298.667.666 0 .369-.298.667-.667.667H7.905c-.299 1.176-1.358 2-2.572 2-1.213 0-2.273-.824-2.571-2H.667C.298 14 0 13.702 0 13.333c0-.368.298-.666.667-.666h2.095c.298-1.177 1.358-2 2.571-2zm0 1.333C4.597 12 4 12.597 4 13.333c0 .737.597 1.334 1.333 1.334.737 0 1.334-.597 1.334-1.334 0-.736-.597-1.333-1.334-1.333zm5.334-6.667c1.213 0 2.273.824 2.571 2h2.095c.369 0 .667.299.667.667 0 .368-.298.667-.667.667h-2.095c-.298 1.176-1.358 2-2.571 2-1.214 0-2.273-.824-2.572-2H.667C.298 8.667 0 8.368 0 8c0-.368.298-.667.667-.667h7.428c.299-1.176 1.358-2 2.572-2zm0 1.334c-.737 0-1.334.597-1.334 1.333 0 .737.597 1.333 1.334 1.333C11.403 9.333 12 8.737 12 8c0-.736-.597-1.333-1.333-1.333zM5.333 0c1.214 0 2.273.824 2.572 2h7.428c.369 0 .667.299.667.667 0 .368-.298.667-.667.667H7.905c-.299 1.176-1.358 2-2.572 2-1.213 0-2.273-.824-2.571-2H.667C.298 3.334 0 3.035 0 2.667 0 2.299.298 2 .667 2h2.095C3.06.824 4.12 0 5.333 0zm0 1.334C4.597 1.334 4 1.93 4 2.667 4 3.403 4.597 4 5.333 4c.737 0 1.334-.597 1.334-1.333 0-.737-.597-1.333-1.334-1.333z" transform="translate(-235 -5118) translate(0 5080) translate(191 26) translate(44.5 12) translate(2 2)"/>
                        </g>
                    </g>
                </g>
            </g>
        </g>
    </g>
</svg>
