<?xml version="1.0" encoding="UTF-8"?>
<svg width="59px" height="57px" viewBox="0 0 59 57" version="1.1" xmlns="http://www.w3.org/2000/svg" xmlns:xlink="http://www.w3.org/1999/xlink">
    <title>A0F7C375-D62A-40DE-B17F-41074CC5FB6B</title>
    <g id="Page-1" stroke="none" stroke-width="1" fill="none" fill-rule="evenodd">
        <g id="Home_v2" transform="translate(-445.000000, -8784.000000)" fill="#DE1A46" fill-rule="nonzero">
            <g id="Elements/Footer-+-NL-+-Réa" transform="translate(0.000000, 8742.000000)">
                <g id="Elements-/-Réassurance" transform="translate(154.000000, 0.000000)">
                    <g id="Group-7" transform="translate(0.000000, 31.000000)">
                        <g id="Combined-Shape-3" transform="translate(291.000000, 11.000000)">
                            <path d="M51.311089,21.5037447 L51.5574661,21.507613 C55.477339,21.6404261 58.5603119,24.9053078 58.4260429,28.7839665 L58.4260429,28.7839665 L58.4082444,29.2096828 C57.8198438,41.2528396 50.0954982,51.6794453 38.6272303,55.8481849 C37.8359556,56.1357317 37.0120914,56.2814393 36.1712806,56.2814393 C35.3252555,56.2814393 34.496177,56.1357317 33.7062059,55.845606 C31.9242085,55.1957243 30.5033035,53.895961 29.7068145,52.1887322 C28.9116291,50.4815034 28.8360213,48.5692524 29.4943305,46.8065774 C30.5215536,44.0548959 33.2069338,42.203249 36.1712806,42.203249 C37.013395,42.203249 37.8424735,42.3489566 38.6363553,42.6390823 C39.3481114,42.8982613 40.1745828,42.7499748 40.7481592,42.2638531 C43.056804,40.3103398 44.8870339,37.8062323 46.0433117,35.026183 C46.3379214,34.323434 46.2219025,33.5175291 45.7447913,32.9230937 C44.6914965,31.6155937 44.1439919,29.9728373 44.2026531,28.3030025 C44.3343149,24.4901056 47.4563953,21.5037447 51.311089,21.5037447 L51.311089,21.5037447 Z M51.311089,23.4366268 C48.5162079,23.4366268 46.2505813,25.602899 46.1554198,28.3674749 C46.111098,29.5795558 46.5099943,30.7710055 47.2725901,31.720039 C48.1903123,32.8612002 48.4119213,34.409827 47.8500772,35.7598787 C46.576477,38.8223171 44.5598347,41.5778669 42.0191522,43.7338235 C40.9163213,44.6686731 39.3233434,44.9510621 37.9584924,44.4520458 C37.3823089,44.2431553 36.7813573,44.1348417 36.1712806,44.1348417 C34.0203693,44.1348417 32.0741205,45.4771568 31.3284712,47.4745113 C30.8526636,48.7536435 30.9087176,50.1410892 31.4835976,51.3802485 C32.0623882,52.6168289 33.0922185,53.5594151 34.386676,54.0326425 C35.5312216,54.4504235 36.8074289,54.4530024 37.9532781,54.0326425 C48.8069068,50.0882219 56.0743799,40.1504482 56.4719726,28.7156258 C56.5684377,25.9033403 54.3354007,23.5359143 51.4896798,23.4392057 L51.4896798,23.4392057 Z M12.4160948,5.1509686 C18.5207721,0.983473554 25.8977461,-0.584494881 33.1965051,0.739767933 C40.4913534,2.06403075 46.8306756,6.1180544 51.042551,12.1565381 C51.3515001,12.5962398 51.239392,13.1984119 50.7948703,13.5014321 C50.3503486,13.8057417 49.7415756,13.6948492 49.4352337,13.2551476 C45.5192715,7.64218161 39.6257745,3.87441536 32.8432342,2.64428222 C26.0619975,1.41285965 19.2012422,2.87122502 13.5267472,6.74472599 C1.81145027,14.7431702 -1.13986075,30.6781652 6.94495858,42.2625636 C10.2912551,47.0631775 15.2513869,50.6117376 20.9063283,52.2557835 C21.4238506,52.4079383 21.7210674,52.9443486 21.5685483,53.4575488 C21.4434043,53.8779087 21.0536331,54.1499822 20.6312724,54.1499822 C20.5400216,54.1499822 20.4448601,54.1396666 20.3549129,54.1125882 C14.2710928,52.3421765 8.93552922,48.5241218 5.33633764,43.363752 C-3.36116552,30.8973714 -0.185638284,13.7567427 12.4160948,5.1509686 Z M28.1894443,10.2816811 C28.7291275,10.2816811 29.1671313,10.7149355 29.1671313,11.2487669 L29.1671313,11.2487669 L29.1671313,24.8782294 C30.3872846,25.2856948 31.2763279,26.4165405 31.2763279,27.760145 C31.2763279,29.4441638 29.8919232,30.8148467 28.1894443,30.8148467 C26.8311112,30.8148467 25.6878693,29.9354433 25.2759372,28.7272308 L25.2759372,28.7272308 L18.5038256,28.7272308 C17.9641424,28.7272308 17.5261386,28.2939764 17.5261386,27.760145 C17.5261386,27.2263137 17.9641424,26.7930592 18.5038256,26.7930592 L18.5038256,26.7930592 L25.2759372,26.7930592 C25.5835827,25.8904458 26.2992495,25.182539 27.2117574,24.8782294 L27.2117574,24.8782294 L27.2117574,11.2487669 C27.2117574,10.7149355 27.6497611,10.2816811 28.1894443,10.2816811 Z M28.1907479,26.6409044 C27.5650283,26.6409044 27.0592382,27.143789 27.0592382,27.760145 C27.0592382,28.376501 27.5663318,28.8793857 28.1907479,28.8793857 C28.8125568,28.8793857 29.3222576,28.376501 29.3222576,27.760145 C29.3222576,27.143789 28.815164,26.6409044 28.1907479,26.6409044 Z" id="Combined-Shape"></path>
                        </g>
                    </g>
                </g>
            </g>
        </g>
    </g>
</svg>