<?xml version="1.0" encoding="UTF-8"?>
<svg width="29px" height="58px" viewBox="0 0 29 58" version="1.1" xmlns="http://www.w3.org/2000/svg" xmlns:xlink="http://www.w3.org/1999/xlink">
    <title>B5D88F23-7356-459A-88F2-5E52196A9D6B</title>
    <g id="Page-1" stroke="none" stroke-width="1" fill="none" fill-rule="evenodd">
        <g id="Home_v2" transform="translate(-1027.000000, -8783.000000)" fill="#DE1A46">
            <g id="Elements/Footer-+-NL-+-Réa" transform="translate(0.000000, 8742.000000)">
                <g id="Elements-/-Réassurance" transform="translate(154.000000, 0.000000)">
                    <g id="Group-7" transform="translate(0.000000, 31.000000)">
                        <g id="Combined-Shape-2" transform="translate(873.000000, 10.000000)">
                            <path d="M14.5003521,0 C17.7912771,0 20.4681027,2.75645 20.4681027,6.144375 C20.4681027,7.360925 20.068093,8.673175 19.2772287,10.044875 L19.2772287,10.044875 L19.2300444,10.118825 C24.9069429,12.144475 29,17.69 29,24.214275 L29,24.214275 L29,57.275 C29,57.675925 28.6844994,58 28.2957575,58 L28.2957575,58 L0.704242454,58 C0.315500619,58 1.27897692e-13,57.675925 1.27897692e-13,57.275 L1.27897692e-13,57.275 L1.27897692e-13,24.214275 C1.27897692e-13,17.690725 4.0923529,12.1452 9.76854707,10.11955 C9.04951553,8.88995 8.53119308,7.524775 8.53119308,6.144375 C8.53119308,2.75645 11.2087229,0 14.5003521,0 Z M14.5003521,10.73725 C13.6756842,10.73725 12.8714393,10.8257 12.0883217,10.9765 C13.1798975,12.34095 14.3510527,13.375525 14.7651473,13.724975 C16.818014,13.86635 18.4469268,15.625925 18.4469268,17.7741 C18.4469268,20.01435 16.6757571,21.837 14.5003521,21.837 C12.3235387,21.837 10.5530732,20.01435 10.5530732,17.7741 C10.5530732,16.094275 11.5481678,14.64935 12.9636951,14.03165 C12.2812841,13.384225 11.3939387,12.456225 10.5861726,11.3535 C5.27336749,13.071025 1.40848491,18.1859 1.40848491,24.214275 L1.40848491,24.214275 L1.40848491,56.55 L27.5915151,56.55 L27.5915151,24.214275 C27.5915151,16.783025 21.7188373,10.73725 14.5003521,10.73725 Z M17.5123267,25.364415 C19.9729498,25.364415 21.9758153,27.426315 21.9758153,29.959465 C21.9758153,32.1821747 20.4351293,34.040951 18.3960435,34.4641002 L18.1905122,34.50159 L18.1905122,42.65059 C20.3405644,42.99714 21.9758153,44.90099 21.9758153,47.19054 C21.9758153,49.72369 19.9729498,51.78559 17.5123267,51.78559 C16.3770878,51.78559 15.3157945,51.35349 14.5002817,50.57919 C13.6840647,51.35349 12.6234756,51.78559 11.4882367,51.78559 C9.02690935,51.78559 7.02474805,49.72369 7.02474805,47.19054 C7.02474805,44.9776529 8.55224334,43.1239463 10.5796276,42.6906007 L10.7839943,42.65204 L10.7839943,34.497965 C8.65577357,34.14924 7.02474805,32.247565 7.02474805,29.959465 C7.02474805,27.426315 9.02690935,25.364415 11.4882367,25.364415 C12.6234756,25.364415 13.6840647,25.796515 14.5002817,26.57154 C15.3157945,25.796515 16.3770878,25.364415 17.5123267,25.364415 Z M17.5123267,26.814415 C16.5411763,26.814415 15.6489011,27.27769 15.0643799,28.08389 C14.7981763,28.451465 14.2016829,28.451465 13.9354792,28.08389 C13.350958,27.27769 12.4586828,26.814415 11.4882367,26.814415 C9.80368877,26.814415 8.43323296,28.225265 8.43323296,29.959465 C8.43323296,31.693665 9.80368877,33.10524 11.4882367,33.10524 C11.8445834,33.10524 12.1393871,33.377553 12.1860464,33.7317529 L12.1924792,33.83024 L12.1924792,43.32049 C12.1924792,43.72069 11.8769786,44.04549 11.4882367,44.04549 C9.80368877,44.04549 8.43323296,45.455615 8.43323296,47.19054 C8.43323296,48.924015 9.80368877,50.33559 11.4882367,50.33559 C12.4586828,50.33559 13.350958,49.872315 13.9354792,49.066115 C14.0685811,48.88269 14.2777411,48.77394 14.5002817,48.77394 C14.7228223,48.77394 14.9312781,48.88269 15.0643799,49.066115 C15.6489011,49.872315 16.5411763,50.33559 17.5123267,50.33559 C19.1968746,50.33559 20.5673304,48.924015 20.5673304,47.19054 C20.5673304,45.455615 19.1968746,44.04549 17.5123267,44.04549 C17.1553344,44.04549 16.8391736,43.7725678 16.7889592,43.4188248 L16.7820272,43.32049 L16.7820272,33.83024 C16.7820272,33.4627254 17.0465436,33.1597862 17.3906024,33.1118485 L17.4862697,33.10524 L17.5123267,33.10524 C19.1968746,33.10524 20.5673304,31.693665 20.5673304,29.959465 C20.5673304,28.225265 19.1968746,26.814415 17.5123267,26.814415 Z M14.5003521,15.1612 C13.1003181,15.1612 11.9615581,16.333525 11.9615581,17.7741 C11.9615581,19.214675 13.1003181,20.387 14.5003521,20.387 C15.8996819,20.387 17.0384419,19.214675 17.0384419,17.7741 C17.0384419,16.333525 15.8996819,15.1612 14.5003521,15.1612 Z M14.5003521,1.45 C11.9855023,1.45 9.93967799,3.556125 9.93967799,6.144375 C9.93967799,7.350775 10.4657471,8.58255 11.1728065,9.69905 C12.2432551,9.4395 13.3538454,9.28725 14.5003521,9.28725 C15.6433376,9.28725 16.751111,9.43805 17.8180383,9.696875 L17.8180383,9.696875 L18.0800165,9.28145 C18.7258068,8.1606 19.0596178,7.097025 19.0596178,6.144375 C19.0596178,3.556125 17.0144977,1.45 14.5003521,1.45 Z" id="Combined-Shape"></path>
                        </g>
                    </g>
                </g>
            </g>
        </g>
    </g>
</svg>