<?xml version="1.0" encoding="UTF-8"?>
<svg width="52px" height="59px" viewBox="0 0 52 59" version="1.1" xmlns="http://www.w3.org/2000/svg" xmlns:xlink="http://www.w3.org/1999/xlink">
    <title>3752D19A-0BDA-4AB9-AD09-26F91B295DEC</title>
    <defs>
        <filter id="filter-1">
            <feColorMatrix in="SourceGraphic" type="matrix" values="0 0 0 0 0.870588 0 0 0 0 0.101961 0 0 0 0 0.274510 0 0 0 1.000000 0"></feColorMatrix>
        </filter>
    </defs>
    <g id="Page-1" stroke="none" stroke-width="1" fill="none" fill-rule="evenodd">
        <g id="Home_v2" transform="translate(-736.000000, -8783.000000)">
            <g id="Elements/Footer-+-NL-+-Réa" transform="translate(0.000000, 8742.000000)">
                <g id="Elements-/-Réassurance" transform="translate(154.000000, 0.000000)">
                    <g id="Shape-3" transform="translate(0.000000, 31.000000)" filter="url(#filter-1)">
                        <g transform="translate(582.870000, 10.000000)">
                            <path d="M25.3265082,-3.55271368e-15 L25.3265082,0.00121245638 C25.2134774,-3.55271368e-15 25.102344,0.0305247414 25.0049904,0.0884617688 L0.336118389,14.6638517 C0.314169711,14.6768781 0.293032636,14.6912485 0.272825893,14.706882 C0.102278872,14.8239304 0,15.0184738 0,15.2265503 L0.180214512,44.0972764 C0.181094377,44.3216392 0.300371078,44.5285467 0.493247814,44.6402905 L25.105556,58.7646942 C25.117857,58.7730694 25.1304505,58.780999 25.1433123,58.7884678 L25.3735033,58.9187474 C25.520592,59.0024988 25.6950678,59.0224867 25.8570292,58.9741401 C25.9051406,58.9597499 25.9513543,58.9395547 25.9946677,58.9139927 L50.6918216,44.3202971 C50.7098383,44.3096971 50.7273164,44.298192 50.7441902,44.2858253 C50.8452015,44.2111704 50.9215934,44.1075708 50.9634219,43.988512 C50.9634223,43.9880999 50.9634223,43.9876878 50.9634219,43.9872757 C50.97757,43.9478277 50.9877709,43.907051 50.9938721,43.8655546 C50.997974,43.8362573 51,43.8067047 51,43.7771166 L51,43.7723619 L50.81975,14.9063905 C50.8181245,14.6812694 50.697362,14.4741856 50.5030872,14.3633764 L50.3581661,14.2799309 C50.3481986,14.2732985 50.3380444,14.2669563 50.3277159,14.260912 L25.6282052,0.086108177 C25.537053,0.0327348869 25.4339776,0.00353520226 25.3286058,0.00123623004 L25.3265082,-3.55271368e-15 Z M25.3227373,1.36120814 L48.7422572,14.801406 L25.3168453,28.6433787 L16.2616935,23.4440804 L22.1235851,19.3310004 L14.0304887,14.8774817 L8.04816351,18.7302402 L1.89897521,15.199377 L8.96543923,11.0235346 L25.3227373,1.36120814 Z M49.5744515,15.8013259 L49.7510483,43.4191805 L26.0673286,57.414731 L25.8968124,29.7897443 L49.5744515,15.8013259 Z M1.25249852,16.279224 L7.54427464,19.8899666 L7.54427464,47.2391789 L1.42171845,43.7254327 L1.25249852,16.279224 Z M14.0759754,16.3358052 L19.7514422,19.4610899 L15.1488015,22.6921673 L9.37576221,19.3629047 L14.0759754,16.3358052 Z M8.79148209,20.6050781 L14.560774,23.916035 L14.7994967,51.1606432 L8.79148209,47.8178296 L8.79148209,20.6050781 Z M15.8141328,24.6359013 L24.6477431,29.7049199 L24.8170337,57.1539815 L16.0541281,52.1244271 L15.8141328,24.6359013 Z" id="Shape" fill="#63BAE9"></path>
                        </g>
                    </g>
                </g>
            </g>
        </g>
    </g>
</svg>