<svg xmlns="http://www.w3.org/2000/svg" width="20" height="20" viewBox="0 0 20 20">
    <g fill="none" fill-rule="evenodd">
        <g fill="#DE1A46">
            <g>
                <g>
                    <g>
                        <g>
                            <g>
                                <path d="M10 17l-.411-.227C9.203 16.546 0 11.375 0 5.801 0 2.598 2.648 0 5.913 0 7.686 0 9.126 1.135 10 2.043 10.874 1.11 12.314 0 14.087 0 17.352 0 20 2.598 20 5.801c0 5.55-9.177 10.745-9.589 10.972L10 17zM5.913 1.64C3.573 1.64 1.67 3.505 1.67 5.8c0 3.632 5.655 7.744 8.329 9.307 2.648-1.563 8.329-5.675 8.329-9.307 0-2.295-1.902-4.162-4.242-4.162-1.645 0-3.033 1.665-3.419 2.17L10 4.69l-.668-.882c-.386-.505-1.774-2.17-3.42-2.17z" transform="translate(-468 -503) translate(154 481) translate(300 8) translate(14 14) translate(0 1) translate(-.003 .59)"/>
                            </g>
                        </g>
                    </g>
                </g>
            </g>
        </g>
    </g>
</svg>
