<?xml version="1.0" encoding="UTF-8"?>
<svg width="550px" height="394px" viewBox="0 0 550 394" version="1.1" xmlns="http://www.w3.org/2000/svg" xmlns:xlink="http://www.w3.org/1999/xlink">
    <title>C6101788-11A9-4F27-9EAC-E565AD38B817</title>
    <defs>
        <path d="M10.2555408,3.90809465e-17 L539.744459,1.32117026e-15 C543.310534,-7.67637969e-16 544.603679,0.371302445 545.907383,1.06853082 C547.211087,1.76575919 548.234241,2.78891348 548.931469,4.09261719 C549.628698,5.39632089 550,6.68946584 550,10.2555408 L550,383.744459 C550,387.310534 549.628698,388.603679 548.931469,389.907383 C548.234241,391.211087 547.211087,392.234241 545.907383,392.931469 C544.603679,393.628698 543.310534,394 539.744459,394 L10.2555408,394 C6.68946584,394 5.39632089,393.628698 4.09261719,392.931469 C2.78891348,392.234241 1.76575919,391.211087 1.06853082,389.907383 C0.371302445,388.603679 9.20895104e-15,387.310534 -1.58493883e-14,383.744459 L7.29641152e-16,10.2555408 C-4.23942521e-16,6.68946584 0.371302445,5.39632089 1.06853082,4.09261719 C1.76575919,2.78891348 2.78891348,1.76575919 4.09261719,1.06853082 C5.39632089,0.371302445 6.68946584,-2.27071554e-17 10.2555408,3.90809465e-17 Z" id="path-1"></path>
    </defs>
    <g id="Page-1" stroke="none" stroke-width="1" fill="none" fill-rule="evenodd">
        <g id="Home_v2" transform="translate(-736.000000, -5211.000000)">
            <g id="Pattern-2" transform="translate(736.000000, 5211.000000)">
                <mask id="mask-2" fill="white">
                    <use xlink:href="#path-1"></use>
                </mask>
                <use id="Mask" fill="#63BAE9" xlink:href="#path-1"></use>
                <g opacity="0.08" mask="url(#mask-2)">
                    <g transform="translate(281.500000, 197.000000) rotate(45.000000) translate(-281.500000, -197.000000) translate(-61.000000, -290.000000)">
                        <path d="M52.1638544,536.273258 C51.742722,536.263002 51.322858,536.256593 50.8991886,536.256593 C50.4755192,536.256593 50.0556552,536.263002 49.6345227,536.273258 C23.5217726,535.596405 2.53998888,514.062762 2.39918856,487.54246 L99.3991886,487.54246 C99.2571198,514.062762 78.277873,535.596405 52.1638544,536.273258 M99.3979201,487.407859 C99.3979201,487.364274 99.3979201,487.318125 99.3979201,487.273258 L99.3991886,487.273258 C99.3991886,487.318125 99.3979201,487.364274 99.3979201,487.407859 M2.39918856,487.407859 C2.39918856,487.364274 2.39918856,487.318125 2.39918856,487.273258 C2.39918856,487.318125 2.39918856,487.364274 2.39918856,487.407859" id="Fill-4" fill="#94CEE4"></path>
                        <path d="M3.10629535,585.063626 C3.10629535,558.000596 24.819987,536.063626 51.6062953,536.063626 C78.3926037,536.063626 100.106295,558.000596 100.106295,585.063626 L3.10629535,585.063626" id="Fill-5" fill="#64BFDD"></path>
                        <path d="M99.559375,583.607782 L99.231187,583.607782 L99.231187,486.607782 L99.231187,486.904608 C100.531119,486.904608 101.822077,486.853868 103.097651,486.756195 C127.942505,488.67288 147.587631,508.925557 148.231187,533.850076 C148.219649,534.269945 148.214521,534.687278 148.214521,535.109684 C148.214521,535.530822 148.219649,535.949423 148.231187,536.369293 C147.558145,562.463357 126.05286,583.436536 99.559375,583.607782" id="Fill-6" fill="#B3DBE8"></path>
                        <path d="M197.021555,584.313618 L196.693367,584.313618 C170.199882,584.142112 148.694597,563.137069 148.021555,537.003362 C148.031811,536.582854 148.038221,536.163617 148.038221,535.741839 C148.038221,535.318791 148.031811,534.900825 148.021555,534.480317 C148.665111,509.517932 168.308955,489.234485 193.155091,487.314888 C194.421691,487.41271 195.702393,487.462256 196.994633,487.463527 C196.997197,487.918335 197.006171,488.373144 197.021555,488.825412 L197.021555,582.654456 C197.002325,583.200734 196.993351,583.749554 196.993351,584.299643 L197.021555,584.299643 L197.021555,584.314888" id="Fill-7" fill="#85C9E2"></path>
                        <path d="M148.479924,537.314888 C148.470924,536.814888 148.466924,536.316399 148.466924,535.814888 C148.466924,535.311867 148.470924,534.814888 148.479924,534.314888 C148.487924,534.814888 148.492924,535.311867 148.492924,535.814888 C148.492924,536.316399 148.487924,536.814888 148.479924,537.314888" id="Fill-8" fill="#75C4DF"></path>
                        <path d="M248.019425,536.980365 C247.598188,536.970109 247.178219,536.9637 246.754445,536.9637 C246.33067,536.9637 245.910702,536.970109 245.489465,536.980365 C219.828257,536.316331 199.119123,515.518508 198.267767,489.640447 L198.267767,488.249567 L295.267767,488.249567 C295.125663,514.769868 274.138665,536.303512 248.019425,536.980365 M295.266498,488.114966 C295.266498,488.071381 295.266498,488.025232 295.266498,487.980365 L295.267767,487.980365 C295.267767,488.025232 295.267767,488.071381 295.266498,488.114966" id="Fill-9" fill="#94CEE4"></path>
                        <path d="M196.573685,489.645841 C196.561685,489.313751 196.554685,488.979796 196.552685,488.645841 C196.558685,488.645841 196.566685,488.645841 196.573685,488.645841 L196.573685,489.645841" id="Fill-10" fill="#6EC2DE"></path>
                        <path d="M294.244732,584.356519 L197.901964,584.356519 C197.794117,584.355237 197.685001,584.355237 197.577154,584.355237 L197.56066,584.356519 L197.56066,582.696393 C198.412016,556.817655 219.12115,536.020569 244.782358,535.356519 C245.203595,535.368056 245.623563,535.373184 246.047338,535.373184 C246.471113,535.373184 246.891081,535.368056 247.312318,535.356519 C273.519104,536.034671 294.56066,557.712456 294.56066,584.356519 C294.455351,584.355237 294.348773,584.355237 294.244732,584.356519" id="Fill-11" fill="#B3DBE8"></path>
                        <path d="M196.574185,584.398149 L196.552185,584.398149 C196.552185,584.063786 196.559185,583.730196 196.574185,583.398149 L196.574185,584.398149" id="Fill-12" fill="#75C4DF"></path>
                        <path d="M246.767767,535.120782 C246.265259,535.120782 245.767265,535.116782 245.267767,535.107782 C245.767265,535.099782 246.265259,535.094782 246.767767,535.094782 C247.270274,535.094782 247.768268,535.099782 248.267767,535.107782 C247.768268,535.116782 247.270274,535.120782 246.767767,535.120782" id="Fill-13" fill="#7DC6E0"></path>
                        <path d="M294.720838,583.607782 L294.392659,583.607782 L294.392659,486.607782 L294.392659,486.904608 C295.693839,486.904608 296.984763,486.853868 298.259022,486.756195 C323.113481,488.674148 342.760657,508.935705 343.392659,533.87164 C343.381121,534.28263 343.375993,534.696157 343.375993,535.109684 C343.375993,535.523211 343.381121,535.936738 343.392659,536.347728 C342.731172,562.453209 321.222604,583.436536 294.720838,583.607782" id="Fill-14" fill="#D0E9F0"></path>
                        <path d="M391.47592,585.020725 L391.14774,585.020725 C364.643411,584.849219 343.136124,563.834013 342.47592,537.688871 C342.486175,537.277257 342.491303,536.863102 342.491303,536.448946 C342.491303,536.034791 342.486175,535.620636 342.47592,535.209021 C343.106639,510.235202 362.753815,489.942863 387.609557,488.021995 C388.876124,488.119817 390.158074,488.169363 391.450281,488.170634 C391.452845,488.611468 391.460536,489.052302 391.47592,489.490595 L391.47592,583.403486 C391.457972,583.93579 391.448999,584.469365 391.448999,585.00675 L391.47592,585.00675 L391.47592,585.021995" id="Fill-15" fill="#B3DBE8"></path>
                        <path d="M342.934789,536.607782 C342.925789,536.109831 342.921789,535.608806 342.921789,535.107782 C342.921789,534.606757 342.925789,534.105732 342.934789,533.607782 C342.942789,534.105732 342.946789,534.606757 342.946789,535.107782 C342.946789,535.608806 342.942789,536.109831 342.934789,536.607782" id="Fill-16" fill="#9CD2E4"></path>
                        <path d="M441.058991,536.273258 C440.639006,536.263002 440.217752,536.256593 439.79523,536.256593 C439.371439,536.256593 438.950185,536.263002 438.5302,536.273258 C412.855297,535.607943 392.139006,514.788327 391.307918,488.891037 L391.307918,487.54246 L488.307918,487.54246 C488.167077,514.062762 467.177987,535.596405 441.058991,536.273258 M488.307918,487.407859 C488.307918,487.364274 488.307918,487.318125 488.306649,487.273258 L488.307918,487.273258 C488.307918,487.318125 488.307918,487.364274 488.307918,487.407859" id="Fill-17" fill="#B3DBE8"></path>
                        <path d="M391.02755,488.938734 C391.01555,488.606684 391.00955,488.272709 391.00755,487.938734 C391.01355,487.938734 391.02055,487.938734 391.02755,487.938734 L391.02755,488.938734" id="Fill-18" fill="#8CCCE2"></path>
                        <path d="M489.408729,584.356519 L393.059642,584.356519 C392.951791,584.355237 392.842671,584.355237 392.73482,584.355237 L392.722132,584.356519 L392.722132,582.738697 C393.55322,556.84073 414.26951,536.021851 439.944414,535.356519 C440.364398,535.368056 440.785652,535.373184 441.209443,535.373184 C441.631966,535.373184 442.05322,535.368056 442.473204,535.356519 C468.67975,536.034671 489.722132,557.712456 489.722132,584.356519 C489.618087,584.355237 489.512774,584.355237 489.408729,584.356519" id="Fill-19" fill="#B3DBE8"></path>
                        <path d="M391.735157,584.398149 L391.714157,584.398149 C391.714157,584.062967 391.721157,583.730162 391.735157,583.398149 L391.735157,584.398149" id="Fill-20" fill="#8CCCE2"></path>
                        <path d="M440.515778,536.534995 C440.013018,536.534995 439.513269,536.530995 439.015025,536.521995 C439.513269,536.513995 440.013018,536.508995 440.515778,536.508995 C441.017032,536.508995 441.516781,536.513995 442.015025,536.521995 C441.516781,536.530995 441.017032,536.534995 440.515778,536.534995" id="Fill-21" fill="#8CCCE2"></path>
                        <path d="M150.451697,634.5611 C150.030565,634.549563 149.610701,634.544435 149.187031,634.544435 C148.763362,634.544435 148.343498,634.549563 147.922365,634.5611 C121.848938,633.885512 100.888718,612.414121 100.687031,585.949531 L100.687031,585.5611 L100.720011,585.5611 L100.720011,585.562382 C100.827831,585.562382 100.93692,585.562382 101.04474,585.5611 L197.362302,585.5611 C197.470123,585.562382 197.577943,585.562382 197.687031,585.562382 C197.687031,612.203881 176.654509,633.882948 150.451697,634.5611" id="Fill-22" fill="#D0E9F0"></path>
                        <path d="M100.268663,585.312863 L100.268663,585.312863 L100.524663,585.311863 C100.439663,585.312863 100.353663,585.312863 100.268663,585.312863" id="Fill-23" fill="#9CD2E4"></path>
                        <path d="M197.398292,584.605756 C197.312292,584.605756 197.227292,584.605756 197.142292,584.604756 L197.398292,584.604756 L197.398292,584.605756 C197.398292,584.604756 197.398292,584.604756 197.398292,584.604756" id="Fill-24" fill="#7CC6E0"></path>
                        <path d="M196.491397,681.937255 L100.467183,681.937255 C100.306032,681.934691 100.142344,681.934691 99.9799244,681.934691 C99.9824622,681.934691 99.9824622,681.934691 99.9824622,681.934691 L99.9824622,680.019507 C100.963324,654.261946 121.622329,633.600006 147.198333,632.937255 C147.619608,632.948792 148.039615,632.95392 148.463429,632.95392 C148.887242,632.95392 149.307249,632.948792 149.728525,632.937255 C175.940248,633.615389 196.979924,655.293889 196.979924,681.937255 C196.817505,681.934691 196.653816,681.934691 196.491397,681.937255" id="Fill-25" fill="#B3DBE8"></path>
                        <path d="M148.479924,633.408624 C147.977417,633.408624 147.479423,633.404624 146.979924,633.395624 C147.479423,633.386624 147.977417,633.382624 148.479924,633.382624 C148.982432,633.382624 149.480426,633.386624 149.979924,633.395624 C149.480426,633.404624 148.982432,633.408624 148.479924,633.408624" id="Fill-26" fill="#9CD2E4"></path>
                        <path d="M198.038206,681.895624 L197.51903,681.895624 L197.51903,584.895624 L197.8472,584.896893 C224.3393,585.068141 245.844741,606.041594 246.51903,632.138536 C246.507492,632.558411 246.502365,632.975749 246.502365,633.398161 C246.502365,633.819305 246.507492,634.237911 246.51903,634.657786 C245.847305,660.688766 224.440571,681.624164 198.038206,681.895624" id="Fill-27" fill="#94CEE4"></path>
                        <path d="M197.398292,584.605756 L197.142292,584.605756 L197.142292,584.604756 C197.227292,584.604756 197.313292,584.604756 197.398292,584.605756" id="Fill-28" fill="#7DC6E0"></path>
                        <path d="M294.602291,681.895624 C294.598445,681.895624 294.595881,681.895624 294.593317,681.895624 C294.593317,681.894356 294.593317,681.895624 294.593317,681.893087 L294.083074,681.893087 C267.677354,681.621634 246.274068,660.686784 245.602291,634.656485 C245.612547,634.236621 245.617675,633.818025 245.617675,633.396893 C245.617675,632.974492 245.612547,632.557165 245.602291,632.137301 C246.27535,606.041041 267.779916,585.068136 294.274094,584.896893 L294.593317,584.896893 C294.595881,584.895624 294.598445,584.895624 294.602291,584.895624 L294.602291,584.910846 L294.575368,584.910846 C294.575368,585.448678 294.584342,585.986509 294.602291,586.520536 L294.602291,680.271981 C294.584342,680.806007 294.575368,681.343839 294.575368,681.881671 L294.602291,681.881671 L294.602291,681.895624" id="Fill-29" fill="#D0E9F0"></path>
                        <path d="M294.975528,584.605756 L294.726528,584.605756 C294.808528,584.604756 294.892528,584.604756 294.975528,584.604756 C294.975528,584.605756 294.975528,584.605756 294.975528,584.605756" id="Fill-30" fill="#9CD2E4"></path>
                        <path d="M245.354053,634.188517 C245.345053,633.688517 245.341053,633.190028 245.341053,632.688517 C245.341053,632.185496 245.345053,631.688517 245.354053,631.188517 C245.362053,631.688517 245.366053,632.185496 245.366053,632.688517 C245.366053,633.190028 245.362053,633.688517 245.354053,634.188517" id="Fill-31" fill="#86C9E1"></path>
                        <path d="M2.46061829,681.895624 L0.979225918,681.895624 L0.943344442,584.895624 C0.948470367,584.895624 0.957440736,584.895624 0.962566661,584.895624 C27.6058441,584.895624 49.2821001,605.947498 49.9433444,632.170675 C49.9330926,632.575397 49.9279667,632.982656 49.9279667,633.389915 C49.9279667,633.798443 49.9330926,634.205702 49.9433444,634.611692 C49.3141371,660.34895 28.4272736,681.120436 2.46061829,681.895624" id="Fill-32" fill="#85C9E2"></path>
                        <path d="M99.4036571,681.893087 C72.771328,681.882937 51.1033276,660.836964 50.4408191,634.624966 C50.4510707,634.218991 50.4561965,633.811748 50.4561965,633.403236 C50.4561965,632.995993 50.4510707,632.58875 50.4408191,632.184044 C51.0725729,606.399587 72.0293698,585.601005 98.058137,584.895624 L99.4049386,584.895624 L99.4049386,584.909579 L99.4036571,584.909579 C99.4036571,585.037715 99.4036571,585.16712 99.4049386,585.293987 L99.4408191,679.997693 C99.4151902,680.626954 99.4036571,681.258752 99.4036571,681.895624" id="Fill-33" fill="#B3DBE8"></path>
                        <path d="M99.4824497,583.905649 L98.4824497,583.905649 C98.8154659,583.895649 99.1475306,583.890649 99.4824497,583.890649 L99.4824497,583.905649" id="Fill-34" fill="#64BFDD"></path>
                        <path d="M100.397163,585.463863 C100.396163,585.363863 100.396163,585.261863 100.396163,585.160863 L100.397163,585.463863" id="Fill-35" fill="#9CD2E4"></path>
                        <path d="M391.434289,584.146887 C391.434289,611.207353 369.719897,633.146887 342.931752,633.146887 C316.148681,633.146887 294.434289,611.207353 294.434289,584.146887 L391.434289,584.146887" id="Fill-38" fill="#64BFDD"></path>
                        <path d="M390.945806,682.644361 L294.929116,682.644361 C294.766711,682.641798 294.603038,682.641798 294.440633,682.641798 L294.434289,682.644361 L294.434289,681.017609 C295.267882,655.124165 315.98336,634.309676 341.654718,633.644361 C342.074686,633.655899 342.495923,633.661026 342.918429,633.661026 C343.342204,633.661026 343.763441,633.655899 344.18341,633.644361 C370.392733,634.322496 391.434289,656.000996 391.434289,682.644361 C391.271885,682.641798 391.108211,682.641798 390.945806,682.644361" id="Fill-39" fill="#B3DBE8"></path>
                        <path d="M294.861528,681.271778 L294.840528,681.271778 C294.840528,680.937657 294.847528,680.603536 294.861528,680.271778 L294.861528,681.271778" id="Fill-40" fill="#9CD2E4"></path>
                        <path d="M342.933537,634.115731 C342.432282,634.115731 341.932533,634.111731 341.434289,634.102731 C341.932533,634.093731 342.432282,634.089731 342.933537,634.089731 C343.436296,634.089731 343.936045,634.093731 344.434289,634.102731 C343.936045,634.111731 343.436296,634.115731 342.933537,634.115731" id="Fill-41" fill="#64BFDD"></path>
                        <path d="M392.492557,681.188517 L391.973394,681.188517 L391.973394,584.188517 L392.301557,584.189786 C418.8045,584.361034 440.311943,605.344635 440.973394,631.452994 C440.961857,631.863989 440.95673,632.277522 440.95673,632.691054 C440.95673,633.104587 440.961857,633.518119 440.973394,633.929115 C440.314506,659.971511 418.90705,680.917057 392.492557,681.188517" id="Fill-42" fill="#94CEE4"></path>
                        <path d="M392.559764,584.605756 L392.303764,584.605756 L392.303764,584.604756 C392.388764,584.604756 392.474764,584.604756 392.559764,584.605756" id="Fill-43" fill="#7DC6E0"></path>
                        <path d="M489.056656,682.602731 C489.05281,682.602731 489.048964,682.602731 489.045118,682.602731 C489.045118,682.601462 489.045118,682.602731 489.045118,682.600194 L488.537452,682.600194 C462.12345,682.328741 440.715595,661.383743 440.056656,635.342027 C440.066911,634.931043 440.072039,634.517521 440.072039,634.103999 C440.072039,633.690478 440.066911,633.276956 440.056656,632.865971 C440.716877,606.758295 462.226008,585.775243 488.728468,585.603999 L489.045118,585.603999 C489.048964,585.602731 489.05281,585.602731 489.056656,585.602731 L489.056656,682.602731" id="Fill-44" fill="#D0E9F0"></path>
                        <path d="M489.428893,585.312863 L489.181893,585.312863 C489.263893,585.311863 489.346893,585.311863 489.428893,585.311863 C489.428893,585.312863 489.428893,585.312863 489.428893,585.312863" id="Fill-45" fill="#9CD2E4"></path>
                        <path d="M440.515525,634.188517 C440.506525,633.690566 440.502525,633.189542 440.502525,632.688517 C440.502525,632.187493 440.506525,631.686468 440.515525,631.188517 C440.523525,631.686468 440.527525,632.187493 440.527525,632.688517 C440.527525,633.189542 440.523525,633.690566 440.515525,634.188517" id="Fill-46" fill="#86C9E1"></path>
                        <path d="M99.723469,780.183467 L99.231187,780.183467 L99.231187,683.183467 L99.723469,683.186004 C126.142599,683.442238 147.559427,704.382436 148.231187,730.425761 C148.219649,730.84563 148.214521,731.262963 148.214521,731.685369 C148.214521,732.106507 148.219649,732.525108 148.231187,732.944978 C147.559427,758.985766 126.142599,779.927232 99.723469,780.183467" id="Fill-51" fill="#94CEE4"></path>
                        <path d="M197.021555,779.473823 L196.529273,779.473823 C170.110143,779.217595 148.693315,758.276676 148.021555,732.23657 C148.031811,731.816711 148.038221,731.398121 148.038221,730.976994 C148.038221,730.554599 148.031811,730.137277 148.021555,729.717419 C148.693315,703.674775 170.110143,682.735125 196.527991,682.478897 L197.021555,682.478897 C197.021555,682.47636 197.021555,682.47636 197.021555,682.47636 L197.021555,682.490313 L196.993351,682.490313 C196.993351,683.039554 197.002325,683.587526 197.021555,684.132962 L197.021555,777.81849 C197.002325,778.363925 196.993351,778.911898 196.993351,779.461138 L197.021555,779.461138 L197.021555,779.47636" id="Fill-53" fill="#B3DBE8"></path>
                        <path d="M197.462792,682.186992 L197.077792,682.186992 C197.205792,682.184992 197.334792,682.184992 197.462792,682.184992 C197.462792,682.186992 197.462792,682.186992 197.462792,682.186992" id="Fill-54" fill="#8CCCE2"></path>
                        <path d="M247.332619,731.434729 C246.905038,731.423192 246.477457,731.416783 246.047338,731.416783 C245.617219,731.416783 245.189638,731.423192 244.762057,731.434729 C219.109731,730.759177 198.412016,709.965743 197.56066,684.094769 L197.56066,682.434729 L197.577154,682.434729 L197.577154,682.437293 C197.749709,682.437293 197.919727,682.437293 198.091013,682.434729 L294.055683,682.434729 C294.224432,682.437293 294.391912,682.437293 294.56066,682.437293 C294.558123,709.070988 273.529254,730.745076 247.332619,731.434729" id="Fill-56" fill="#94CEE4"></path>
                        <path d="M197.067792,682.186992 L197.067792,682.186992 L197.472792,682.184992 C197.337792,682.186992 197.203792,682.186992 197.067792,682.186992" id="Fill-57" fill="#73C3DF"></path>
                        <path d="M295.050028,682.186992 C294.917028,682.186992 294.785028,682.186992 294.652028,682.184992 L295.050028,682.184992 C295.050028,682.186992 295.050028,682.185992 295.050028,682.186992" id="Fill-58" fill="#87CAE2"></path>
                        <path d="M197.281292,682.685992 C197.266292,682.353946 197.259292,682.020355 197.259292,681.685992 L197.281292,681.685992 L197.281292,682.685992" id="Fill-59" fill="#7DC6E0"></path>
                        <path d="M294.081059,779.51799 L198.064368,779.51799 C197.903233,779.515427 197.739559,779.515427 197.577154,779.515427 L197.56066,779.51799 L197.56066,777.857864 C198.412016,751.985536 219.109731,731.192296 244.762057,730.51799 C245.189638,730.528246 245.617219,730.534656 246.047338,730.534656 C246.477457,730.534656 246.905038,730.528246 247.332619,730.51799 C273.530523,731.206398 294.56066,752.88162 294.56066,779.51799 C294.402062,779.515427 294.239657,779.515427 294.081059,779.51799" id="Fill-60" fill="#85C9E2"></path>
                        <path d="M246.06066,730.98986 C245.558686,730.98986 245.059673,730.98486 244.56066,730.97686 C245.059673,730.96786 245.558686,730.96286 246.06066,730.96286 C246.562635,730.96286 247.061647,730.96786 247.56066,730.97686 C247.061647,730.98486 246.562635,730.98986 246.06066,730.98986" id="Fill-62" fill="#6EC1DE"></path>
                        <path d="M293.685552,682.47636 C320.748008,682.47636 342.685552,704.191036 342.685552,730.976994 C342.685552,757.760415 320.748008,779.47636 293.685552,779.47636 L293.685552,682.47636" id="Fill-63" fill="#64BFDD"></path>
                        <path d="M392.183027,779.473823 L391.690757,779.473823 C365.260781,779.217595 343.841949,758.266529 343.183027,732.215006 C343.193282,731.804027 343.19841,731.39051 343.19841,730.976994 C343.19841,730.563478 343.193282,730.149962 343.183027,729.738982 C343.841949,703.684923 365.260781,682.735125 391.689476,682.478897 L392.183027,682.478897 C392.183027,682.47636 392.183027,682.47636 392.183027,682.47636 L392.183027,682.490313 L392.156106,682.490313 C392.156106,683.026869 392.165079,683.55962 392.183027,684.091103 L392.183027,777.860349 C392.165079,778.391831 392.156106,778.924582 392.156106,779.461138 L392.183027,779.461138 L392.183027,779.47636" id="Fill-64" fill="#B3DBE8"></path>
                        <path d="M392.624264,682.186992 L392.239264,682.186992 C392.367264,682.184992 392.496264,682.184992 392.624264,682.184992 C392.624264,682.186992 392.624264,682.186992 392.624264,682.186992" id="Fill-65" fill="#8CCCE2"></path>
                        <path d="M342.934789,731.769253 C342.925789,731.271302 342.921789,730.770278 342.921789,730.269253 C342.921789,729.768229 342.925789,729.267204 342.934789,728.769253 C342.942789,729.267204 342.946789,729.768229 342.946789,730.269253 C342.946789,730.770278 342.942789,731.271302 342.934789,731.769253" id="Fill-66" fill="#64BFDD"></path>
                        <path d="M442.493506,731.434729 C442.067177,731.423192 441.63831,731.416783 441.209443,731.416783 C440.779308,731.416783 440.350441,731.423192 439.924112,731.434729 C414.258091,730.759177 393.55322,709.942669 392.722132,684.052466 L392.722132,682.434729 L392.73482,682.434729 L392.73482,682.437293 C392.907382,682.437293 393.077406,682.437293 393.248699,682.434729 L489.219673,682.434729 C489.388428,682.437293 489.553377,682.437293 489.722132,682.437293 C489.719594,709.070988 468.689901,730.745076 442.493506,731.434729" id="Fill-67" fill="#85C9E2"></path>
                        <path d="M392.229264,682.186992 L392.229264,682.186992 L392.634264,682.184992 C392.499264,682.186992 392.365264,682.186992 392.229264,682.186992" id="Fill-68" fill="#6EC1DE"></path>
                        <path d="M391.02805,684.100206 C391.01405,683.768193 391.00705,683.435388 391.00705,683.100206 L391.02805,683.100206 L391.02805,684.100206" id="Fill-70" fill="#75C4DF"></path>
                        <path d="M197.51903,875.642882 L197.51903,778.642882 L198.011286,778.645419 C224.429034,778.90165 245.846023,799.841574 246.51903,825.884559 C246.507492,826.304423 246.502365,826.723018 246.502365,827.144151 C246.502365,827.566552 246.507492,827.983879 246.51903,828.403743 C245.842177,854.605286 224.161113,875.642882 197.51903,875.642882" id="Fill-75" fill="#B3DBE8"></path>
                        <path d="M294.602291,877.057096 C267.967175,877.057096 246.294345,856.019499 245.618951,829.817956 C245.607417,829.398092 245.602291,828.980765 245.602291,828.558364 C245.602291,828.137232 245.607417,827.718636 245.618951,827.298772 C246.2905,801.255788 267.699325,780.315864 294.108882,780.059633 L294.59332,780.059633 C294.595883,780.057096 294.598446,780.057096 294.602291,780.057096 L294.602291,780.072317 L294.575378,780.072317 C294.575378,780.610149 294.584349,781.147981 294.602291,781.682007 L294.602291,875.433452 C294.584349,875.967479 294.575378,876.505311 294.575378,877.043143 L294.602291,877.043143 L294.602291,877.057096" id="Fill-77" fill="#B3DBE8"></path>
                        <path d="M293.625815,778.353514 L293.247815,778.353514 C293.372815,778.351514 293.500815,778.351514 293.625815,778.351514 C293.625815,778.353514 293.625815,778.353514 293.625815,778.353514" id="Fill-78" fill="#75C4DF"></path>
                        <path d="M343.497872,827.601252 C343.070291,827.590996 342.641441,827.584587 342.211323,827.584587 C341.781204,827.584587 341.353623,827.590996 340.926042,827.601252 C315.264834,826.926963 294.560775,806.115039 293.727182,780.228004 L293.727182,778.601252 L293.733526,778.601252 L293.733526,778.603815 C293.895931,778.603815 294.059604,778.603815 294.22074,778.601252 L390.239968,778.601252 C390.401104,778.603815 390.564778,778.603815 390.727182,778.603815 C390.727182,805.238207 369.697045,826.912862 343.497872,827.601252" id="Fill-84" fill="#94CEE4"></path>
                        <path d="M294.659028,779.767728 L294.659028,779.767728 L295.043028,779.765728 C294.916028,779.767728 294.787028,779.767728 294.659028,779.767728" id="Fill-85" fill="#64BFDD"></path>
                        <path d="M294.861528,780.266728 C294.847528,779.934971 294.840528,779.600849 294.840528,779.266728 L294.861528,779.266728 L294.861528,780.266728" id="Fill-87" fill="#7DC6E0"></path>
                        <path d="M392.141396,195.447789 L295.141396,195.447789 L295.141396,193.822233 C295.974989,167.933844 316.679048,147.123395 342.340255,146.447789 C342.767836,146.459327 343.195418,146.464455 343.625536,146.464455 C344.055655,146.464455 344.484505,146.459327 344.912086,146.447789 C371.111259,147.136215 392.141396,168.810722 392.141396,195.447789" id="Fill-146" fill="#B3DBE8"></path>
                        <path d="M391.973394,194.699052 L391.973394,97.6990518 C418.626318,97.6990518 440.309379,118.747789 440.973394,144.960406 C440.961857,145.372654 440.95673,145.784901 440.95673,146.199686 C440.95673,146.613202 440.961857,147.026719 440.973394,147.437698 C440.309379,173.651583 418.626318,194.699052 391.973394,194.699052" id="Fill-149" fill="#94CEE4"></path>
                        <path d="M294.56066,293.028525 L197.56066,293.028525 L197.56066,291.369681 C198.412016,265.480687 219.133838,244.678474 244.809002,244.028525 C245.220089,244.038781 245.633714,244.043908 246.047338,244.043908 C246.460962,244.043908 246.874587,244.038781 247.285674,244.028525 C273.506416,244.692575 294.56066,266.375489 294.56066,293.028525" id="Fill-161" fill="#85C9E2"></path>
                        <path d="M293.685552,195.986894 C320.748008,195.986894 342.685552,217.700302 342.685552,244.487529 C342.685552,271.273487 320.748008,292.986894 293.685552,292.986894 L293.685552,195.986894" id="Fill-164" fill="#64BFDD"></path>
                        <path d="M392.183027,292.986894 C365.528708,292.986894 343.845795,271.939425 343.183027,245.72554 C343.193282,245.314561 343.19841,244.901045 343.19841,244.487529 C343.19841,244.074012 343.193282,243.660496 343.183027,243.248248 C343.845795,217.034363 365.528708,195.986894 392.183027,195.986894 L392.183027,196.003384 L392.156106,196.003384 C392.156106,196.539941 392.165079,197.071423 392.183027,197.604174 L392.183027,291.369615 C392.165079,291.902366 392.156106,292.435117 392.156106,292.970405 L392.183027,292.970405 L392.183027,292.986894" id="Fill-165" fill="#B3DBE8"></path>
                        <path d="M342.934789,245.279788 C342.925789,244.782092 342.921789,244.281324 342.921789,243.780556 C342.921789,243.279788 342.925789,242.77902 342.934789,242.279788 C342.942789,242.77902 342.946789,243.279788 342.946789,243.780556 C342.946789,244.281324 342.942789,244.782092 342.934789,245.279788" id="Fill-166" fill="#64BFDD"></path>
                        <path d="M441.033614,243.53105 C440.621242,243.520794 440.20887,243.515666 439.79523,243.515666 C439.38032,243.515666 438.967949,243.520794 438.555577,243.53105 C412.867985,242.881084 392.140275,222.055251 391.307918,196.148914 L391.307918,194.53105 L488.307918,194.53105 C488.307918,221.183502 467.252848,242.868264 441.033614,243.53105" id="Fill-167" fill="#85C9E2"></path>
                        <path d="M391.02805,197.61074 C391.01405,197.277935 391.00705,196.945922 391.00705,196.61074 L391.02805,196.61074 L391.02805,197.61074" id="Fill-168" fill="#75C4DF"></path>
                        <path d="M489.015025,292.321418 L392.015025,292.321418 L392.015025,290.703596 C392.847382,264.796656 413.575092,243.971367 439.262684,243.321418 C439.675055,243.331674 440.087427,243.336802 440.502337,243.336802 C440.915977,243.336802 441.328349,243.331674 441.740721,243.321418 C467.959955,243.985469 489.015025,265.668382 489.015025,292.321418" id="Fill-169" fill="#D0E9F0"></path>
                        <path d="M391.02805,292.363049 L391.00705,292.363049 C391.00705,292.028659 391.01405,291.695854 391.02805,291.363049 L391.02805,292.363049" id="Fill-170" fill="#9CD2E4"></path>
                        <path d="M440.515793,245.206001 C440.013489,245.206001 439.514257,245.202001 439.015025,245.194001 C439.514257,245.186001 440.013489,245.182001 440.515793,245.182001 C441.016561,245.182001 441.515793,245.186001 442.015025,245.194001 C441.515793,245.202001 441.016561,245.206001 440.515793,245.206001" id="Fill-171" fill="#7CC6E0"></path>
                        <path d="M100.687031,389.902154 C100.687031,362.83899 122.402976,340.902154 149.187665,340.902154 C175.974892,340.902154 197.687031,362.83899 197.687031,389.902154 L100.687031,389.902154" id="Fill-173" fill="#64BFDD"></path>
                        <path d="M198.226136,389.860523 L198.226136,292.860523 C224.86822,292.860523 246.549284,313.896851 247.226136,340.100931 C247.214599,340.519527 247.209471,340.938123 247.209471,341.360523 C247.209471,341.781656 247.214599,342.200251 247.226136,342.618847 C246.549284,368.821659 224.86822,389.860523 198.226136,389.860523" id="Fill-174" fill="#B3DBE8"></path>
                        <path d="M294.602291,390.56763 C267.967175,390.56763 246.294345,369.528765 245.618951,343.325954 C245.607417,342.907358 245.602291,342.488763 245.602291,342.06763 C245.602291,341.645229 245.607417,341.226634 245.618951,340.808038 C246.294345,314.603958 267.967175,293.56763 294.602291,293.56763 L294.602291,293.58412 L294.575378,293.58412 C294.575378,294.121952 294.584349,294.659784 294.602291,295.192542 L294.602291,388.942719 C294.584349,389.476745 294.575378,390.013308 294.575378,390.55114 L294.602291,390.55114 L294.602291,390.56763" id="Fill-175" fill="#B3DBE8"></path>
                        <path d="M343.444583,341.111786 C343.034765,341.10153 342.623678,341.096402 342.211323,341.096402 C341.800236,341.096402 341.389149,341.10153 340.979331,341.111786 C315.292747,340.464384 294.562044,319.641115 293.727182,293.737342 L293.727182,292.111786 L390.727182,292.111786 C390.727182,318.762956 369.669132,340.451564 343.444583,341.111786" id="Fill-182" fill="#94CEE4"></path>
                        <path d="M294.861528,293.777262 C294.847528,293.446032 294.840528,293.111647 294.840528,292.777262 L294.861528,292.777262 L294.861528,293.777262" id="Fill-183" fill="#7DC6E0"></path>
                        <path d="M390.364309,390.609261 L294.096399,390.609261 C293.975865,390.609261 293.85533,390.607979 293.733526,390.607979 L293.727182,390.609261 L293.727182,388.983705 C294.562044,363.077368 315.292747,342.256663 340.979331,341.609261 C341.389149,341.619517 341.800236,341.624645 342.211323,341.624645 C342.623678,341.624645 343.034765,341.619517 343.444583,341.609261 C369.669132,342.270765 390.727182,363.954245 390.727182,390.609261 C390.605379,390.607979 390.484844,390.609261 390.364309,390.609261" id="Fill-184" fill="#B3DBE8"></path>
                        <path d="M294.861528,391.357998 L294.840528,391.357998 C294.840528,391.023613 294.847528,390.690017 294.861528,390.357998 L294.861528,391.357998" id="Fill-185" fill="#8CCCE2"></path>
                        <path d="M342.933517,342.786737 C342.43326,342.786737 341.933003,342.782737 341.434289,342.774737 C341.933003,342.766737 342.43326,342.762737 342.933517,342.762737 C343.435319,342.762737 343.935576,342.766737 344.434289,342.774737 C343.935576,342.782737 343.435319,342.786737 342.933517,342.786737" id="Fill-186" fill="#7DC6E0"></path>
                        <path d="M391.973394,391.274737 L391.973394,294.274737 C418.626318,294.274737 440.309379,315.321213 440.973394,341.535441 C440.961857,341.947694 440.95673,342.361215 440.95673,342.774737 C440.95673,343.188259 440.961857,343.60178 440.973394,344.012765 C440.309379,370.225724 418.626318,391.274737 391.973394,391.274737" id="Fill-187" fill="#B3DBE8"></path>
                        <path d="M489.056656,389.860523 C461.995481,389.860523 440.056656,368.145563 440.056656,341.360523 C440.056656,314.572947 461.995481,292.860523 489.056656,292.860523 L489.056656,389.860523" id="Fill-188" fill="#64BFDD"></path>
                        <path d="M99.3991886,488.189997 L99.3991886,488.189997 C99.3979201,488.146408 99.3979201,488.100255 99.3979201,488.055385 C99.3979201,488.100255 99.3991886,488.145126 99.3991886,488.189997 M2.39918856,488.189997 L2.39918856,488.189997 C2.39918856,488.145126 2.39918856,488.100255 2.39918856,488.055385 C2.39918856,488.100255 2.39918856,488.146408 2.39918856,488.189997 M99.3991886,487.920773 L2.39918856,487.920773 C2.53998888,461.397108 23.5243095,439.863056 49.6395966,439.189997 C50.0594606,439.200253 50.4780561,439.205381 50.8991886,439.205381 C51.3215895,439.205381 51.7389166,439.200253 52.1587806,439.189997 C78.2740676,439.863056 99.2571198,461.397108 99.3979201,487.920773" id="Fill-191" fill="#94CEE4"></path>
                        <path d="M99.3991886,487.836627 L2.39918856,487.836627 C2.39918856,487.802627 2.39918856,487.766627 2.39918856,487.731627 C2.39918856,487.697627 2.39918856,487.661627 2.39918856,487.626627 L99.3991886,487.626627 C99.3979201,487.661627 99.3979201,487.697627 99.3979201,487.731627 C99.3979201,487.766627 99.3979201,487.802627 99.3979201,487.836627" id="Fill-192" fill="#73C3DF"></path>
                        <path d="M103.804758,488.148366 C102.529184,488.049275 101.238226,487.999729 99.9382938,487.999729 L99.9382938,391.148366 L100.304941,391.149636 C126.779197,391.342737 148.265252,412.338611 148.938294,438.461814 C148.926756,438.881045 148.921628,439.300277 148.921628,439.72332 C148.921628,440.145092 148.926756,440.564323 148.938294,440.984825 C148.294738,465.946883 128.649612,486.227524 103.804758,488.148366" id="Fill-194" fill="#B3DBE8"></path>
                        <path d="M100.16443,487.495074 L100.16443,487.261074 C101.509258,487.261074 102.844802,487.300074 104.16443,487.378074 C102.844802,487.455074 101.509258,487.495074 100.16443,487.495074" id="Fill-195" fill="#8CCCE2"></path>
                        <path d="M193.862197,487.441259 C169.016062,485.520417 149.372218,465.239777 148.728662,440.277718 C148.738918,439.857217 148.745328,439.437985 148.745328,439.016213 C148.745328,438.59317 148.738918,438.173939 148.728662,437.754707 C149.401703,411.631505 170.886477,390.63563 197.362014,390.44253 L197.728662,390.44253 C197.728662,390.441259 197.728662,390.441259 197.728662,390.441259 L197.728662,390.459045 L197.700458,390.459045 C197.700458,391.009127 197.709432,391.557939 197.728662,392.10294 L197.728662,485.929485 C197.713278,486.383017 197.704304,486.835279 197.70174,487.292623 C196.4095,487.292623 195.128798,487.343439 193.862197,487.441259" id="Fill-197" fill="#85C9E2"></path>
                        <path d="M197.502525,487.495074 C196.156282,487.494074 194.822058,487.455074 193.502525,487.378074 C194.822058,487.301074 196.156282,487.261074 197.502525,487.261074 C197.502525,487.264074 197.502525,487.268074 197.502525,487.272074 L197.50119,487.272074 C197.50119,487.307074 197.50119,487.343074 197.50119,487.377074 C197.50119,487.412074 197.50119,487.447074 197.50119,487.482074 C197.502525,487.487074 197.502525,487.490074 197.502525,487.495074" id="Fill-198" fill="#6CC1DD"></path>
                        <path d="M197.477399,487.447843 C197.477399,487.37783 197.477399,487.303699 197.477399,487.231627 C197.477399,487.303699 197.477399,487.37783 197.477399,487.447843" id="Fill-199" fill="#67BFDD"></path>
                        <path d="M198.120399,390.151391 L197.834399,390.151391 C197.929399,390.151391 198.024399,390.150391 198.120399,390.150391 C198.120399,390.151391 198.120399,390.151391 198.120399,390.151391" id="Fill-200" fill="#64BFDD"></path>
                        <path d="M148.479924,439.734152 C148.470924,439.234152 148.466924,438.735663 148.466924,438.234152 C148.466924,437.731131 148.470924,437.232642 148.479924,436.734152 C148.487924,437.232642 148.492924,437.731131 148.492924,438.234152 C148.492924,438.735663 148.487924,439.234152 148.479924,439.734152" id="Fill-201" fill="#75C4DF"></path>
                        <path d="M247.307243,440.106735 C246.888543,440.095198 246.469844,440.09007 246.047338,440.09007 C245.626101,440.09007 245.207401,440.095198 244.787433,440.106735 C219.123687,439.443967 198.412016,418.644318 197.56066,392.76558 L197.56066,391.106735 L294.56066,391.106735 C294.56066,417.749516 273.516567,439.429866 247.307243,440.106735" id="Fill-202" fill="#94CEE4"></path>
                        <path d="M196.574185,392.065105 C196.559185,391.733575 196.552185,391.399726 196.552185,391.065105 L196.574185,391.065105 L196.574185,392.065105" id="Fill-203" fill="#6EC2DE"></path>
                        <path d="M294.56066,486.775783 L294.56066,486.775783 C294.559391,486.732194 294.559391,486.686042 294.559391,486.641171 C294.56066,486.686042 294.56066,486.730912 294.56066,486.775783 M294.56066,486.506559 L197.56066,486.506559 L197.56066,485.116852 C198.412016,459.235478 219.123687,438.437304 244.787433,437.775783 C245.207401,437.786039 245.626101,437.791167 246.047338,437.791167 C246.469844,437.791167 246.888543,437.786039 247.307243,437.775783 C273.42902,438.448842 294.418556,459.982894 294.559391,486.506559" id="Fill-204" fill="#D0E9F0"></path>
                        <path d="M294.56066,486.422414 L197.56066,486.422414 L197.56066,486.212414 L294.56066,486.212414 C294.559391,486.247414 294.559391,486.283414 294.559391,486.317414 C294.559391,486.352414 294.559391,486.388414 294.559391,486.422414" id="Fill-205" fill="#86C9E1"></path>
                        <path d="M196.573685,486.817414 L196.573685,486.807266 C196.566685,486.807266 196.558685,486.807266 196.552685,486.807266 C196.554685,486.475163 196.561685,486.146749 196.573685,485.817414 L196.573685,486.817414" id="Fill-206" fill="#7CC6E0"></path>
                        <path d="M197.477399,487.447843 L197.477399,487.447843 C197.477399,487.375771 197.477399,487.303699 197.477399,487.231627 C197.477399,487.303699 197.477399,487.37783 197.479458,487.447843" id="Fill-207" fill="#69C0DD"></path>
                        <path d="M197.988399,487.836627 L197.966399,487.836627 C197.966399,487.802627 197.966399,487.766627 197.966399,487.731627 C197.966399,487.697627 197.966399,487.661627 197.967399,487.626627 L197.988399,487.626627 L197.988399,487.836627" id="Fill-208" fill="#66BFDD"></path>
                        <path d="M246.06066,439.660866 C245.55915,439.660866 245.06066,439.656866 244.56066,439.648866 C245.06066,439.639866 245.55915,439.635866 246.06066,439.635866 C246.563681,439.635866 247.062171,439.639866 247.56066,439.648866 C247.062171,439.656866 246.563681,439.660866 246.06066,439.660866" id="Fill-209" fill="#86C9E1"></path>
                        <path d="M298.259022,488.855473 C296.984763,488.756382 295.693839,488.706836 294.392659,488.706836 L294.392659,391.855473 L294.759297,391.856743 C321.243115,392.049844 342.731172,413.055881 343.392659,439.189247 C343.381121,439.602127 343.375993,440.016276 343.375993,440.430426 C343.375993,440.844576 343.381121,441.258726 343.392659,441.670335 C342.760657,466.643827 323.113481,486.93463 298.259022,488.855473" id="Fill-210" fill="#94CEE4"></path>
                        <path d="M293.911688,486.08086 L293.911688,485.84686 C295.257842,485.84686 296.593386,485.88586 297.911688,485.96386 C296.593386,486.04086 295.257842,486.08086 293.911688,486.08086" id="Fill-211" fill="#87CAE2"></path>
                        <path d="M294.994028,390.858498 L294.708028,390.858498 L294.708028,390.857498 C294.804028,390.857498 294.899028,390.858498 294.994028,390.858498" id="Fill-212" fill="#7DC6E0"></path>
                        <path d="M391.47592,487.441259 C364.411609,487.441259 342.47592,465.727852 342.47592,438.941893 C342.47592,412.154667 364.411609,390.441259 391.47592,390.441259 L391.47592,487.441259" id="Fill-213" fill="#64BFDD"></path>
                        <path d="M441.761022,439.399629 C441.342306,439.388091 440.92359,439.382963 440.502337,439.382963 C440.079814,439.382963 439.661098,439.388091 439.242382,439.399629 C413.564941,438.73686 392.846113,417.914136 392.015025,392.01745 L392.015025,390.399629 L489.015025,390.399629 C489.015025,417.042409 467.970106,438.722759 441.761022,439.399629" id="Fill-214" fill="#B3DBE8"></path>
                        <path d="M391.02805,391.357998 C391.01405,391.025193 391.00705,390.69318 391.00705,390.357998 L391.02805,390.357998 L391.02805,391.357998" id="Fill-215" fill="#64BFDD"></path>
                        <path d="M391.307918,488.189997 C391.307918,461.126833 413.021894,439.189997 439.808552,439.189997 C466.592674,439.189997 488.307918,461.126833 488.307918,488.189997 L391.307918,488.189997" id="Fill-216" fill="#64BFDD"></path>
                        <path d="M538.652051,536.273258 C538.230919,536.263002 537.811055,536.256593 537.387386,536.256593 C536.963716,536.256593 536.543852,536.263002 536.12272,536.273258 C510.00997,535.596405 489.029454,514.062762 488.888654,487.54246 L585.888654,487.54246 C585.747854,514.062762 564.76607,535.596405 538.652051,536.273258 M585.888654,487.407859 C585.888654,487.364274 585.888654,487.318125 585.888654,487.273258 C585.888654,487.318125 585.888654,487.364274 585.888654,487.407859 M488.888654,487.407859 C488.888654,487.364274 488.888654,487.318125 488.888654,487.273258 C488.888654,487.318125 488.888654,487.364274 488.888654,487.407859" id="Fill-217" fill="#94CEE4"></path>
                        <path d="M489.595761,585.063626 C489.595761,558.000596 511.309452,536.063626 538.094492,536.063626 C564.882069,536.063626 586.595761,558.000596 586.595761,585.063626 L489.595761,585.063626" id="Fill-218" fill="#64BFDD"></path>
                        <path d="M587.463045,585.021995 L587.134866,585.021995 L587.134866,488.021995 L587.134866,488.318821 C588.434764,488.318821 589.725688,488.268082 591.001229,488.170408 C615.862098,490.088362 635.51312,510.362604 636.134866,535.307418 C636.12461,535.712066 636.119483,536.116713 636.119483,536.523898 C636.119483,536.931082 636.12461,537.33573 636.134866,537.740378 C635.483635,563.854738 613.972503,584.850749 587.463045,585.021995" id="Fill-219" fill="#B3DBE8"></path>
                        <path d="M491.779792,681.895624 L490.2984,681.895624 L490.261237,584.895624 C490.266363,584.895624 490.275333,584.895624 490.280459,584.895624 C516.908359,584.895624 538.576926,605.925929 539.259956,632.132613 C539.249704,632.550022 539.244578,632.969968 539.244578,633.389915 C539.244578,633.81113 539.249704,634.232345 539.261237,634.652291 C538.610245,660.370518 517.732351,681.121705 491.779792,681.895624" id="Fill-227" fill="#85C9E2"></path>
                        <path d="M586.595761,292.321418 L586.579271,292.321418 L586.579271,292.302189 C586.117547,292.302189 585.657092,292.308599 585.199174,292.321418 L489.595761,292.321418 C489.595761,265.668382 510.642237,243.985469 536.856464,243.321418 C537.267449,243.331674 537.680971,243.336802 538.094492,243.336802 C538.508014,243.336802 538.921536,243.331674 539.33252,243.321418 C565.549285,243.985469 586.595761,265.668382 586.595761,292.321418" id="Fill-275" fill="#85C9E2"></path>
                        <path d="M587.176497,389.902154 C587.176497,362.83899 608.893426,340.902154 635.679033,340.902154 C662.464641,340.902154 684.176497,362.83899 684.176497,389.902154 L587.176497,389.902154" id="Fill-281" fill="#64BFDD"></path>
                        <path d="M490.9471,389.860523 L489.591293,389.860523 L489.55413,292.860523 C489.561819,292.860523 489.569508,292.860523 489.575915,292.860523 C516.202534,292.860523 537.869819,313.889285 538.552849,340.093089 C538.542597,340.511761 538.537471,340.930433 538.537471,341.351643 C538.537471,341.772852 538.542597,342.194062 538.55413,342.612734 C537.901856,368.375029 516.958608,389.152587 490.9471,389.860523" id="Fill-282" fill="#94CEE4"></path>
                        <path d="M586.600229,389.857986 C559.983278,389.850374 538.324247,368.825693 537.638673,342.629845 C537.648924,342.211178 537.65405,341.789974 537.65405,341.36877 C537.65405,340.947566 537.648924,340.528899 537.637391,340.110232 C538.292211,314.358424 559.213128,293.58875 585.208577,292.860523 L586.602792,292.860523 L586.602792,292.877016 L586.600229,292.877016 C586.600229,293.045752 586.600229,293.215756 586.602792,293.383222 L586.637391,387.935925 C586.613044,388.574075 586.600229,389.21603 586.600229,389.860523" id="Fill-283" fill="#D0E9F0"></path>
                        <path d="M586.180022,389.943785 C586.174022,389.943785 586.169022,389.943785 586.164022,389.943785 C586.164022,389.609791 586.174022,389.275798 586.193022,388.943785 L586.194022,389.943785 C586.190022,389.943785 586.183022,389.943785 586.180022,389.943785" id="Fill-286" fill="#64BFDD"></path>
                        <path d="M537.389154,342.153417 C537.380154,341.654927 537.376154,341.153417 537.376154,340.651906 C537.376154,340.150396 537.380154,339.651906 537.388154,339.153417 C537.397154,339.651906 537.401154,340.150396 537.401154,340.651906 C537.401154,341.153417 537.397154,341.654927 537.389154,342.153417" id="Fill-287" fill="#86C9E1"></path>
                        <path d="M539.354084,439.399629 C538.93422,439.388091 538.516893,439.382963 538.094492,439.382963 C537.672091,439.382963 537.254764,439.388091 536.8349,439.399629 C510.632089,438.722759 489.595761,417.042409 489.595761,390.399629 L489.645231,390.399629 L489.645231,390.418858 C490.093002,390.418858 490.54204,390.412448 490.987274,390.399629 L586.595761,390.399629 C586.595761,417.042409 565.558164,438.722759 539.354084,439.399629" id="Fill-288" fill="#B3DBE8"></path>
                        <path d="M488.805393,390.158391 L488.805393,390.143391 L489.805393,390.143391 C489.473635,390.153391 489.139041,390.158391 488.805393,390.158391" id="Fill-289" fill="#7DC6E0"></path>
                        <path d="M585.888654,488.189997 L585.888654,488.189997 C585.888654,488.146408 585.888654,488.100255 585.888654,488.055385 C585.888654,488.100255 585.888654,488.145126 585.888654,488.189997 M488.888654,488.189997 L488.888654,488.189997 C488.888654,488.145126 488.888654,488.100255 488.888654,488.055385 C488.888654,488.100255 488.888654,488.146408 488.888654,488.189997 M585.888654,487.920773 L488.888654,487.920773 C489.029454,461.397108 510.013775,439.863056 536.127794,439.189997 C536.547658,439.200253 536.964985,439.205381 537.387386,439.205381 C537.809786,439.205381 538.227114,439.200253 538.646978,439.189997 C564.763533,439.863056 585.747854,461.397108 585.888654,487.920773" id="Fill-290" fill="#94CEE4"></path>
                        <path d="M586.595761,487.12952 L489.595761,487.12952 C489.595761,487.09552 489.595761,487.05952 489.595761,487.02452 C489.595761,486.99052 489.595761,486.95452 489.595761,486.91952 L586.595761,486.91952 C586.595761,486.95452 586.595761,486.99052 586.595761,487.02452 C586.595761,487.05952 586.595761,487.09552 586.595761,487.12952" id="Fill-291" fill="#73C3DF"></path>
                        <path d="M537.388654,439.660866 C536.885633,439.660866 536.388654,439.656866 535.888654,439.648866 C536.388654,439.639866 536.885633,439.635866 537.388654,439.635866 C537.891675,439.635866 538.388654,439.639866 538.888654,439.648866 C538.388654,439.656866 537.891675,439.660866 537.388654,439.660866" id="Fill-292" fill="#7DC6E0"></path>
                        <path d="M591.001229,487.441259 C589.725688,487.342168 588.434764,487.292623 587.134866,487.292623 L587.134866,390.441259 L587.500222,390.44253 C613.993014,390.63563 635.484917,411.654372 636.134866,437.797901 C636.12461,438.203158 636.119483,438.608415 636.119483,439.016213 C636.119483,439.424011 636.12461,439.829268 636.134866,440.234525 C635.51312,465.21691 615.862098,485.520417 591.001229,487.441259" id="Fill-293" fill="#B3DBE8"></path>
                        <path d="M586.653896,487.495074 L586.653896,487.261074 C587.998723,487.261074 589.334267,487.300074 590.653896,487.378074 C589.334267,487.455074 587.998723,487.495074 586.653896,487.495074" id="Fill-294" fill="#8CCCE2"></path>
                        <path d="M587.028629,390.151391 L586.743629,390.151391 L586.743629,390.150391 C586.838629,390.150391 586.933629,390.151391 587.028629,390.151391" id="Fill-295" fill="#64BFDD"></path>
                        <path d="M684.218127,487.441259 L684.218127,487.144441 C682.918195,487.144441 681.627237,487.193911 680.352945,487.29285 C655.492707,485.374947 635.838608,465.102503 635.218127,440.158342 C635.228383,439.753704 635.232229,439.349067 635.232229,438.941893 C635.232229,438.53472 635.228383,438.130082 635.218127,437.725445 C635.868093,411.621916 657.363122,390.635333 683.852762,390.442528 L684.218127,390.442528 C684.218127,390.441259 684.218127,390.441259 684.218127,390.441259 L684.218127,487.441259" id="Fill-296" fill="#85C9E2"></path>
                        <path d="M635.676997,440.441259 C635.668997,439.942302 635.664997,439.443345 635.664997,438.941259 C635.664997,438.439174 635.668997,437.940217 635.676997,437.441259 C635.684997,437.940217 635.687997,438.439174 635.687997,438.941259 C635.687997,439.443345 635.684997,439.942302 635.676997,440.441259" id="Fill-299" fill="#75C4DF"></path>
                    </g>
                </g>
            </g>
        </g>
    </g>
</svg>