<?xml version="1.0" encoding="UTF-8"?>
<svg width="548px" height="345px" viewBox="0 0 548 345" version="1.1" xmlns="http://www.w3.org/2000/svg" xmlns:xlink="http://www.w3.org/1999/xlink">
    <title>633B6137-4A82-4B44-95FC-1383527A69AA</title>
    <defs>
        <path d="M543.834679,0 C546.043818,-4.05812251e-16 547.834679,1.790861 547.834679,4 L547.834679,340 C547.834679,342.209139 546.043818,344 543.834679,344 L0.00024163477,344.0079 C94.7133946,258.2338 156.074691,136.307391 162.309656,0.00314713967 L543.834679,0 Z" id="path-1"></path>
    </defs>
    <g id="Page-1" stroke="none" stroke-width="1" fill="none" fill-rule="evenodd">
        <g id="Home_v2" transform="translate(-738.000000, -3437.000000)">
            <g id="Elements/Bloc-trouver-clinique" transform="translate(154.000000, 3437.000000)">
                <g id="Group-5" transform="translate(584.000000, 0.000000)">
                    <mask id="mask-2" fill="white">
                        <use xlink:href="#path-1"></use>
                    </mask>
                    <use id="Combined-Shape" fill="#FFFFFF" opacity="0.85890997" xlink:href="#path-1"></use>
                    <g id="Pattern-2" mask="url(#mask-2)">
                        <g transform="translate(-2.000000, -40.000000)">
                            <path d="M0.138995996,78.8663283 C0.138995996,57.1242657 17.7636883,39.5006029 39.5057509,39.5006029 C61.2478135,39.5006029 78.8725059,57.1242657 78.8725059,78.8663283 L0.138995996,78.8663283" id="Fill-117" fill="#64BFDD"></path>
                            <path d="M78.8858907,78.8807427 L78.8858907,0.146203196 C100.284067,0.146203196 117.695632,17.2231483 118.239261,38.4926246 C118.229994,38.8323925 118.225876,39.1721605 118.225876,39.5150173 C118.225876,39.8568445 118.229994,40.1966125 118.239261,40.5363805 C117.695632,61.8037975 100.284067,78.8807427 78.8858907,78.8807427" id="Fill-118" fill="#B3DBE8"></path>
                            <path d="M157.592631,78.8807427 C136.194455,78.8807427 118.78186,61.8037975 118.239261,40.5363805 C118.247498,40.1966125 118.252646,39.8568445 118.252646,39.5150173 C118.252646,39.1721605 118.247498,38.8323925 118.239261,38.4926246 C118.78186,17.2231483 136.194455,0.146203196 157.592631,0.146203196 L157.592631,0.159587996 L157.56998,0.159587996 C157.56998,0.605404784 157.577187,1.05019197 157.592631,1.49189036 L157.592631,77.5340259 C157.577187,77.9757243 157.56998,78.4205115 157.56998,78.8663283 L157.592631,78.8663283 L157.592631,78.8807427" id="Fill-119" fill="#85C9E2"></path>
                            <path d="M118.239261,40.5363805 C118.229994,40.1966125 118.225876,39.8568445 118.225876,39.5150173 C118.225876,39.1721605 118.229994,38.8323925 118.239261,38.4926246 C118.247498,38.8323925 118.252646,39.1721605 118.252646,39.5150173 C118.252646,39.8568445 118.247498,40.1966125 118.239261,40.5363805" id="Fill-120" fill="#75C4DF"></path>
                            <path d="M236.306578,78.8663283 L157.592631,78.8663283 L157.592631,77.5340259 C158.283493,56.7484617 175.090682,40.0452613 195.916401,39.5139877 C196.257199,39.5222245 196.596967,39.5263429 196.938794,39.5263429 C197.281651,39.5263429 197.621419,39.5222245 197.961187,39.5139877 C219.229633,40.0565869 236.306578,57.4671224 236.306578,78.8663283" id="Fill-123" fill="#B3DBE8"></path>
                            <path d="M157.592631,78.8663283 L157.56998,78.8663283 C157.56998,78.4205115 157.577187,77.9757243 157.592631,77.5340259 L157.592631,78.8663283" id="Fill-124" fill="#75C4DF"></path>
                            <path d="M196.938794,39.5263429 C196.596967,39.5263429 196.257199,39.5222245 195.916401,39.5139877 C196.257199,39.5047213 196.596967,39.5006029 196.938794,39.5006029 C197.281651,39.5006029 197.621419,39.5047213 197.961187,39.5139877 C197.621419,39.5222245 197.281651,39.5263429 196.938794,39.5263429" id="Fill-125" fill="#7DC6E0"></path>
                            <path d="M236.318934,78.8807427 L236.318934,0.146203196 C257.724317,0.146203196 275.140001,17.2313851 275.673333,38.5090982 C275.664067,38.8437181 275.659949,39.1783381 275.659949,39.5150173 C275.659949,39.8506669 275.664067,40.1863165 275.673333,40.5199069 C275.140001,61.7955607 257.724317,78.8807427 236.318934,78.8807427" id="Fill-126" fill="#D0E9F0"></path>
                            <path d="M315.027733,78.8807427 C293.62029,78.8807427 276.205637,61.7955607 275.673333,40.5199069 C275.68157,40.1863165 275.685689,39.8506669 275.685689,39.5150173 C275.685689,39.1783381 275.68157,38.8437181 275.673333,38.5090982 C276.205637,17.2313851 293.62029,0.146203196 315.027733,0.146203196 L315.027733,0.159587996 L315.006111,0.159587996 C315.006111,0.595108784 315.013319,1.02651117 315.027733,1.45894316 L315.027733,77.5669731 C315.013319,77.9994051 315.006111,78.4308075 315.006111,78.8663283 L315.027733,78.8663283 L315.027733,78.8807427" id="Fill-127" fill="#B3DBE8"></path>
                            <path d="M275.673333,40.5199069 C275.664067,40.1863165 275.659949,39.8506669 275.659949,39.5150173 C275.659949,39.1783381 275.664067,38.8437181 275.673333,38.5090982 C275.68157,38.8437181 275.685689,39.1783381 275.685689,39.5150173 C275.685689,39.8506669 275.68157,40.1863165 275.673333,40.5199069" id="Fill-128" fill="#9CD2E4"></path>
                            <path d="M393.738592,78.8663283 L315.027733,78.8663283 L315.027733,77.5669731 C315.702121,56.7669945 332.514459,40.0452613 353.350474,39.5139877 C353.690242,39.5222245 354.03001,39.5263429 354.372866,39.5263429 C354.714694,39.5263429 355.054462,39.5222245 355.39423,39.5139877 C376.661647,40.0565869 393.738592,57.4671224 393.738592,78.8663283" id="Fill-130" fill="#B3DBE8"></path>
                            <path d="M315.027733,78.8663283 L315.006111,78.8663283 C315.006111,78.4308075 315.013319,77.9994051 315.027733,77.5669731 L315.027733,78.8663283" id="Fill-131" fill="#8CCCE2"></path>
                            <path d="M354.372866,39.5263429 C354.03001,39.5263429 353.690242,39.5222245 353.350474,39.5139877 C353.690242,39.5047213 354.03001,39.5006029 354.372866,39.5006029 C354.714694,39.5006029 355.054462,39.5047213 355.39423,39.5139877 C355.054462,39.5222245 354.714694,39.5263429 354.372866,39.5263429" id="Fill-132" fill="#64BFDD"></path>
                            <path d="M119.268861,118.234113 C118.921886,118.224846 118.57491,118.220728 118.225876,118.220728 C117.876842,118.220728 117.529866,118.224846 117.182891,118.234113 C96.026671,117.683277 79.0228275,100.441596 78.8591211,79.1916819 L78.8591211,78.8807427 L157.592631,78.8807427 C157.592631,100.271712 140.5301,117.681218 119.268861,118.234113" id="Fill-133" fill="#D0E9F0"></path>
                            <path d="M157.592631,157.587483 L78.8580915,157.587483 C78.8622099,157.585424 78.8673579,157.585424 78.8714763,157.585424 C78.8766243,157.585424 78.8828019,157.585424 78.8879499,157.585424 L78.8879499,156.047201 C79.6838306,135.365627 96.4374814,118.774653 117.182891,118.234113 C117.529866,118.243379 117.876842,118.247498 118.225876,118.247498 C118.57491,118.247498 118.921886,118.243379 119.268861,118.234113 C140.5301,118.787008 157.592631,136.194455 157.592631,157.587483" id="Fill-134" fill="#B3DBE8"></path>
                            <path d="M118.225876,118.247498 C117.876842,118.247498 117.529866,118.243379 117.182891,118.234113 C117.529866,118.224846 117.876842,118.220728 118.225876,118.220728 C118.57491,118.220728 118.921886,118.224846 119.268861,118.234113 C118.921886,118.243379 118.57491,118.247498 118.225876,118.247498" id="Fill-135" fill="#9CD2E4"></path>
                            <path d="M157.606016,157.600868 L157.606016,78.8663283 C179.004192,78.8663283 196.417816,95.9432734 196.961445,117.21172 C196.952179,117.551488 196.94806,117.891256 196.94806,118.234113 C196.94806,118.57594 196.952179,118.915708 196.961445,119.255476 C196.417816,140.524952 179.004192,157.600868 157.606016,157.600868" id="Fill-136" fill="#94CEE4"></path>
                            <path d="M236.313786,157.600868 C214.915609,157.600868 197.504044,140.524952 196.961445,119.255476 C196.969682,118.915708 196.9738,118.57594 196.9738,118.234113 C196.9738,117.891256 196.969682,117.551488 196.961445,117.21172 C197.504044,95.9432734 214.915609,78.8663283 236.313786,78.8663283 L236.313786,78.8807427 L236.292164,78.8807427 C236.292164,79.3172931 236.299371,79.7538434 236.313786,80.1862754 L236.313786,156.28195 C236.299371,156.714382 236.292164,157.150933 236.292164,157.587483 L236.313786,157.587483 L236.313786,157.600868" id="Fill-137" fill="#D0E9F0"></path>
                            <path d="M196.961445,119.255476 C196.952179,118.915708 196.94806,118.57594 196.94806,118.234113 C196.94806,117.891256 196.952179,117.551488 196.961445,117.21172 C196.969682,117.551488 196.9738,117.891256 196.9738,118.234113 C196.9738,118.57594 196.969682,118.915708 196.961445,119.255476" id="Fill-138" fill="#86C9E1"></path>
                            <path d="M1.29626636,157.600868 L0.178120795,157.600868 L0.149291996,78.8817723 C0.153410396,78.8817723 0.160617596,78.8817723 0.164735996,78.8817723 C21.571149,78.8817723 38.9868325,95.9638654 39.5181061,117.244667 C39.5098693,117.57311 39.5057509,117.903611 39.5057509,118.234113 C39.5057509,118.565644 39.5098693,118.896146 39.5181061,119.225618 C39.0115429,140.137823 22.1930274,157.008848 1.29626636,157.600868" id="Fill-139" fill="#85C9E2"></path>
                            <path d="M78.8580915,157.585424 C57.4599152,157.579246 40.0504093,140.500242 39.5181061,119.225618 C39.5263429,118.896146 39.5304613,118.565644 39.5304613,118.234113 C39.5304613,117.903611 39.5263429,117.57311 39.5181061,117.244667 C40.0256989,96.309811 56.8802505,79.4223123 77.8078995,78.8663283 L78.8591211,78.8663283 L78.8591211,78.8807427 L78.8580915,78.8807427 C78.8580915,78.9837027 78.8580915,79.0887219 78.8591211,79.1916819 L78.8879499,156.047201 C78.8673579,156.558913 78.8580915,157.071653 78.8580915,157.587483" id="Fill-140" fill="#B3DBE8"></path>
                            <path d="M78.8591211,78.8663283 L77.8078995,78.8663283 C78.1579635,78.8570619 78.5069979,78.8529435 78.8591211,78.8529435 L78.8591211,78.8663283" id="Fill-141" fill="#64BFDD"></path>
                            <path d="M78.8591211,79.1916819 C78.8580915,79.0887219 78.8580915,78.9837027 78.8580915,78.8807427 L78.8591211,79.1916819" id="Fill-142" fill="#9CD2E4"></path>
                            <path d="M78.8714763,157.585424 C78.8673579,157.585424 78.8622099,157.585424 78.8580915,157.585424 C78.8580915,157.071653 78.8673579,156.558913 78.8879499,156.047201 L78.8879499,157.585424 C78.8828019,157.585424 78.8766243,157.585424 78.8714763,157.585424" id="Fill-143" fill="#8CCCE2"></path>
                            <path d="M39.5181061,119.225618 C39.5098693,118.896146 39.5057509,118.565644 39.5057509,118.234113 C39.5057509,117.903611 39.5098693,117.57311 39.5181061,117.244667 C39.5263429,117.57311 39.5304613,117.903611 39.5304613,118.234113 C39.5304613,118.565644 39.5263429,118.896146 39.5181061,119.225618" id="Fill-144" fill="#75C4DF"></path>
                            <path d="M315.027733,78.8807427 C315.027733,100.620746 297.402011,118.247498 275.657889,118.247498 C253.917886,118.247498 236.292164,100.620746 236.292164,78.8807427 L315.027733,78.8807427" id="Fill-145" fill="#64BFDD"></path>
                            <path d="M315.027733,157.587483 L236.313786,157.587483 L236.313786,156.28195 C236.990233,135.490208 253.791245,118.776712 274.614905,118.234113 C274.96188,118.243379 275.308855,118.247498 275.657889,118.247498 C276.006924,118.247498 276.354929,118.243379 276.701904,118.234113 C297.962114,118.787008 315.027733,136.194455 315.027733,157.587483" id="Fill-146" fill="#B3DBE8"></path>
                            <path d="M236.313786,157.587483 L236.292164,157.587483 C236.292164,157.150933 236.299371,156.714382 236.313786,156.28195 L236.313786,157.587483" id="Fill-147" fill="#9CD2E4"></path>
                            <path d="M275.657889,118.247498 C275.308855,118.247498 274.96188,118.243379 274.614905,118.234113 C274.96188,118.224846 275.308855,118.220728 275.657889,118.220728 C276.006924,118.220728 276.354929,118.224846 276.701904,118.234113 C276.354929,118.243379 276.006924,118.247498 275.657889,118.247498" id="Fill-148" fill="#64BFDD"></path>
                            <path d="M315.038029,157.600868 L315.038029,78.8663283 C336.445472,78.8663283 353.861155,95.9515102 354.394488,117.228194 C354.385222,117.562814 354.381103,117.897434 354.381103,118.234113 C354.381103,118.569762 354.385222,118.905412 354.394488,119.239002 C353.861155,140.516715 336.445472,157.600868 315.038029,157.600868" id="Fill-149" fill="#94CEE4"></path>
                            <path d="M393.747858,157.600868 C372.342475,157.600868 354.926791,140.516715 354.394488,119.239002 C354.402725,118.905412 354.406843,118.569762 354.406843,118.234113 C354.406843,117.897434 354.402725,117.562814 354.394488,117.228194 C354.926791,95.9515102 372.342475,78.8663283 393.747858,78.8663283 L393.747858,157.600868" id="Fill-150" fill="#D0E9F0"></path>
                            <path d="M354.394488,119.239002 C354.385222,118.905412 354.381103,118.569762 354.381103,118.234113 C354.381103,117.897434 354.385222,117.562814 354.394488,117.228194 C354.402725,117.562814 354.406843,117.897434 354.406843,118.234113 C354.406843,118.569762 354.402725,118.905412 354.394488,119.239002" id="Fill-151" fill="#86C9E1"></path>
                            <path d="M40.5106405,196.954238 C40.1770501,196.946001 39.8414005,196.941883 39.5057509,196.941883 C39.1701013,196.941883 38.8344517,196.946001 38.5008614,196.954238 C17.2231483,196.421935 0.138995996,179.006251 0.138995996,157.600868 L0.178120795,157.600868 L0.178120795,157.616312 C0.551865585,157.616312 0.924580775,157.611164 1.29626636,157.600868 L78.8725059,157.600868 C78.8725059,179.006251 61.7893831,196.421935 40.5106405,196.954238" id="Fill-152" fill="#B3DBE8"></path>
                            <path d="M78.8725059,236.308638 L78.8591211,236.308638 L78.8591211,236.293194 C78.4843467,236.293194 78.1106019,236.298342 77.7389163,236.308638 L0.138995996,236.308638 C0.138995996,214.902225 17.2231483,197.487571 38.5008614,196.954238 C38.8344517,196.962475 39.1701013,196.966593 39.5057509,196.966593 C39.8414005,196.966593 40.1770501,196.962475 40.5106405,196.954238 C61.7893831,197.487571 78.8725059,214.902225 78.8725059,236.308638" id="Fill-154" fill="#85C9E2"></path>
                            <path d="M39.5057509,196.966593 C39.1701013,196.966593 38.8344517,196.962475 38.5008614,196.954238 C38.8344517,196.946001 39.1701013,196.941883 39.5057509,196.941883 C39.8414005,196.941883 40.1770501,196.946001 40.5106405,196.954238 C40.1770501,196.962475 39.8414005,196.966593 39.5057509,196.966593" id="Fill-155" fill="#75C4DF"></path>
                            <path d="M78.8858907,236.322022 L78.8858907,157.587483 C100.284067,157.587483 117.695632,174.663398 118.239261,195.932875 C118.229994,196.272643 118.225876,196.612411 118.225876,196.955267 C118.225876,197.297095 118.229994,197.636863 118.239261,197.97766 C117.695632,219.246107 100.284067,236.322022 78.8858907,236.322022" id="Fill-156" fill="#94CEE4"></path>
                            <path d="M157.592631,236.322022 C136.194455,236.322022 118.78186,219.246107 118.239261,197.97766 C118.247498,197.636863 118.252646,197.297095 118.252646,196.955267 C118.252646,196.612411 118.247498,196.272643 118.239261,195.932875 C118.78186,174.663398 136.194455,157.587483 157.592631,157.587483 L157.592631,157.600868 L157.56998,157.600868 C157.56998,158.046685 157.577187,158.491472 157.592631,158.93317 L157.592631,234.976335 C157.577187,235.418034 157.56998,235.862821 157.56998,236.308638 L157.592631,236.308638 L157.592631,236.322022" id="Fill-157" fill="#B3DBE8"></path>
                            <path d="M118.239261,197.97766 C118.229994,197.636863 118.225876,197.297095 118.225876,196.955267 C118.225876,196.612411 118.229994,196.272643 118.239261,195.932875 C118.247498,196.272643 118.252646,196.612411 118.252646,196.955267 C118.252646,197.297095 118.247498,197.636863 118.239261,197.97766" id="Fill-158" fill="#7DC6E0"></path>
                            <path d="M197.943683,196.954238 C197.610093,196.946001 197.274443,196.941883 196.938794,196.941883 C196.603144,196.941883 196.267495,196.946001 195.933904,196.954238 C175.098919,196.43326 158.283493,179.724912 157.592631,158.93317 L157.592631,157.600868 L236.306578,157.600868 C236.306578,179.006251 219.221396,196.421935 197.943683,196.954238" id="Fill-159" fill="#94CEE4"></path>
                            <path d="M157.592631,158.93317 C157.577187,158.491472 157.56998,158.046685 157.56998,157.600868 L157.592631,157.600868 L157.592631,158.93317" id="Fill-160" fill="#7DC6E0"></path>
                            <path d="M236.306578,236.308638 L157.592631,236.308638 L157.592631,234.976335 C158.283493,214.183564 175.098919,197.476245 195.933904,196.954238 C196.267495,196.962475 196.603144,196.966593 196.938794,196.966593 C197.274443,196.966593 197.610093,196.962475 197.943683,196.954238 C219.221396,197.487571 236.306578,214.902225 236.306578,236.308638" id="Fill-161" fill="#85C9E2"></path>
                            <path d="M157.592631,236.308638 L157.56998,236.308638 C157.56998,235.862821 157.577187,235.418034 157.592631,234.976335 L157.592631,236.308638" id="Fill-162" fill="#75C4DF"></path>
                            <path d="M196.938794,196.966593 C196.603144,196.966593 196.267495,196.962475 195.933904,196.954238 C196.267495,196.946001 196.603144,196.941883 196.938794,196.941883 C197.274443,196.941883 197.610093,196.946001 197.943683,196.954238 C197.610093,196.962475 197.274443,196.966593 196.938794,196.966593" id="Fill-163" fill="#6EC1DE"></path>
                            <path d="M236.318934,157.587483 C258.060996,157.587483 275.685689,175.212175 275.685689,196.955267 C275.685689,218.69733 258.060996,236.322022 236.318934,236.322022 L236.318934,157.587483" id="Fill-164" fill="#64BFDD"></path>
                            <path d="M315.027733,236.322022 C293.62029,236.322022 276.205637,219.23787 275.673333,197.960157 C275.68157,197.626567 275.685689,197.290917 275.685689,196.955267 C275.685689,196.619618 275.68157,196.283968 275.673333,195.949348 C276.205637,174.671635 293.62029,157.587483 315.027733,157.587483 L315.027733,157.600868 L315.006111,157.600868 C315.006111,158.036389 315.013319,158.467791 315.027733,158.900223 L315.027733,235.009282 C315.013319,235.441714 315.006111,235.874146 315.006111,236.308638 L315.027733,236.308638 L315.027733,236.322022" id="Fill-165" fill="#B3DBE8"></path>
                            <path d="M275.673333,197.960157 C275.664067,197.626567 275.659949,197.290917 275.659949,196.955267 C275.659949,196.619618 275.664067,196.283968 275.673333,195.949348 C275.68157,196.283968 275.685689,196.619618 275.685689,196.955267 C275.685689,197.290917 275.68157,197.626567 275.673333,197.960157" id="Fill-166" fill="#64BFDD"></path>
                            <path d="M355.377756,196.954238 C355.043136,196.946001 354.708516,196.941883 354.372866,196.941883 C354.036187,196.941883 353.701567,196.946001 353.366947,196.954238 C332.522696,196.432231 315.703151,179.706379 315.027733,158.900223 L315.027733,157.600868 L393.738592,157.600868 C393.738592,179.006251 376.65341,196.421935 355.377756,196.954238" id="Fill-167" fill="#85C9E2"></path>
                            <path d="M315.027733,158.900223 C315.013319,158.467791 315.006111,158.036389 315.006111,157.600868 L315.027733,157.600868 L315.027733,158.900223" id="Fill-168" fill="#75C4DF"></path>
                            <path d="M393.738592,236.308638 L315.027733,236.308638 L315.027733,235.009282 C315.703151,214.202097 332.522696,197.476245 353.366947,196.954238 C353.701567,196.962475 354.036187,196.966593 354.372866,196.966593 C354.708516,196.966593 355.043136,196.962475 355.377756,196.954238 C376.65341,197.487571 393.738592,214.902225 393.738592,236.308638" id="Fill-169" fill="#D0E9F0"></path>
                            <path d="M315.027733,236.308638 L315.006111,236.308638 C315.006111,235.874146 315.013319,235.441714 315.027733,235.009282 L315.027733,236.308638" id="Fill-170" fill="#9CD2E4"></path>
                            <path d="M354.372866,196.966593 C354.036187,196.966593 353.701567,196.962475 353.366947,196.954238 C353.701567,196.946001 354.036187,196.941883 354.372866,196.941883 C354.708516,196.941883 355.043136,196.946001 355.377756,196.954238 C355.043136,196.962475 354.708516,196.966593 354.372866,196.966593" id="Fill-171" fill="#7CC6E0"></path>
                            <path d="M119.226647,275.675393 C118.894086,275.667156 118.560496,275.663037 118.225876,275.663037 C117.891256,275.663037 117.557666,275.667156 117.225105,275.675393 C96.0493222,275.147208 79.0228275,257.89626 78.8591211,236.633991 L78.8591211,236.322022 L157.592631,236.322022 C157.592631,257.726376 140.507449,275.145149 119.226647,275.675393" id="Fill-172" fill="#94CEE4"></path>
                            <path d="M78.8580915,315.028763 C78.8580915,293.2867 96.484843,275.663037 118.225876,275.663037 C139.968968,275.663037 157.592631,293.2867 157.592631,315.028763 L78.8580915,315.028763" id="Fill-173" fill="#64BFDD"></path>
                            <path d="M157.606016,315.042147 L157.606016,236.308638 C179.004192,236.308638 196.417816,253.383524 196.961445,274.653 C196.952179,274.992768 196.94806,275.332536 196.94806,275.675393 C196.94806,276.01722 196.952179,276.356988 196.961445,276.696756 C196.417816,297.965202 179.004192,315.042147 157.606016,315.042147" id="Fill-174" fill="#B3DBE8"></path>
                            <path d="M236.313786,315.042147 C214.915609,315.042147 197.504044,297.965202 196.961445,276.696756 C196.952179,276.356988 196.94806,276.01722 196.94806,275.675393 C196.94806,275.332536 196.952179,274.992768 196.961445,274.653 C197.504044,253.383524 214.915609,236.308638 236.313786,236.308638 L236.313786,236.322022 L236.292164,236.322022 C236.292164,236.758573 236.299371,237.195123 236.313786,237.627555 L236.313786,313.72323 C236.299371,314.156692 236.292164,314.592212 236.292164,315.028763 L236.313786,315.028763 L236.313786,315.042147" id="Fill-175" fill="#B3DBE8"></path>
                            <path d="M0.149291996,236.323048 C21.8923842,236.313786 39.5242837,253.9323 39.5304658,275.675393 C39.5407573,297.416426 21.921213,315.049355 0.178120795,315.057591 L0.149291996,236.323048" id="Fill-176" fill="#64BFDD"></path>
                            <path d="M78.8580915,315.026703 C57.4599152,315.020526 40.0504093,297.940492 39.5181061,276.666897 C39.5263429,276.337425 39.5304613,276.006924 39.5304613,275.675393 C39.5304613,275.344891 39.5263429,275.014389 39.5181061,274.685947 C40.0256989,253.771683 56.8411257,236.899628 77.7389163,236.308638 L78.8591211,236.308638 L78.8591211,236.322022 L78.8580915,236.322022 C78.8580915,236.424982 78.8580915,236.530002 78.8591211,236.633991 L78.8879499,313.488481 C78.8673579,314.000192 78.8580915,314.512933 78.8580915,315.028763" id="Fill-177" fill="#D0E9F0"></path>
                            <path d="M78.8591211,236.308638 L77.7389163,236.308638 C78.1106019,236.298342 78.4843467,236.293194 78.8591211,236.293194 L78.8591211,236.308638" id="Fill-178" fill="#7CC6E0"></path>
                            <path d="M78.8591211,236.633991 C78.8580915,236.530002 78.8580915,236.424982 78.8580915,236.322022 L78.8591211,236.633991" id="Fill-179" fill="#86C9E1"></path>
                            <path d="M78.8735355,315.026703 C78.8683875,315.026703 78.8632395,315.026703 78.8580915,315.026703 C78.8580915,314.512933 78.8673579,314.000192 78.8879499,313.488481 L78.8879499,315.026703 C78.8838315,315.026703 78.8776539,315.026703 78.8735355,315.026703" id="Fill-180" fill="#64BFDD"></path>
                            <path d="M39.5181061,276.666897 C39.5098693,276.337425 39.5057509,276.006924 39.5057509,275.675393 C39.5057509,275.344891 39.5098693,275.014389 39.5181061,274.685947 C39.5263429,275.014389 39.5304613,275.344891 39.5304613,275.675393 C39.5304613,276.006924 39.5263429,276.337425 39.5181061,276.666897" id="Fill-181" fill="#64BFDD"></path>
                            <path d="M276.658661,275.675393 C276.3261,275.667156 275.992509,275.663037 275.657889,275.663037 C275.324299,275.663037 274.990709,275.667156 274.658148,275.675393 C253.813896,275.155445 236.991262,258.431652 236.313786,237.627555 L236.313786,236.322022 L315.027733,236.322022 C315.027733,257.726376 297.939462,275.145149 276.658661,275.675393" id="Fill-182" fill="#94CEE4"></path>
                            <path d="M236.313786,237.627555 C236.299371,237.195123 236.292164,236.758573 236.292164,236.322022 L236.313786,236.322022 L236.313786,237.627555" id="Fill-183" fill="#7DC6E0"></path>
                            <path d="M314.733267,315.028763 L236.613399,315.028763 C236.515587,315.028763 236.417775,315.027733 236.318934,315.027733 L236.313786,315.028763 L236.313786,313.72323 C236.991262,292.917074 253.813896,276.195341 274.658148,275.675393 C274.990709,275.683629 275.324299,275.687748 275.657889,275.687748 C275.992509,275.687748 276.3261,275.683629 276.658661,275.675393 C297.939462,276.206666 315.027733,293.62132 315.027733,315.028763 C314.928891,315.027733 314.831079,315.028763 314.733267,315.028763" id="Fill-184" fill="#B3DBE8"></path>
                            <path d="M236.313786,315.028763 L236.292164,315.028763 C236.292164,314.592212 236.299371,314.156692 236.313786,313.72323 L236.313786,315.028763" id="Fill-185" fill="#8CCCE2"></path>
                            <path d="M275.657889,275.687748 C275.324299,275.687748 274.990709,275.683629 274.658148,275.675393 C274.990709,275.667156 275.324299,275.663037 275.657889,275.663037 C275.992509,275.663037 276.3261,275.667156 276.658661,275.675393 C276.3261,275.683629 275.992509,275.687748 275.657889,275.687748" id="Fill-186" fill="#7DC6E0"></path>
                            <path d="M315.038029,315.042147 L315.038029,236.308638 C336.445472,236.308638 353.861155,253.39176 354.394488,274.669473 C354.385222,275.004093 354.381103,275.339743 354.381103,275.675393 C354.381103,276.011042 354.385222,276.346692 354.394488,276.680282 C353.861155,297.956966 336.445472,315.042147 315.038029,315.042147" id="Fill-187" fill="#B3DBE8"></path>
                            <path d="M393.747858,315.042147 C372.006825,315.042147 354.381103,297.416426 354.381103,275.675393 C354.381103,253.9323 372.006825,236.308638 393.747858,236.308638 L393.747858,315.042147" id="Fill-188" fill="#64BFDD"></path>
                            <path d="M40.5281437,354.396547 C40.1873461,354.387281 39.8486077,354.383162 39.5057509,354.383162 C39.1639237,354.383162 38.8241557,354.387281 38.4833582,354.396547 C17.2149115,353.852918 0.138995996,336.440324 0.138995996,315.042147 L0.178120795,315.042147 L0.178120795,315.057591 C0.541569585,315.057591 0.906047975,315.052443 1.26743757,315.042147 L78.8725059,315.042147 C78.8725059,336.440324 61.7976199,353.852918 40.5281437,354.396547" id="Fill-189" fill="#B3DBE8"></path>
                            <path d="M78.8725059,393.748888 L78.8725059,393.748888 C78.8714763,393.713881 78.8714763,393.676816 78.8714763,393.64078 C78.8714763,393.676816 78.8725059,393.712852 78.8725059,393.748888 M0.138995996,393.748888 L0.138995996,393.748888 C0.138995996,393.712852 0.138995996,393.676816 0.138995996,393.64078 C0.138995996,393.676816 0.138995996,393.713881 0.138995996,393.748888 M78.8725059,393.532672 L0.138995996,393.532672 C0.253281593,372.231278 17.2859539,354.937087 38.4833582,354.396547 C38.8241557,354.404784 39.1639237,354.408902 39.5057509,354.408902 C39.8486077,354.408902 40.1873461,354.404784 40.5281437,354.396547 C61.7255479,354.937087 78.7571907,372.231278 78.8714763,393.532672" id="Fill-191" fill="#94CEE4"></path>
                            <path d="M39.5057509,354.408902 C39.1639237,354.408902 38.8241557,354.404784 38.4833582,354.396547 C38.8241557,354.387281 39.1639237,354.383162 39.5057509,354.383162 C39.8486077,354.383162 40.1873461,354.387281 40.5281437,354.396547 C40.1873461,354.404784 39.8486077,354.408902 39.5057509,354.408902" id="Fill-193" fill="#7DC6E0"></path>
                            <path d="M81.9911642,393.641809 C80.9667122,393.561501 79.929905,393.521346 78.8858907,393.521346 L78.8858907,315.027733 L79.1803563,315.028763 C100.442625,315.185262 117.698721,332.201461 118.239261,353.373125 C118.229994,353.712893 118.225876,354.052661 118.225876,354.395518 C118.225876,354.737345 118.229994,355.077113 118.239261,355.41791 C117.722402,375.64852 101.944812,392.085054 81.9911642,393.641809" id="Fill-194" fill="#B3DBE8"></path>
                            <path d="M79.1803563,315.028763 L78.8858907,315.028763 L78.8858907,315.027733 C78.9847323,315.027733 79.0815147,315.028763 79.1803563,315.028763" id="Fill-196" fill="#64BFDD"></path>
                            <path d="M154.487357,393.641809 C134.53268,392.085054 118.75612,375.64852 118.239261,355.41791 C118.247498,355.077113 118.252646,354.737345 118.252646,354.395518 C118.252646,354.052661 118.247498,353.712893 118.239261,353.373125 C118.779801,332.201461 136.034867,315.185262 157.298165,315.028763 L157.592631,315.028763 C157.592631,315.027733 157.592631,315.027733 157.592631,315.027733 L157.592631,315.042147 L157.56998,315.042147 C157.56998,315.487964 157.577187,315.932751 157.592631,316.37445 L157.592631,392.416585 C157.580276,392.784153 157.573069,393.15069 157.571009,393.521346 C156.533173,393.521346 155.504602,393.56253 154.487357,393.641809" id="Fill-197" fill="#85C9E2"></path>
                            <path d="M157.592631,315.028763 L157.298165,315.028763 C157.395977,315.028763 157.493789,315.027733 157.592631,315.027733 C157.592631,315.028763 157.592631,315.028763 157.592631,315.028763" id="Fill-200" fill="#64BFDD"></path>
                            <path d="M118.239261,355.41791 C118.229994,355.077113 118.225876,354.737345 118.225876,354.395518 C118.225876,354.052661 118.229994,353.712893 118.239261,353.373125 C118.247498,353.712893 118.252646,354.052661 118.252646,354.395518 C118.252646,354.737345 118.247498,355.077113 118.239261,355.41791" id="Fill-201" fill="#75C4DF"></path>
                            <path d="M197.961187,354.396547 C197.621419,354.387281 197.281651,354.383162 196.938794,354.383162 C196.596967,354.383162 196.257199,354.387281 195.916401,354.396547 C175.090682,353.864244 158.283493,337.158984 157.592631,316.37445 L157.592631,315.042147 L236.306578,315.042147 C236.306578,336.440324 219.229633,353.852918 197.961187,354.396547" id="Fill-202" fill="#94CEE4"></path>
                            <path d="M157.592631,316.37445 C157.577187,315.932751 157.56998,315.487964 157.56998,315.042147 L157.592631,315.042147 L157.592631,316.37445" id="Fill-203" fill="#6EC2DE"></path>
                            <path d="M236.306578,393.748888 L236.306578,393.748888 C236.305549,393.713881 236.305549,393.676816 236.305549,393.64078 C236.306578,393.676816 236.306578,393.712852 236.306578,393.748888 M236.306578,393.532672 L157.592631,393.532672 L157.592631,392.416585 C158.283493,371.631021 175.090682,354.927821 195.916401,354.396547 C196.257199,354.404784 196.596967,354.408902 196.938794,354.408902 C197.281651,354.408902 197.621419,354.404784 197.961187,354.396547 C219.158591,354.937087 236.191263,372.231278 236.305549,393.532672" id="Fill-204" fill="#D0E9F0"></path>
                            <path d="M196.938794,354.408902 C196.596967,354.408902 196.257199,354.404784 195.916401,354.396547 C196.257199,354.387281 196.596967,354.383162 196.938794,354.383162 C197.281651,354.383162 197.621419,354.387281 197.961187,354.396547 C197.621419,354.404784 197.281651,354.408902 196.938794,354.408902" id="Fill-209" fill="#86C9E1"></path>
                            <path d="M239.424207,393.641809 C238.400785,393.561501 237.363978,393.521346 236.318934,393.521346 L236.318934,315.027733 L236.613399,315.028763 C257.883905,315.185262 275.14206,332.209697 275.673333,353.389598 C275.664067,353.724218 275.659949,354.059868 275.659949,354.395518 C275.659949,354.731167 275.664067,355.066817 275.673333,355.400407 C275.165741,375.640283 259.386091,392.085054 239.424207,393.641809" id="Fill-210" fill="#94CEE4"></path>
                            <path d="M236.613399,315.028763 L236.318934,315.028763 L236.318934,315.027733 C236.417775,315.027733 236.515587,315.028763 236.613399,315.028763" id="Fill-212" fill="#7DC6E0"></path>
                            <path d="M315.027733,393.762273 C293.283611,393.762273 275.659949,376.13758 275.659949,354.395518 C275.659949,332.652425 293.283611,315.027733 315.027733,315.027733 L315.027733,393.762273" id="Fill-213" fill="#64BFDD"></path>
                            <path d="M355.39423,354.396547 C355.054462,354.387281 354.714694,354.383162 354.372866,354.383162 C354.03001,354.383162 353.690242,354.387281 353.350474,354.396547 C332.514459,353.864244 315.702121,337.140452 315.027733,316.341503 L315.027733,315.042147 L393.738592,315.042147 C393.738592,336.440324 376.661647,353.852918 355.39423,354.396547" id="Fill-214" fill="#B3DBE8"></path>
                            <path d="M315.027733,316.341503 C315.013319,315.909071 315.006111,315.477668 315.006111,315.042147 L315.027733,315.042147 L315.027733,316.341503" id="Fill-215" fill="#64BFDD"></path>
                            <path d="M315.006111,393.748888 C315.006111,372.006825 332.630804,354.383162 354.372866,354.383162 C376.11287,354.383162 393.738592,372.006825 393.738592,393.748888 L315.006111,393.748888" id="Fill-216" fill="#64BFDD"></path>
                            <path d="M393.881706,78.8663283 C393.881706,57.1242657 411.506398,39.5006029 433.247431,39.5006029 C454.990524,39.5006029 472.615216,57.1242657 472.615216,78.8663283 L393.881706,78.8663283" id="Fill-263" fill="#64BFDD"></path>
                            <path d="M472.627571,78.8807427 L472.627571,0.146203196 C494.039132,0.146203196 511.456875,17.2416811 511.981971,38.527631 C511.973734,38.8560733 511.969616,39.1845157 511.969616,39.5150173 C511.969616,39.8444893 511.973734,40.1729317 511.981971,40.5013741 C511.456875,61.7852647 494.039132,78.8807427 472.627571,78.8807427" id="Fill-264" fill="#B3DBE8"></path>
                            <path d="M551.335341,78.8807427 C529.925839,78.8807427 512.506037,61.7852647 511.981971,40.5013741 C511.990208,40.1729317 511.993297,39.8444893 511.993297,39.5150173 C511.993297,39.1845157 511.990208,38.8560733 511.981971,38.527631 C512.506037,17.2416811 529.925839,0.146203196 551.335341,0.146203196 L551.335341,78.8807427" id="Fill-265" fill="#85C9E2"></path>
                            <path d="M511.981971,40.5013741 C511.973734,40.1729317 511.969616,39.8444893 511.969616,39.5150173 C511.969616,39.1845157 511.973734,38.8560733 511.981971,38.527631 C511.990208,38.8560733 511.993297,39.1845157 511.993297,39.5150173 C511.993297,39.8444893 511.990208,40.1729317 511.981971,40.5013741" id="Fill-266" fill="#75C4DF"></path>
                            <path d="M513.012601,118.234113 C512.665625,118.224846 512.31865,118.220728 511.969616,118.220728 C511.620581,118.220728 511.273606,118.224846 510.926631,118.234113 C489.802328,117.684306 472.818047,100.495135 472.601831,79.2915531 L472.601831,78.8807427 L551.335341,78.8807427 C551.335341,100.271712 534.27281,117.681218 513.012601,118.234113" id="Fill-267" fill="#D0E9F0"></path>
                            <path d="M551.335341,157.587483 L472.599772,157.587483 C472.60492,157.585424 472.609038,157.585424 472.614186,157.585424 C472.619334,157.585424 472.625512,157.585424 472.63066,157.585424 L472.62963,156.02558 C473.436837,135.352242 490.186369,118.773623 510.926631,118.234113 C511.273606,118.243379 511.620581,118.247498 511.969616,118.247498 C512.31865,118.247498 512.665625,118.243379 513.012601,118.234113 C534.27281,118.787008 551.335341,136.194455 551.335341,157.587483" id="Fill-268" fill="#B3DBE8"></path>
                            <path d="M511.969616,118.247498 C511.620581,118.247498 511.273606,118.243379 510.926631,118.234113 C511.273606,118.224846 511.620581,118.220728 511.969616,118.220728 C512.31865,118.220728 512.665625,118.224846 513.012601,118.234113 C512.665625,118.243379 512.31865,118.247498 511.969616,118.247498" id="Fill-269" fill="#9CD2E4"></path>
                            <path d="M472.599772,157.585424 C451.214981,157.577187 433.811652,140.515686 433.260816,119.257535 C433.269053,118.917767 433.273171,118.57594 433.273171,118.234113 C433.273171,117.892286 433.269053,117.552518 433.259787,117.21275 C433.785912,96.2923078 450.634286,79.4223123 471.55061,78.8663283 L472.601831,78.8663283 L472.601831,78.8807427 L472.599772,78.8807427 C472.599772,79.0176795 472.599772,79.1556459 472.601831,79.2915531 L472.62963,156.02558 C472.610068,156.543469 472.599772,157.064446 472.599772,157.587483" id="Fill-270" fill="#B3DBE8"></path>
                            <path d="M472.601831,78.8663283 L471.55061,78.8663283 C471.900674,78.8570619 472.249708,78.8529435 472.601831,78.8529435 L472.601831,78.8663283" id="Fill-271" fill="#64BFDD"></path>
                            <path d="M472.601831,79.2915531 C472.599772,79.1556459 472.599772,79.0176795 472.599772,78.8807427 L472.601831,79.2915531" id="Fill-272" fill="#9CD2E4"></path>
                            <path d="M472.614186,157.585424 C472.609038,157.585424 472.60492,157.585424 472.599772,157.585424 C472.599772,157.064446 472.610068,156.543469 472.62963,156.02558 L472.63066,157.585424 C472.625512,157.585424 472.619334,157.585424 472.614186,157.585424" id="Fill-273" fill="#8CCCE2"></path>
                            <path d="M434.252321,196.954238 C433.918731,196.946001 433.583081,196.941883 433.247431,196.941883 C432.911782,196.941883 432.576132,196.946001 432.242542,196.954238 C410.964829,196.421935 393.881706,179.006251 393.881706,157.600868 L393.921861,157.600868 L393.921861,157.616312 C394.295605,157.616312 394.668321,157.611164 395.040006,157.600868 L472.615216,157.600868 C472.615216,179.006251 455.532093,196.421935 434.252321,196.954238" id="Fill-274" fill="#B3DBE8"></path>
                            <path d="M472.615216,236.308638 L472.601831,236.308638 L472.601831,236.293194 C472.227057,236.293194 471.853312,236.298342 471.481626,236.308638 L393.881706,236.308638 C393.881706,214.902225 410.964829,197.487571 432.242542,196.954238 C432.576132,196.962475 432.911782,196.966593 433.247431,196.966593 C433.583081,196.966593 433.918731,196.962475 434.252321,196.954238 C455.532093,197.487571 472.615216,214.902225 472.615216,236.308638" id="Fill-275" fill="#85C9E2"></path>
                            <path d="M433.247431,196.966593 C432.911782,196.966593 432.576132,196.962475 432.242542,196.954238 C432.576132,196.946001 432.911782,196.941883 433.247431,196.941883 C433.583081,196.941883 433.918731,196.946001 434.252321,196.954238 C433.918731,196.962475 433.583081,196.966593 433.247431,196.966593" id="Fill-276" fill="#75C4DF"></path>
                            <path d="M472.627571,236.322022 L472.627571,157.587483 C494.039132,157.587483 511.456875,174.681931 511.981971,195.967881 C511.973734,196.296323 511.969616,196.624766 511.969616,196.955267 C511.969616,197.285769 511.973734,197.614211 511.981971,197.942654 C511.456875,219.227574 494.039132,236.322022 472.627571,236.322022" id="Fill-277" fill="#94CEE4"></path>
                            <path d="M551.335341,236.322022 C529.925839,236.322022 512.506037,219.227574 511.981971,197.942654 C511.990208,197.614211 511.993297,197.285769 511.993297,196.955267 C511.993297,196.624766 511.990208,196.296323 511.981971,195.967881 C512.506037,174.681931 529.925839,157.587483 551.335341,157.587483 L551.335341,236.322022" id="Fill-278" fill="#B3DBE8"></path>
                            <path d="M511.981971,197.942654 C511.973734,197.614211 511.969616,197.285769 511.969616,196.955267 C511.969616,196.624766 511.973734,196.296323 511.981971,195.967881 C511.990208,196.296323 511.993297,196.624766 511.993297,196.955267 C511.993297,197.285769 511.990208,197.614211 511.981971,197.942654" id="Fill-279" fill="#7DC6E0"></path>
                            <path d="M512.970387,275.675393 C512.637826,275.667156 512.304236,275.663037 511.969616,275.663037 C511.634996,275.663037 511.301405,275.667156 510.968845,275.675393 C489.82498,275.148237 472.818047,257.949799 472.601831,236.732833 L472.601831,236.322022 L551.335341,236.322022 C551.335341,257.726376 534.250159,275.145149 512.970387,275.675393" id="Fill-280" fill="#94CEE4"></path>
                            <path d="M472.599772,315.028763 C472.599772,293.2867 490.227553,275.663037 511.969616,275.663037 C533.711678,275.663037 551.335341,293.2867 551.335341,315.028763 L472.599772,315.028763" id="Fill-281" fill="#64BFDD"></path>
                            <path d="M395.011177,315.042147 L393.921861,315.042147 L393.892002,236.323052 C393.89818,236.323052 393.904357,236.323052 393.909505,236.323052 C415.302534,236.323052 432.71101,253.388672 433.259787,274.654029 C433.25155,274.993797 433.247431,275.333565 433.247431,275.675393 C433.247431,276.01722 433.25155,276.359047 433.260816,276.698815 C432.73675,297.605872 415.909998,314.467631 395.011177,315.042147" id="Fill-282" fill="#94CEE4"></path>
                            <path d="M472.599772,315.026703 C451.213951,315.020526 433.811652,297.957995 433.260816,276.698815 C433.269053,276.359047 433.273171,276.01722 433.273171,275.675393 C433.273171,275.333565 433.269053,274.993797 433.259787,274.654029 C433.785912,253.755209 450.595161,236.899628 471.481626,236.308638 L472.601831,236.308638 L472.601831,236.322022 L472.599772,236.322022 C472.599772,236.458959 472.599772,236.596926 472.601831,236.732833 L472.62963,313.46686 C472.610068,313.984748 472.599772,314.505726 472.599772,315.028763" id="Fill-283" fill="#D0E9F0"></path>
                            <path d="M472.601831,236.308638 L471.481626,236.308638 C471.853312,236.298342 472.227057,236.293194 472.601831,236.293194 L472.601831,236.308638" id="Fill-284" fill="#7CC6E0"></path>
                            <path d="M472.601831,236.732833 C472.599772,236.596926 472.599772,236.458959 472.599772,236.322022 L472.601831,236.732833" id="Fill-285" fill="#86C9E1"></path>
                            <path d="M472.616246,315.026703 C472.610068,315.026703 472.60492,315.026703 472.599772,315.026703 C472.599772,314.505726 472.610068,313.984748 472.62963,313.46686 L472.63066,315.026703 C472.626542,315.026703 472.619334,315.026703 472.616246,315.026703" id="Fill-286" fill="#64BFDD"></path>
                            <path d="M433.260816,276.698815 C433.25155,276.359047 433.247431,276.01722 433.247431,275.675393 C433.247431,275.333565 433.25155,274.993797 433.259787,274.654029 C433.269053,274.993797 433.273171,275.333565 433.273171,275.675393 C433.273171,276.01722 433.269053,276.359047 433.260816,276.698815" id="Fill-287" fill="#86C9E1"></path>
                            <path d="M434.269824,354.396547 C433.929027,354.387281 433.590288,354.383162 433.247431,354.383162 C432.904575,354.383162 432.565836,354.387281 432.225039,354.396547 C410.956592,353.852918 393.881706,336.440324 393.881706,315.042147 L393.921861,315.042147 L393.921861,315.057591 C394.285309,315.057591 394.649788,315.052443 395.011177,315.042147 L472.615216,315.042147 C472.615216,336.440324 455.5393,353.852918 434.269824,354.396547" id="Fill-288" fill="#B3DBE8"></path>
                            <path d="M393.921861,315.057591 L393.921861,315.042147 L395.011177,315.042147 C394.649788,315.052443 394.285309,315.057591 393.921861,315.057591" id="Fill-289" fill="#7DC6E0"></path>
                            <path d="M472.615216,393.748888 L472.615216,393.748888 C472.615216,393.713881 472.615216,393.676816 472.615216,393.64078 C472.615216,393.676816 472.615216,393.712852 472.615216,393.748888 M393.881706,393.748888 L393.881706,393.748888 C393.881706,393.712852 393.881706,393.676816 393.881706,393.64078 C393.881706,393.676816 393.881706,393.713881 393.881706,393.748888 M472.615216,393.532672 L393.881706,393.532672 C393.995992,372.231278 411.028664,354.937087 432.225039,354.396547 C432.565836,354.404784 432.904575,354.408902 433.247431,354.408902 C433.590288,354.408902 433.929027,354.404784 434.269824,354.396547 C455.468258,354.937087 472.50093,372.231278 472.615216,393.532672" id="Fill-290" fill="#94CEE4"></path>
                            <path d="M433.247431,354.408902 C432.904575,354.408902 432.565836,354.404784 432.225039,354.396547 C432.565836,354.387281 432.904575,354.383162 433.247431,354.383162 C433.590288,354.383162 433.929027,354.387281 434.269824,354.396547 C433.929027,354.404784 433.590288,354.408902 433.247431,354.408902" id="Fill-292" fill="#7DC6E0"></path>
                            <path d="M475.732845,393.641809 C474.708393,393.561501 473.671586,393.521346 472.627571,393.521346 L472.627571,315.027733 L472.921007,315.028763 C494.19872,315.185262 511.459964,332.219993 511.981971,353.408131 C511.973734,353.736574 511.969616,354.065016 511.969616,354.395518 C511.969616,354.726019 511.973734,355.054462 511.981971,355.382904 C511.482615,375.629987 495.699877,392.085054 475.732845,393.641809" id="Fill-293" fill="#B3DBE8"></path>
                            <path d="M472.921007,315.028763 L472.627571,315.028763 L472.627571,315.027733 C472.725383,315.027733 472.823195,315.028763 472.921007,315.028763" id="Fill-295" fill="#64BFDD"></path>
                            <path d="M551.335341,393.762273 L551.335341,393.521346 C550.291327,393.521346 549.25452,393.561501 548.231097,393.641809 C528.265095,392.085054 512.480297,375.629987 511.981971,355.382904 C511.990208,355.054462 511.993297,354.726019 511.993297,354.395518 C511.993297,354.065016 511.990208,353.736574 511.981971,353.408131 C512.503978,332.219993 529.767281,315.185262 551.041905,315.028763 L551.335341,315.028763 C551.335341,315.027733 551.335341,315.027733 551.335341,315.027733 L551.335341,393.762273" id="Fill-296" fill="#85C9E2"></path>
                            <path d="M511.981971,355.382904 C511.973734,355.054462 511.969616,354.726019 511.969616,354.395518 C511.969616,354.065016 511.973734,353.736574 511.981971,353.408131 C511.990208,353.736574 511.993297,354.065016 511.993297,354.395518 C511.993297,354.726019 511.990208,355.054462 511.981971,355.382904" id="Fill-299" fill="#75C4DF"></path>
                            <path d="M395.040006,157.600868 L393.921861,157.600868 L393.892002,78.8817723 C393.896121,78.8817723 393.903328,78.8817723 393.907446,78.8817723 C415.301504,78.8817723 432.71101,95.9473918 433.259787,117.21275 C433.25155,117.552518 433.247431,117.892286 433.247431,118.234113 C433.247431,118.57594 433.25155,118.917767 433.260816,119.257535 C432.73675,140.155326 415.924412,157.009877 395.040006,157.600868" id="Fill-305" fill="#E3666F"></path>
                            <path d="M433.260816,119.257535 C433.25155,118.917767 433.247431,118.57594 433.247431,118.234113 C433.247431,117.892286 433.25155,117.552518 433.259787,117.21275 C433.269053,117.552518 433.273171,117.892286 433.273171,118.234113 C433.273171,118.57594 433.269053,118.917767 433.260816,119.257535" id="Fill-306" fill="#D7646E"></path>
                            <path d="M393.921861,157.616312 L393.921861,157.600868 L395.040006,157.600868 C394.668321,157.611164 394.295605,157.616312 393.921861,157.616312" id="Fill-307" fill="#D7646E"></path>
                        </g>
                    </g>
                </g>
            </g>
        </g>
    </g>
</svg>