<?xml version="1.0" encoding="UTF-8"?>
<svg width="45px" height="35px" viewBox="0 0 45 35" version="1.1" xmlns="http://www.w3.org/2000/svg" xmlns:xlink="http://www.w3.org/1999/xlink">
    <title>18CD496C-C472-4E44-9EA2-E5B651B21C91</title>
    <g id="Page-1" stroke="none" stroke-width="1" fill="none" fill-rule="evenodd">
        <g id="Home_v2" transform="translate(-1217.000000, -3198.000000)" fill="#201F4C">
            <g id="Group-12" transform="translate(736.000000, 2705.000000)">
                <g id="Arrow-/-twist" transform="translate(481.000000, 493.000000)">
                    <path d="M20.7090692,3.26671476 C22.5486692,4.09036707 23.7718384,5.52831783 24.2467615,7.42549014 C24.884903,9.97553629 24.1135892,13.1499609 22.281743,15.5127517 C20.8317738,17.3837547 18.7812692,18.9752317 16.1817923,20.2484132 C14.6350938,18.0205393 13.4421646,15.2911855 12.801503,12.4998009 L12.801503,12.4999947 C12.3637984,10.5923547 11.9921954,7.00426245 14.4224446,4.40711168 C16.0061677,2.71425322 18.4742169,2.26646861 20.7090692,3.26671476 M43.4952968,23.7265947 C41.1295984,22.7808193 39.110303,22.0713424 36.9436845,21.6820993 C36.0899861,21.5297363 35.4508753,22.1469424 35.3279768,22.8325763 C35.1980999,23.5579486 35.6270815,24.1784501 36.348383,24.3081332 C37.5575953,24.5248532 38.7260999,24.8594316 39.7699615,25.2087424 C33.7221553,27.2499424 28.296983,27.5370286 23.6229646,26.0589516 C21.5166323,25.3930901 19.5977492,24.1557701 17.90838,22.3762624 C21.180503,20.6514193 25.0744846,17.694684 26.6601461,12.9654194 C27.4812784,10.5163671 27.4097492,7.92522552 26.4583523,5.66924399 C25.4813676,3.35258861 23.6311061,1.54516707 21.2481553,0.57981323 C19.0053553,-0.328937538 16.6154261,-0.165331384 14.5185923,1.04116707 C12.0865984,2.43976707 10.3185277,5.10883476 9.90447229,8.00644706 C9.45339229,11.1638132 10.2134631,14.666807 12.2284938,18.7156717 C12.6815123,19.626167 13.1740754,20.4940163 13.6982354,21.3060378 C13.3708292,21.426804 13.0478815,21.5396224 12.7323,21.6429424 C9.96766613,22.550724 5.80307537,23.4346624 1.66426615,22.4917947 C1.18682307,22.3828532 0.707247691,22.5276563 0.381392307,22.8789055 C0.0415799999,23.2454686 -0.0851953844,23.7828101 0.0582507691,24.2476532 C0.193555384,24.6855516 0.539376922,24.9978378 1.00712769,25.1042593 C5.35354614,26.0948132 10.4297954,25.5442901 15.354263,23.5562039 C16.5898384,25.0222624 17.9535461,26.2122839 19.4137892,27.0973855 C26.3077338,31.2778716 34.9400907,29.6171916 40.2726045,27.8725762 C39.5825122,29.519687 39.0186138,31.0964316 38.5601676,32.6578624 C38.3490691,33.3768378 38.7396691,34.0803055 39.4689184,34.2945055 C39.6090691,34.3357947 39.7486384,34.355567 39.8841368,34.355567 C40.4681953,34.355567 40.977623,33.9891978 41.1518907,33.3958347 C41.5733122,31.9609855 42.6216322,29.5439178 43.3869368,27.7787547 C44.1008722,26.1320316 44.3084814,25.6404378 44.3499645,25.3760316 C44.5438107,24.6878778 44.1976014,24.0067024 43.4952968,23.7265947" id="Fill-1"></path>
                </g>
            </g>
        </g>
    </g>
</svg>