<?xml version="1.0" encoding="UTF-8" standalone="no"?>
<svg
   xmlns:dc="http://purl.org/dc/elements/1.1/"
   xmlns:cc="http://creativecommons.org/ns#"
   xmlns:rdf="http://www.w3.org/1999/02/22-rdf-syntax-ns#"
   xmlns:svg="http://www.w3.org/2000/svg"
   xmlns="http://www.w3.org/2000/svg"
   xmlns:sodipodi="http://sodipodi.sourceforge.net/DTD/sodipodi-0.dtd"
   xmlns:inkscape="http://www.inkscape.org/namespaces/inkscape"
   width="20"
   height="20"
   viewBox="0 0 20 20"
   version="1.1"
   id="svg12"
   sodipodi:docname="ico-20-px-close.svg"
   inkscape:version="1.0.2 (1.0.2+r75+1)">
  <metadata
     id="metadata18">
    <rdf:RDF>
      <cc:Work
         rdf:about="">
        <dc:format>image/svg+xml</dc:format>
        <dc:type
           rdf:resource="http://purl.org/dc/dcmitype/StillImage" />
      </cc:Work>
    </rdf:RDF>
  </metadata>
  <defs
     id="defs16" />
  <sodipodi:namedview
     pagecolor="#ffffff"
     bordercolor="#666666"
     borderopacity="1"
     objecttolerance="10"
     gridtolerance="10"
     guidetolerance="10"
     inkscape:pageopacity="0"
     inkscape:pageshadow="2"
     inkscape:window-width="1853"
     inkscape:window-height="1145"
     id="namedview14"
     showgrid="false"
     inkscape:snap-text-baseline="true"
     inkscape:zoom="35.5"
     inkscape:cx="9.3661972"
     inkscape:cy="10.028169"
     inkscape:window-x="67"
     inkscape:window-y="27"
     inkscape:window-maximized="1"
     inkscape:current-layer="svg12" />
  <g
     fill="none"
     fill-rule="evenodd"
     id="g10"
     style="stroke:none;opacity:1;fill-opacity:1;fill:#ffffff">
    <g
       fill="#8B8B8B"
       id="g8"
       style="stroke:none;fill-opacity:1;fill:#ffffff">
      <g
         id="g6"
         style="stroke:none;fill-opacity:1;fill:#ffffff">
        <g
           id="g4"
           style="stroke:none;fill-opacity:1;fill:#ffffff">
          <path
             d="M9.9 8l5.7 5.7c.533.533.533 1.368 0 1.9-.532.533-1.367.533-1.9 0L8 9.9l-5.7 5.7c-.533.533-1.368.533-1.9 0-.533-.532-.533-1.367 0-1.9L6.1 8 .4 2.3C-.133 1.767-.133.932.4.4c.532-.533 1.367-.533 1.9 0L8 6.1 13.7.4c.533-.533 1.368-.533 1.9 0 .533.532.533 1.367 0 1.9L9.9 8z"
             transform="translate(-322 -597) translate(322 597) translate(2 2)"
             id="path2"
             style="stroke:none;fill-opacity:1;fill:#ffffff" />
        </g>
      </g>
    </g>
  </g>
</svg>
