<svg xmlns="http://www.w3.org/2000/svg" width="20" height="20" viewBox="0 0 20 20">
    <g fill="none" fill-rule="evenodd">
        <g fill="#63BAE9">
            <g>
                <g>
                    <g>
                        <path d="M11.457 15.304V7.348c0-.457.37-.848.847-.848.479 0 .848.37.848.848v7.956c0 .457-.37.848-.848.848s-.847-.391-.847-.848zm-6.11.826c.457 0 .849-.37.849-.847V7.348c0-.457-.37-.848-.848-.848s-.848.37-.848.848v7.956c0 .457.37.826.848.826zM17.479 2.826v1.696h-1.282v12.217c0 1.718-1.37 3.065-3.13 3.065H4.673c-1.783 0-3.174-1.347-3.174-3.065V4.522H.196V2.826h4.347V1.804c0-.956.783-1.739 1.74-1.739h5.174c.956 0 1.739.783 1.739 1.74v1.021h4.282zM6.196 1.804v1.022h5.26V1.804c0-.021-.021-.043-.043-.043H6.239l-.043.043zM4.63 18.087h8.413c.848 0 1.457-.565 1.457-1.348V4.522H3.174v12.217c0 .783.609 1.348 1.456 1.348zm4.174-1.957h.022c.457 0 .848-.37.848-.847V7.348c0-.457-.37-.848-.848-.848h-.022c-.456 0-.847.37-.847.848v7.956c.021.457.39.826.847.826z" transform="translate(-1034 -872) translate(348 834) translate(686 38) translate(1.391)"/>
                    </g>
                </g>
            </g>
        </g>
    </g>
</svg>
