<?xml version="1.0" encoding="UTF-8"?>
<svg width="20px" height="20px" viewBox="0 0 20 20" version="1.1" xmlns="http://www.w3.org/2000/svg" xmlns:xlink="http://www.w3.org/1999/xlink">
    <title>EBC3AC58-4D05-4C41-A0CE-9BB4884A6BB7</title>
    <g id="Page-1" stroke="none" stroke-width="1" fill="none" fill-rule="evenodd">
        <g id="Dashboard_client" transform="translate(-558.000000, -1170.000000)" fill="#DE1A46">
            <g id="Group-9-Copy" transform="translate(542.000000, 1109.000000)">
                <g id="ico-/-20px-/-Credit-card" transform="translate(16.000000, 61.000000)">
                    <g id="noun_credit-cart_3266997-(1)" transform="translate(1.000000, 3.111111)">
                        <path d="M2.01049858,0.888888889 C0.907882402,0.888888889 0,1.77680093 0,2.85516787 L0,4.50340242 L0,6.63514816 L0,11.922612 C0,13.0009768 0.907882402,13.8888889 2.01049858,13.8888889 L15.9949907,13.8888889 C17.097609,13.8888889 18,13.0009768 18,11.922612 L18,6.63514816 L18,4.50340242 L18,2.85516787 C18,1.77680093 17.097609,0.888888889 15.9949907,0.888888889 L2.01049858,0.888888889 Z M2.01049858,1.9891459 L15.9949907,1.9891459 C16.493821,1.9891459 16.8749993,2.3673111 16.8749993,2.85516787 L16.8749993,3.95542279 L1.12500066,3.95542279 L1.12500066,2.85516787 C1.12500066,2.3673111 1.51166829,1.9891459 2.01049858,1.9891459 Z M1.12500066,5.0556798 L16.8749993,5.0556798 L16.8749993,6.08717062 L1.12500066,6.08717062 L1.12500066,5.0556798 Z M1.12500066,7.18742555 L16.8749993,7.18742555 L16.8749993,11.922612 C16.8749993,12.4104667 16.493821,12.787559 15.9949907,12.787559 L2.01049858,12.787559 C1.51166829,12.787559 1.12500066,12.4104667 1.12500066,11.922612 L1.12500066,7.18742555 Z M2.7279055,8.71102307 C2.42239388,8.7330609 2.19087588,8.98980627 2.2067111,9.28900944 C2.22254632,9.58821261 2.47993078,9.82020867 2.78613621,9.81128007 L6.71485079,9.81128007 C6.91878264,9.81569756 7.1091865,9.71182054 7.21247865,9.53979345 C7.3157708,9.36776636 7.3157708,9.15453678 7.21247865,8.98250969 C7.1091865,8.8104826 6.91878264,8.70660558 6.71485079,8.71102307 L2.78613621,8.71102307 C2.76673899,8.71003992 2.74730272,8.71003992 2.7279055,8.71102307 L2.7279055,8.71102307 Z M2.78613621,10.3592597 C2.58219217,10.3548233 2.3917685,10.4586958 2.28846447,10.6307304 C2.18516045,10.802765 2.18516045,11.0160093 2.28846447,11.1880439 C2.3917685,11.3600785 2.58219217,11.4639511 2.78613621,11.4595146 L4.4637482,11.4595146 C4.66769223,11.4639511 4.85811591,11.3600785 4.96141993,11.1880439 C5.06472396,11.0160093 5.06472396,10.802765 4.96141993,10.6307304 C4.85811591,10.4586958 4.66769223,10.3548233 4.4637482,10.3592597 L2.78613621,10.3592597 Z" id="Shape"></path>
                    </g>
                </g>
            </g>
        </g>
    </g>
</svg>