<svg xmlns="http://www.w3.org/2000/svg" width="20" height="20" viewBox="0 0 20 20">
    <g fill="none" fill-rule="evenodd">
        <g fill="#8B8B8B">
            <g>
                <g>
                    <path d="M9.9 8l5.7 5.7c.533.533.533 1.368 0 1.9-.532.533-1.367.533-1.9 0L8 9.9l-5.7 5.7c-.533.533-1.368.533-1.9 0-.533-.532-.533-1.367 0-1.9L6.1 8 .4 2.3C-.133 1.767-.133.932.4.4c.532-.533 1.367-.533 1.9 0L8 6.1 13.7.4c.533-.533 1.368-.533 1.9 0 .533.532.533 1.367 0 1.9L9.9 8z" transform="translate(-322 -597) translate(322 597) translate(2 2)"/>
                </g>
            </g>
        </g>
    </g>
</svg>
