<?xml version="1.0" encoding="UTF-8"?>
<svg width="20px" height="20px" viewBox="0 0 20 20" version="1.1" xmlns="http://www.w3.org/2000/svg" xmlns:xlink="http://www.w3.org/1999/xlink">
    <title>B7C3CF39-173A-4494-8EB5-E7D211636575</title>
    <g id="Page-1" stroke="none" stroke-width="1" fill="none" fill-rule="evenodd">
        <g id="Fiche_metier_veterinaire" transform="translate(-177.000000, -8603.000000)" fill="#DE1A46">
            <g id="Group-10" transform="translate(154.000000, 1340.000000)">
                <g id="CTA-/-ico-/-Filaire-/-Blue" transform="translate(0.000000, 7251.000000)">
                    <g id="Group" transform="translate(23.000000, 12.000000)">
                        <g id="Shape-4" transform="translate(1.000000, 1.000000)">
                            <path d="M1.38189323,17.243 C1.08111347,17.243 0.800493692,17.139799 0.570633873,16.9444803 C0.133954217,16.5734655 -0.0626056281,16.08962 0.0173143089,15.5819729 C0.0785142607,15.1913354 0.262474116,14.016334 4.25505097,12.3427702 C5.63186988,10.0187495 6.93488886,7.14765452 7.6475083,4.8725089 C6.55580916,3.14552765 6.21866942,1.90529894 6.61682911,1.08677705 C6.78710897,0.7370202 7.16600868,0.307318923 8.00264802,0.247360605 C8.04404798,0.244453535 8.08436795,0.243 8.12378792,0.243 C8.57360757,0.243 8.96312726,0.435048309 9.22034706,0.783715011 C9.54038681,1.2175952 9.87302654,2.08844434 9.1611271,4.6444856 C10.3649662,6.40108262 12.1883647,8.40986795 13.8380634,9.79599524 C14.355563,9.74239614 14.8282426,9.71532405 15.2469223,9.71532405 C16.5420213,9.71532405 17.3338407,9.96496868 17.7388403,10.500778 C17.9906601,10.8343643 18.0633801,11.2613402 17.9435002,11.7026697 C17.7572003,12.3869213 17.2334007,12.7953647 16.5414813,12.7953647 L16.5413013,12.7953647 C15.7712619,12.7953647 14.7225827,12.2768161 13.4219037,11.2535274 C10.9719257,11.5802094 7.73984822,12.4488783 5.20077022,13.4648992 C2.88669205,17.2428183 1.75719294,17.243 1.38189323,17.243 Z M1.38639323,15.7932806 C1.39143323,15.801275 1.40187322,15.8161737 1.4220332,15.8368866 C1.59861306,15.7872847 2.02359273,15.496396 2.6915722,14.6624303 C1.71381297,15.2447528 1.40871321,15.6491989 1.38639323,15.7932806 Z M8.63426752,6.28807027 C8.03414799,7.96799332 7.19498865,9.84868589 6.27554938,11.5776657 C8.1545679,10.9324779 10.2200663,10.3870389 12.0371648,10.0578132 C10.8344058,8.93368562 9.61382675,7.58189809 8.63426752,6.28807027 Z M15.7455219,11.1312488 C16.1103816,11.3180281 16.3771414,11.3968823 16.5414813,11.3968823 C16.5611013,11.3967006 16.5756813,11.3956105 16.5854013,11.3941569 C16.5909812,11.382347 16.5990812,11.3627243 16.6073612,11.3325634 C16.6077212,11.3312916 16.6079012,11.3300197 16.6082612,11.3287479 C16.5335613,11.2816897 16.3051415,11.1734013 15.7455219,11.1312488 Z M8.12072792,1.64166403 C8.11424793,1.64166403 8.10776793,1.64202741 8.10074794,1.64257249 C7.91516809,1.655836 7.86206813,1.70089558 7.86134813,1.70125896 C7.81598816,1.76775819 7.79438818,2.11951365 8.13494791,2.88043921 C8.26004781,2.04084107 8.15798789,1.72360706 8.12072792,1.64166403 Z" id="Shape"></path>
                        </g>
                    </g>
                </g>
            </g>
        </g>
    </g>
</svg>