<svg xmlns="http://www.w3.org/2000/svg" width="20" height="20" viewBox="0 0 20 20">
    <g fill="none" fill-rule="evenodd">
        <g fill="#63BAE9">
            <g>
                <g>
                    <g>
                        <g>
                            <path d="M17.397 2c1.37 0 2.505 1.126 2.597 2.533l.006.185v10.564c0 1.43-1.077 2.615-2.425 2.712l-.178.006H2.603c-1.37 0-2.505-1.126-2.597-2.533L0 15.282V4.718c0-1.43 1.077-2.615 2.425-2.712L2.603 2h14.794zm0 1.544H2.603c-.575 0-1.053.465-1.114 1.048l-.006.126v10.564c0 .604.445 1.103 1 1.167l.12.007h14.794c.575 0 1.053-.465 1.114-1.048l.006-.126V4.718c0-.647-.51-1.174-1.12-1.174zM2.472 4.757c.24-.307.657-.368.956-.164l.086.07L10 10.395l6.489-5.735c.26-.224.601-.244.862-.07l.094.073.084.093c.24.305.234.713-.002.99l-.088.088-4.576 4.044 4.604 4.516c.242.228.302.59.167.883l-.06.106-.078.097c-.144.15-.348.245-.533.245-.153 0-.297-.047-.419-.139l-.086-.077-4.722-4.614-1.262 1.108c-.088.074-.178.125-.273.154l-.098.022-.102.007c-.149 0-.292-.043-.401-.12l-1.335-1.17-4.717 4.635c-.085.088-.182.149-.288.184l-.108.026-.113.009c-.202 0-.382-.087-.538-.25-.242-.281-.26-.707-.047-.99l.079-.088 4.604-4.544-4.573-4.042c-.257-.22-.332-.581-.215-.875l.053-.107.07-.098z" transform="translate(-1030 -1065) translate(930 887) translate(22 164) translate(64) translate(14 14)"/>
                        </g>
                    </g>
                </g>
            </g>
        </g>
    </g>
</svg>
