<?xml version="1.0" encoding="UTF-8"?>
<svg width="20px" height="20px" viewBox="0 0 20 20" version="1.1" xmlns="http://www.w3.org/2000/svg" xmlns:xlink="http://www.w3.org/1999/xlink">
    <title>74701F08-6EC5-4368-8AA3-E760709E9CAC</title>
    <g id="Page-1" stroke="none" stroke-width="1" fill="none" fill-rule="evenodd">
        <g id="Job_offer" transform="translate(-951.000000, -623.000000)" fill="#63BAE9">
            <g id="Group" transform="translate(930.000000, 424.000000)">
                <g id="Group-24-Copy-2" transform="translate(21.000000, 197.000000)">
                    <g id="ico-/-20px-/-Contrat" transform="translate(0.000000, 2.000000)">
                        <g id="Combined-Shape-5" transform="translate(1.000000, 1.000000)">
                            <path d="M12,0 C13.2426407,0 14.25,0.992759903 14.25,2.2173913 L14.25,2.2173913 L14.25,11.826087 L17.25,11.826087 C17.6642136,11.826087 18,12.1570069 18,12.5652174 L18,12.5652174 L18,13.3043478 C18,14.2844957 17.6049118,15.2244993 16.9016504,15.9175685 C16.198389,16.6106378 15.2445618,17 14.25,17 L14.25,17 L3.75,17 C1.67893219,17 0,15.3454002 0,13.3043478 L0,13.3043478 L0,2.2173913 C0,0.992759903 1.00735931,0 2.25,0 L2.25,0 Z M16.5,13.3043478 L7.5,13.3043478 C7.49748535,14.1065701 7.22736153,14.8857183 6.73125,15.5217391 L6.73125,15.5217391 L14.25,15.5217391 C15.4926407,15.5217391 16.5,14.5289792 16.5,13.3043478 L16.5,13.3043478 Z M12,1.47826087 L2.25,1.47826087 C1.83578644,1.47826087 1.5,1.80918084 1.5,2.2173913 L1.5,2.2173913 L1.5,13.3043478 C1.5,14.5289792 2.50735933,15.5217391 3.75,15.5217391 C4.99264067,15.5217391 6,14.5289792 6,13.3043478 L6,13.3043478 L6,12.5652174 C6,12.1570069 6.33578644,11.826087 6.75,11.826087 L6.75,11.826087 L12.75,11.826087 L12.75,2.2173913 C12.75,1.80918084 12.4142136,1.47826087 12,1.47826087 L12,1.47826087 Z M10.5,8.86956522 C10.9142136,8.86956522 11.25,9.20048518 11.25,9.60869565 C11.25,10.0169061 10.9142136,10.3478261 10.5,10.3478261 L10.5,10.3478261 L3.75,10.3478261 C3.33578644,10.3478261 3,10.0169061 3,9.60869565 C3,9.20048518 3.33578644,8.86956522 3.75,8.86956522 L3.75,8.86956522 Z M10.5,5.91304348 C10.9142136,5.91304348 11.25,6.24396345 11.25,6.65217391 C11.25,7.06038438 10.9142136,7.39130435 10.5,7.39130435 L10.5,7.39130435 L3.75,7.39130435 C3.33578644,7.39130435 3,7.06038438 3,6.65217391 C3,6.24396345 3.33578644,5.91304348 3.75,5.91304348 L3.75,5.91304348 Z M10.5,2.95652174 C10.9142136,2.95652174 11.25,3.28744171 11.25,3.69565217 C11.25,4.10386264 10.9142136,4.43478261 10.5,4.43478261 L10.5,4.43478261 L3.75,4.43478261 C3.33578644,4.43478261 3,4.10386264 3,3.69565217 C3,3.28744171 3.33578644,2.95652174 3.75,2.95652174 L3.75,2.95652174 Z" id="Combined-Shape"></path>
                        </g>
                    </g>
                </g>
            </g>
        </g>
    </g>
</svg>