<svg xmlns="http://www.w3.org/2000/svg" width="20" height="20" viewBox="0 0 20 20">
    <g fill="none" fill-rule="evenodd">
        <g fill="#63BAE9">
            <g>
                <g>
                    <g>
                        <path d="M.877 2.619l-.079.1c-.697.93-.98 2.393-.679 3.51l.01.018c.028.148.09.396.201.732.177.54.424 1.146.755 1.809.932 1.867 2.339 3.831 4.314 5.806 1.976 1.975 3.941 3.382 5.809 4.313.663.33 1.27.578 1.809.755l.109.035.198.06c.092.026.173.048.244.066l.123.028-.068-.022c1.162.398 2.79.075 3.756-.714l1.747-1.43c1.16-.949 1.165-2.575.015-3.533l-2.589-2.156-.085-.068c-.783-.586-1.97-.63-2.787-.086l-1.178.786.044.005c-.198-.02-.422-.058-.664-.116-.7-.166-1.401-.463-2.053-.92-.273-.192-.533-.41-.777-.654-.245-.244-.462-.504-.654-.777-.458-.651-.755-1.352-.921-2.052l-.032-.143c-.03-.14-.053-.274-.07-.399l-.008-.078.785-1.178c.567-.85.5-2.087-.153-2.87L5.842.857C4.883-.292 3.254-.285 2.307.873L.877 2.619zm3.567-.597l2.157 2.587c.138.166.157.52.038.699L5.68 6.745c-.1.15-.154.328-.153.509.002.28.048.724.18 1.28.217.913.603 1.825 1.203 2.678.252.358.536.698.856 1.017.319.32.66.604 1.017.855.853.6 1.765.986 2.678 1.202.557.132 1 .179 1.281.18.181.001.359-.052.51-.152l1.437-.959c.176-.117.537-.097.699.038l2.588 2.156c.274.228.273.504-.002.73l-1.747 1.428c-.462.378-1.36.571-1.923.43l-.154-.047-.168-.038c-.092-.023-.226-.061-.4-.118-.455-.15-.98-.364-1.562-.654-1.694-.845-3.499-2.136-5.334-3.971-1.836-1.836-3.129-3.64-3.973-5.333-.29-.582-.505-1.107-.654-1.562l-.051-.16c-.037-.123-.063-.217-.078-.281l-.025-.116-.015-.052c-.185-.586.002-1.554.395-2.035l1.43-1.746c.223-.273.502-.275.73-.002z" transform="translate(-969 -871) translate(930 481) translate(16 378) translate(23 12)"/>
                    </g>
                </g>
            </g>
        </g>
    </g>
</svg>
