<?xml version="1.0" encoding="UTF-8"?>
<svg width="21px" height="21px" viewBox="0 0 21 21" version="1.1" xmlns="http://www.w3.org/2000/svg" xmlns:xlink="http://www.w3.org/1999/xlink">
    <title>19DDA190-D331-47FD-9F69-D2A0FCCDDDDD</title>
    <g id="Page-1" stroke="none" stroke-width="1" fill="none" fill-rule="evenodd">
        <g id="Checkout_1_panier_hover" transform="translate(-1359.000000, -40.000000)" fill="#DE1A46">
            <g id="Group-7" transform="translate(0.000000, 0.349650)">
                <g id="Combined-Shape-3" transform="translate(1359.440559, 40.400000)">
                    <path d="M6.63699936,16.0681818 C7.77457253,16.0681818 8.69675779,16.9931208 8.69675779,18.1340909 C8.69675779,19.275061 7.77457253,20.2 6.63699936,20.2 C5.4994262,20.2 4.57724094,19.275061 4.57724094,18.1340909 C4.57724094,16.9931208 5.4994262,16.0681818 6.63699936,16.0681818 Z M15.7914812,16.0681818 C16.9290544,16.0681818 17.8512397,16.9931208 17.8512397,18.1340909 C17.8512397,19.275061 16.9290544,20.2 15.7914812,20.2 C14.6539081,20.2 13.7317228,19.275061 13.7317228,18.1340909 C13.7317228,16.9931208 14.6539081,16.0681818 15.7914812,16.0681818 Z M3.66179275,-3.88053226e-14 C4.0691438,-3.88053226e-14 4.4241087,0.269301214 4.5388918,0.655114725 L4.55755315,0.728782835 L5.272,4.131 L17.8530247,4.13181818 C19.0646298,4.13181818 20.0542278,5.07426268 20.1345908,6.27112898 L20.1398601,6.42862828 L20.1398601,9.9534479 C20.1398601,11.1502482 19.2343374,12.2680958 18.0647334,12.5137949 L18.0647334,12.5137949 L7.94314377,14.64004 C6.70171509,14.9008273 5.48981331,14.1032754 5.23518659,12.8551869 L5.23518659,12.8551869 L5.232,12.842 L2.91936427,1.83636364 L0.915448188,1.83636364 C0.432841391,1.83636364 0.0374577955,1.46180156 0.00251095374,0.986706804 L-5.22198658e-14,0.918181818 C-5.22198658e-14,0.434133903 0.373446923,0.0375696486 0.847127217,0.00251845173 L0.915448188,-3.88053226e-14 L3.66179275,-3.88053226e-14 Z M17.8530247,5.96818182 L5.69866497,5.96818182 L6.989,12.298 L7.026,12.474 L7.02891595,12.4870534 C7.07439192,12.7099602 7.26811983,12.8588946 7.48545293,12.8525097 L7.56781588,12.8426759 L17.6894055,10.7164307 C18.0109942,10.6488745 18.3089638,10.2810377 18.3089638,9.9534479 L18.3089638,9.9534479 L18.3089638,6.42862828 C18.3089638,6.17196225 18.1059034,5.96818182 17.8530247,5.96818182 L17.8530247,5.96818182 Z" id="Combined-Shape"></path>
                </g>
            </g>
        </g>
    </g>
</svg>