<?xml version="1.0" encoding="UTF-8"?>
<svg width="20px" height="20px" viewBox="0 0 20 20" version="1.1" xmlns="http://www.w3.org/2000/svg" xmlns:xlink="http://www.w3.org/1999/xlink">
    <title>7D242783-C4C7-4B7D-B8B5-F1AACABF2B06</title>
    <g id="Page-1" stroke="none" stroke-width="1" fill="none" fill-rule="evenodd">
        <g id="Home_v2" transform="translate(-1256.000000, -40.000000)" fill="#63BAE9">
            <g id="Combined-Shape-4" transform="translate(1256.000000, 40.000000)">
                <path d="M8.18181818,1.61486985e-15 C12.7005116,1.61486985e-15 16.3636364,3.66312477 16.3636364,8.18181818 C16.3636364,10.1134201 15.6942741,11.8886842 14.5748516,13.2883082 L19.7337334,18.4480847 C20.0887555,18.8031068 20.0887555,19.3787114 19.7337334,19.7337334 C19.3973967,20.0700701 18.8630857,20.0877721 18.5059096,19.7868392 L18.4480847,19.7337334 L13.2883082,14.5748516 C11.8886842,15.6942741 10.1134201,16.3636364 8.18181818,16.3636364 C3.66312477,16.3636364 0,12.7005116 0,8.18181818 C0,3.66312477 3.66312477,1.61486985e-15 8.18181818,1.61486985e-15 Z M8.18181818,1.81818182 C4.66727886,1.81818182 1.81818182,4.66727886 1.81818182,8.18181818 C1.81818182,11.6963575 4.66727886,14.5454545 8.18181818,14.5454545 C11.6963575,14.5454545 14.5454545,11.6963575 14.5454545,8.18181818 C14.5454545,4.66727886 11.6963575,1.81818182 8.18181818,1.81818182 Z" id="Combined-Shape"></path>
            </g>
        </g>
    </g>
</svg>