<?xml version="1.0" encoding="UTF-8"?>
<svg width="32px" height="32px" viewBox="0 0 32 32" version="1.1" xmlns="http://www.w3.org/2000/svg" xmlns:xlink="http://www.w3.org/1999/xlink">
    <title>B782792C-B6A7-4E79-9D36-A70F6CEB0F71</title>
    <g id="Page-1" stroke="none" stroke-width="1" fill="none" fill-rule="evenodd">
        <g id="Home_v2" transform="translate(-752.000000, -4844.000000)" fill="#FFFFFF">
            <g id="Group-28" transform="translate(154.000000, 4665.000000)">
                <g id="Group-44" transform="translate(582.000000, 53.000000)">
                    <g id="Group-43-Copy-2" transform="translate(0.000000, 100.000000)">
                        <g id="ico/-Charte-/-Consultation" transform="translate(16.000000, 26.000000)">
                            <path d="M3.101952,27.573184 C2.074112,27.573184 1.237632,26.736704 1.237632,25.708864 C1.237632,24.680384 2.074112,23.845184 3.101952,23.845184 C4.129152,23.845184 4.966272,24.680384 4.966272,25.708864 C4.966272,26.736704 4.129152,27.573184 3.101952,27.573184 M14.840832,1.237824 C15.355392,1.237824 15.788032,1.623104 15.850112,2.135104 L15.966592,3.153984 C16.034432,3.709504 15.632512,4.215104 15.076992,4.280384 C15.036032,4.284224 14.998272,4.286784 14.958592,4.286784 C14.728832,4.286784 14.510592,4.211264 14.328832,4.068544 C14.114432,3.898304 13.978752,3.656384 13.948672,3.390144 L13.829632,2.370624 C13.766272,1.815104 14.166272,1.309504 14.722432,1.244224 C14.761472,1.238464 14.801152,1.237824 14.840832,1.237824 M19.694592,22.845504 L19.694592,22.078144 C20.001792,22.102464 20.307072,22.115264 20.604672,22.115264 C21.019392,22.115264 21.441152,22.091584 21.863552,22.043584 L21.863552,22.846144 C21.863552,23.271744 21.516672,23.618624 21.090432,23.618624 L20.467712,23.618624 C20.041472,23.618624 19.694592,23.271744 19.694592,22.845504 M27.548672,2.403264 L27.430912,3.421504 C27.399552,3.689024 27.263872,3.929664 27.049472,4.098624 C26.867072,4.243264 26.648192,4.320064 26.418432,4.320064 C26.378752,4.320064 26.340992,4.316864 26.302592,4.313664 C25.745792,4.248384 25.345792,3.741504 25.410432,3.185344 L25.529472,2.167744 C25.590272,1.655744 26.022912,1.269184 26.537472,1.269184 C26.577152,1.269184 26.618112,1.271744 26.657792,1.277504 C27.211392,1.340864 27.613312,1.847104 27.548672,2.403264 M28.698752,3.217984 L28.777472,2.547264 C28.921472,1.313344 28.034432,0.190784 26.803072,0.047424 C26.712832,0.037184 26.623232,0.031424 26.534912,0.031424 C25.395072,0.031424 24.433792,0.887104 24.301312,2.025024 L24.183552,3.041984 C24.114432,3.639104 24.281472,4.228544 24.654592,4.700224 C25.027072,5.173824 25.563392,5.472704 26.158592,5.542464 C26.246272,5.552064 26.335232,5.555904 26.422912,5.555904 C26.931712,5.555904 27.412992,5.388224 27.818112,5.068864 C27.989632,4.932544 28.140032,4.772544 28.265472,4.587584 C31.525632,8.516544 31.274112,14.335424 27.640832,17.970624 C25.763712,19.846464 23.265152,20.880064 20.604672,20.880064 C17.944832,20.880064 15.445632,19.846464 13.568512,17.970624 C9.867392,14.270144 9.665792,8.396864 13.051392,4.457664 C13.188352,4.682944 13.358592,4.876224 13.563392,5.037504 C13.966592,5.356864 14.447872,5.525184 14.956672,5.525184 C15.045632,5.525184 15.132032,5.520704 15.219712,5.511104 C15.817472,5.440064 16.352512,5.142464 16.726272,4.668864 C17.098752,4.197184 17.267072,3.607104 17.197952,3.009984 L17.078272,1.993664 C16.946432,0.856384 15.985792,6.4e-05 14.844032,6.4e-05 C14.755072,6.4e-05 14.667392,0.004544 14.578432,0.015424 C13.343872,0.159424 12.459392,1.281344 12.602112,2.515904 L12.664832,3.054784 C8.331392,7.418304 8.341632,14.492864 12.694272,18.844864 C14.274432,20.426304 16.264192,21.482304 18.456832,21.907904 L18.456832,22.846144 C18.456832,23.838784 19.183872,24.669504 20.148352,24.823104 L20.148352,26.782144 C20.148352,28.876224 18.443392,30.580544 16.349312,30.580544 C14.255872,30.580544 12.552192,28.876224 12.552192,26.782144 L12.552192,23.020224 C12.552192,20.243264 10.293632,17.984064 7.517952,17.984064 C4.849152,17.984064 2.680192,20.028224 2.500352,22.667584 C1.062272,22.953024 -0.000128,24.229184 -0.000128,25.708864 C-0.000128,27.420224 1.391872,28.810944 3.101952,28.810944 C4.810752,28.810944 6.204032,27.420224 6.204032,25.708864 C6.204032,24.244544 5.158912,22.976064 3.740032,22.677824 C3.913472,20.724544 5.536512,19.223744 7.517952,19.223744 C9.611392,19.223744 11.314432,20.926144 11.314432,23.020224 L11.314432,26.782144 C11.314432,29.558464 13.573632,31.818304 16.349312,31.818304 C19.125632,31.818304 21.384832,29.558464 21.384832,26.782144 L21.384832,24.828224 C22.362752,24.686784 23.101312,23.854144 23.101312,22.845504 L23.101312,21.833024 C25.155072,21.367104 27.023232,20.334784 28.515072,18.844864 C32.788992,14.570944 32.863232,7.584064 28.698752,3.217984" id="Fill-1"></path>
                        </g>
                    </g>
                </g>
            </g>
        </g>
    </g>
</svg>