<?xml version="1.0" encoding="UTF-8"?>
<svg width="32px" height="32px" viewBox="0 0 32 32" version="1.1" xmlns="http://www.w3.org/2000/svg" xmlns:xlink="http://www.w3.org/1999/xlink">
    <title>B4D81F6A-D0B8-4CCB-B830-3DD15E642F54</title>
    <g id="Page-1" stroke="none" stroke-width="1" fill="none" fill-rule="evenodd">
        <g id="Home_v2" transform="translate(-1043.000000, -4844.000000)" fill="#FFFFFF">
            <g id="Group-28" transform="translate(154.000000, 4665.000000)">
                <g id="Group-44" transform="translate(582.000000, 53.000000)">
                    <g id="Group-43-Copy-3" transform="translate(291.000000, 100.000000)">
                        <g id="ico/-Charte-/-Imagerie" transform="translate(16.000000, 26.000000)">
                            <g id="Combined-Shape-2" transform="translate(0.000000, 4.000000)">
                                <path d="M8.91287737,0.387096774 C12.3126569,0.387096774 12.8531707,0.565811852 14.2387878,5.0541258 L14.2387878,5.0541258 L30.6601981,5.0541258 C30.8481455,5.0541258 31,5.20501176 31,5.39068412 L31,5.39068412 L31,19.8248617 C31,20.0109689 30.8481455,20.1609852 30.6601981,20.1609852 L30.6601981,20.1609852 L27.7767238,20.1609852 C27.7384301,20.3710081 27.6785686,20.8532344 27.6785686,21.8581262 C27.6785686,24.3570935 26.4157556,24.3623115 24.5050303,24.3705732 C24.1938386,24.3718777 23.857558,24.3731822 23.4939876,24.3844878 C23.442049,24.3857923 23.3896702,24.3870968 23.3403725,24.3870968 C22.6568073,24.3870968 22.2311746,24.2353411 22.0410264,23.9253074 C21.9595972,23.7926843 21.8561601,23.5126539 22.0766792,23.1269598 C22.3962338,22.5677686 23.3764654,21.9255249 24.2893529,21.7946411 L24.2893529,21.7946411 L24.3038781,21.5985328 C24.3245655,21.3058923 24.3496545,20.9493318 24.3646199,20.1609852 L24.3646199,20.1609852 L12.4587893,20.1609852 C12.4165341,20.3857923 12.3544719,20.8788894 12.3544719,21.8581262 C12.3544719,24.3570935 11.0916589,24.3623115 9.18093352,24.3705732 C8.87062221,24.3718777 8.53390143,24.3731822 8.17077117,24.3844878 C8.11795223,24.3857923 8.06557344,24.3870968 8.0158356,24.3870968 C7.33271056,24.3870968 6.90663773,24.2353411 6.71692968,23.9253074 C6.63550047,23.7926843 6.53250353,23.5126539 6.75170216,23.1269598 C7.07125678,22.5682034 8.05016791,21.9268294 8.96305537,21.7946411 L8.96305537,21.7946411 L8.97185852,21.5854879 C9.02731842,20.3336127 9.13163584,18.0020549 8.95073095,15.0295579 C8.77466779,12.1509842 8.34727449,11.6870207 6.75786437,9.96161574 C6.56991695,9.75637604 6.36084195,9.52896002 6.13944254,9.28458563 C5.8388147,9.43677609 5.25076377,9.73811319 4.42238663,10.1825093 C3.98134843,10.4194916 3.58080476,10.5216766 3.21591387,10.5216766 C2.13312548,10.5216766 1.36020823,9.62027429 0.728581667,8.66321374 L0.728581667,8.66321374 L0.595213828,8.46362683 C0.176183522,7.83225386 -0.0773474192,7.45090806 0.0212479469,7.00477261 C0.142731523,6.44906003 0.739585614,6.07945464 2.33471779,5.09152117 L2.33471779,5.09152117 L2.71721499,4.85366923 C4.22990368,3.91392625 4.51078515,3.39214027 4.70632985,2.8441443 L4.76086804,2.68647714 C4.79079878,2.5955977 4.82249015,2.5038486 4.85814294,2.40992534 L4.85814294,2.40992534 L4.8981973,2.30208753 C5.26837009,1.29241257 5.85422023,0.387096774 8.91287737,0.387096774 Z M27.0927185,20.1609852 L25.0455441,20.1609852 C25.0305788,20.9749868 25.0037291,21.3445922 24.9826016,21.6454944 C24.9707173,21.8002939 24.9605937,21.9403091 24.9548716,22.1190242 L24.9548716,22.1190242 L24.942107,22.4425376 L24.6141894,22.4425376 C23.960555,22.4425376 23.1348188,22.8917168 22.7743295,23.3126322 C22.6396411,23.4696057 22.622475,23.5639638 22.6255561,23.581357 C22.6268766,23.581357 22.7642058,23.7365913 23.47286,23.7122408 C23.8430328,23.7009352 24.1854756,23.6987611 24.5019492,23.6983263 C26.4183966,23.6909341 26.9976444,23.6883252 26.9976444,21.8581262 C26.9976444,21.1289165 27.0310964,20.5540714 27.0927185,20.1609852 L27.0927185,20.1609852 Z M8.82572611,8.81149073 C8.16592944,9.15848497 7.53782414,9.26980142 7.05365046,9.28284631 C7.12319541,9.35850671 7.1953813,9.43808058 7.26140499,9.50939268 C8.89086947,11.2778458 9.4393062,11.8735627 9.63033472,14.9891187 C9.8134404,17.9959673 9.70868282,20.3505711 9.65190245,21.6146215 L9.65190245,21.6146215 L9.61845046,22.4425376 L9.29009267,22.4425376 C8.63689837,22.4425376 7.81116218,22.8917168 7.45067288,23.3126322 C7.31554441,23.4696057 7.29837825,23.5639638 7.30101919,23.581357 C7.30277983,23.581357 7.4379083,23.7344171 8.1496436,23.7122408 C8.51893606,23.7009352 8.86137889,23.6987611 9.17785241,23.6983263 C11.0951802,23.6909341 11.6735476,23.6883252 11.6735476,21.8581262 C11.6735476,20.527112 11.7840272,19.980096 11.8636958,19.7587676 L11.8636958,19.7587676 L11.8636958,10.6656053 C10.7324901,10.6116864 9.9054334,10.2894775 9.3503943,9.67897633 C9.11711063,9.42286153 8.94897031,9.12891654 8.82572611,8.81149073 Z M30.3195159,5.72680761 L12.5446201,5.72680761 L12.5448401,10.3401351 L12.5448401,10.3401351 C12.5450602,10.3412222 12.5446201,10.3412222 12.5446201,10.3416571 L12.5446201,19.4891731 L30.3195159,19.4891731 L30.3195159,5.72680761 Z M20.4548295,7.97287784 C21.1410356,7.97287784 21.747133,8.31813276 22.1054215,8.84123309 C22.4632699,8.31813276 23.0698074,7.97331267 23.7560136,7.97331267 C24.551819,7.97331267 25.2340638,8.43988512 25.5522979,9.10821864 C25.9185093,8.7481795 26.4194089,8.53032973 26.9564016,8.53032973 C27.1874845,8.53032973 27.4172469,8.57076891 27.6364455,8.64990795 C28.6677354,9.02081783 29.2012068,10.1522452 28.8261923,11.1710516 C28.7179134,11.4641269 28.5607771,11.6315364 28.3618257,11.683716 C28.3728296,11.6893688 28.3851541,11.6915429 28.396158,11.6980654 C28.677859,11.8580828 28.8798915,12.1189807 28.964842,12.4307537 C29.0365248,12.6968696 29.0150739,12.9728889 28.9049241,13.221571 L28.8424781,13.3434616 L27.5158422,15.6141432 C27.400961,15.8106863 27.2328207,15.9633116 27.0369505,16.0676707 C27.1429405,16.2249052 27.2100558,16.4035681 27.2326623,16.5920825 L27.2411837,16.7351346 L27.2411837,18.0465815 C27.2411837,18.2322539 27.0880088,18.3822702 26.9005015,18.3822702 C26.7356624,18.3822702 26.5984569,18.2674139 26.5667312,18.1143139 L26.5598193,18.0465815 L26.5598193,16.7351346 C26.5598193,16.5929452 26.5039193,16.4598873 26.4013625,16.3581371 C26.3203734,16.2788241 26.2176934,16.2276186 26.106844,16.2103089 L26.0223865,16.2037725 C25.875814,16.2037725 25.7411256,16.2585611 25.6394492,16.3590068 C25.5577559,16.4386676 25.5059229,16.5400351 25.4884574,16.6506419 L25.4818727,16.7351346 L25.4818727,18.0465815 C25.4818727,18.2322539 25.329578,18.3822702 25.1420708,18.3822702 C24.9768465,18.3822702 24.8399299,18.2674139 24.8082824,18.1143139 L24.8013886,18.0465815 L24.8013886,16.7351346 C24.8013886,16.412056 24.928154,16.1107189 25.1592369,15.8828681 C25.2450677,15.7976414 25.3445434,15.7319821 25.449301,15.6767587 C25.2258768,15.3448965 25.1735861,14.9154716 25.3392765,14.5346167 L25.4026442,14.4096644 L26.7306006,12.1381132 C26.9471582,11.7658988 27.3521035,11.5358738 27.7869795,11.5358738 C27.7944622,11.5358738 27.8015047,11.5384828 27.8094275,11.5384828 C27.7205157,11.4723887 27.6333644,11.3954238 27.5409312,11.3101971 C27.3393389,11.1232203 27.1122175,10.9131974 26.8384393,10.8136214 C26.6909864,10.7614418 26.5197649,10.7370913 26.2974852,10.7370913 C26.1865654,10.7370913 26.0787267,10.7427441 25.9801314,10.7475273 C25.8819762,10.75318 25.8009871,10.75318 25.7098744,10.7575283 C25.616561,10.7575283 25.4360962,10.75318 25.2785197,10.6670837 C25.2419866,10.6731713 25.2076543,10.67665 25.1799243,10.67665 C24.9946179,10.67665 24.8049098,10.5966413 24.5861514,10.5044574 C24.3330606,10.3970544 24.0456375,10.2766065 23.7560136,10.2766065 C23.5310929,10.2766065 23.308373,10.3487883 23.101939,10.4309711 C24.2820023,11.118872 24.894702,12.164203 24.7001522,13.2569305 C24.4571851,14.6214266 22.8519293,16.2137736 19.1259928,16.2137736 C19.0207951,16.2137736 18.9213194,16.2059466 18.8200831,16.199859 L18.8046775,16.2037725 L18.8046775,16.2037725 C18.7875114,16.2037725 18.7703452,16.1994242 18.7531791,16.1968152 C16.2962178,16.0267967 15.0224008,14.1496362 14.9598984,10.6118603 C14.8701062,10.5814222 14.7785534,10.5440269 14.6852399,10.5044574 C14.4321491,10.3970544 14.1451662,10.2766065 13.8537817,10.2766065 C13.6662744,10.2766065 13.5139798,10.1252857 13.5139798,9.94004818 C13.5139798,9.75437583 13.6662744,9.60348986 13.8537817,9.60348986 C14.2842561,9.60348986 14.6707147,9.76698589 14.9537362,9.88656411 L15.0583287,9.92977533 L15.0583287,9.92977533 L15.1645718,9.97135593 L15.1645718,9.93961335 C15.1645718,9.22649236 14.5765209,8.64599448 13.8537817,8.64599448 C13.6662744,8.64599448 13.5139798,8.49597817 13.5139798,8.31030582 C13.5139798,8.12419863 13.6662744,7.97331267 13.8537817,7.97331267 C14.540428,7.97331267 15.1465254,8.31813276 15.5048139,8.84123309 C15.8626622,8.31769793 16.4687597,7.97287784 17.1549658,7.97287784 C17.8411719,7.97287784 18.4468292,8.31769793 18.8051177,8.84123309 C19.1629661,8.31769793 19.7686233,7.97287784 20.4548295,7.97287784 Z M27.7869795,12.2081208 C27.6266887,12.2081208 27.4758735,12.2793846 27.3745251,12.3972517 L27.319972,12.473367 L25.992896,14.7453531 C25.8445627,14.9988589 25.9334746,15.3249813 26.1900867,15.471519 C26.4138825,15.5994556 26.7086253,15.5398034 26.871212,15.3539467 L26.9255905,15.2784545 L28.2526665,13.0064684 C28.3248524,12.8842813 28.3437792,12.7412222 28.306806,12.6046856 C28.2693925,12.4659749 28.1800405,12.3511798 28.0550356,12.2798677 C27.9731663,12.2329061 27.880293,12.2081208 27.7869795,12.2081208 Z M20.4548295,10.2761717 C20.1643253,10.2761717 19.8773423,10.3974892 19.6242515,10.5048922 C19.4054931,10.5962065 19.2171055,10.6762152 19.0304785,10.6762152 C18.9490493,10.6762152 18.875543,10.6575175 18.8077587,10.6288187 C18.7219279,10.6662141 18.6374176,10.6762152 18.5797569,10.6762152 C18.3926898,10.6762152 18.2043022,10.5962065 17.9855437,10.5048922 C17.7324529,10.3974892 17.4450298,10.2761717 17.1549658,10.2761717 C16.8644616,10.2761717 16.5770385,10.3974892 16.3235076,10.5048922 C16.1051892,10.5962065 15.9163615,10.6762152 15.7301747,10.6762152 C15.6989235,10.6762152 15.6703133,10.6701275 15.6412628,10.6662141 C15.6791164,12.412056 16.0202388,13.6821941 16.6765142,14.4861945 C17.11095,13.894391 17.6915183,12.8473207 17.3341101,12.1337649 C17.2504801,11.9676599 17.3195848,11.765464 17.4881653,11.6824115 C17.6563056,11.6006635 17.860979,11.6684969 17.9441689,11.8354716 C18.5128529,12.9699427 17.6105292,14.3744432 17.1681705,14.9575501 C17.5726756,15.259322 18.0568493,15.4441247 18.624653,15.5102189 C19.2364724,14.4709755 19.9473274,12.7907928 19.5040884,12.179422 C19.394049,12.0294057 19.4297017,11.8185132 19.5828767,11.7111103 C19.7351713,11.6037073 19.9482077,11.6380588 20.0573669,11.7889448 C20.7492951,12.7425267 19.8879061,14.6157738 19.3883269,15.5350042 C19.9534896,15.5219593 20.4662736,15.4680404 20.9271189,15.3802047 C21.5530234,14.3044356 22.171005,12.6925213 21.6855109,12.2250792 C21.5508226,12.0959347 21.5477415,11.8819984 21.6789085,11.7498101 C21.8105157,11.6158825 22.0257529,11.6137084 22.1604413,11.7432877 C22.9553664,12.5081534 22.3034926,14.1809439 21.8201992,15.1497449 C23.1618004,14.6979567 23.8911421,13.9178719 24.0297918,13.140396 C24.2102565,12.1281121 23.4329377,11.1797481 22.0024246,10.6623006 C21.9566482,10.671432 21.9135127,10.6762152 21.8800607,10.6762152 C21.6938739,10.6762152 21.504606,10.5962065 21.2862877,10.5048922 C21.0327568,10.3974892 20.7453337,10.2761717 20.4548295,10.2761717 Z M26.9564016,9.20388121 C26.4180885,9.20388121 25.9347951,9.53348225 25.7389249,10.0252748 C25.7380445,10.045277 25.7367241,10.0652792 25.7345233,10.0844117 C25.7983462,10.0839769 25.8670108,10.0800634 25.9431581,10.0757151 C26.0540779,10.0700623 26.1738008,10.0644095 26.2974852,10.0644095 C26.600754,10.0644095 26.8468023,10.1009352 27.0717229,10.1822484 C27.4757879,10.3279164 27.7825779,10.6118603 28.0066183,10.8192742 C28.0581167,10.8671055 28.1214995,10.924503 28.1751987,10.9701602 C28.1782799,10.9618984 28.1818011,10.9518973 28.1862027,10.9410265 C28.4331313,10.2705189 28.0818853,9.52609014 27.403602,9.28128092 C27.2596703,9.229971 27.1086962,9.20388121 26.9564016,9.20388121 Z M9.29364595,1.0596768 L8.91287737,1.05934376 C6.25542414,1.05934376 5.83710221,1.74649386 5.58665227,2.40063361 L5.53818687,2.53080805 L5.49637187,2.6451683 C5.46291987,2.73169945 5.43430961,2.8169261 5.40525919,2.90084827 C5.16713377,3.60222885 4.94177294,4.26534441 3.07902477,5.42286153 L3.07902477,5.42286153 L2.69608741,5.66027864 C1.48125165,6.41427364 0.747508456,6.86867086 0.685886352,7.14826647 C0.648472932,7.31785012 0.865470769,7.64310286 1.16433797,8.09402144 L1.16433797,8.09402144 L1.29858613,8.29621733 C2.43375331,10.0164043 3.21107213,10.0664097 4.09710996,9.59027103 C4.99992268,9.10664358 5.62217823,8.78949424 5.90119893,8.64930664 L6.00537778,8.59720818 C6.04505313,8.57747979 6.06593617,8.56726128 6.06725665,8.56668151 L6.18521896,8.50754465 L6.31286474,8.54494002 C6.35996164,8.55711525 7.44583114,8.84279848 8.63821885,8.14967966 C8.45555333,7.17826973 8.57659674,6.06380076 8.68839685,5.03499328 L8.68839685,5.03499328 L8.74209611,4.53363444 C8.76014258,4.34970141 8.9260821,4.21012102 9.11402952,4.23273217 C9.30153678,4.25099502 9.43798572,4.41623038 9.41905893,4.60103307 L9.41905893,4.60103307 L9.36535967,5.10717504 C9.2020611,6.60603362 9.01719479,8.30621842 9.85657587,9.22936224 C10.2795676,9.69549986 10.9398044,9.94552704 11.8636958,9.99379315 L11.8636958,9.99379315 L11.8636958,5.39068412 C11.8636958,5.20501176 12.0159905,5.0541258 12.204378,5.0541258 L12.204378,5.0541258 L13.5274926,5.0541258 C12.3427407,1.23386178 11.9783199,1.06696767 9.29364595,1.0596768 Z M23.7560136,8.64599448 C23.0780329,8.64599448 22.519978,9.15657987 22.4528695,9.80799663 L22.4461037,9.94004818 L22.4461037,9.97135593 C22.5116872,9.94700546 22.5909157,9.91308873 22.6569394,9.88656411 C22.9390806,9.76698589 23.3259793,9.60348986 23.7560136,9.60348986 C24.1851675,9.60348986 24.5725065,9.76698589 24.8537674,9.88656411 C24.9127485,9.91004492 24.9814131,9.93917852 25.0421549,9.96222451 C25.0483171,9.94135267 25.0549195,9.92265499 25.0610817,9.90265281 C25.0408345,9.20692502 24.4651079,8.64599448 23.7560136,8.64599448 Z M17.1549658,8.64599448 C16.4778104,8.64599448 15.9198071,9.15581552 15.8523392,9.80749503 L15.8454961,9.93961335 L15.8459362,9.9709211 C15.9115198,9.94700546 15.9907482,9.91308873 16.0563317,9.88656411 C16.3380328,9.76655106 16.7249315,9.60348986 17.1549658,9.60348986 C17.5845599,9.60348986 17.9705784,9.76655106 18.2531597,9.88656411 L18.3585775,9.92972097 L18.3585775,9.92972097 L18.4639953,9.9709211 L18.4644355,9.94048301 C18.4644355,9.22649236 17.8772649,8.64599448 17.1549658,8.64599448 Z M20.4548295,8.64599448 C19.7776741,8.64599448 19.2192839,9.15581552 19.1521303,9.80749503 L19.1453598,9.93961335 L19.1453598,9.9709211 C19.2118236,9.94700546 19.2906119,9.91308873 19.3561954,9.88656411 C19.6392169,9.76655106 20.0247952,9.60348986 20.4548295,9.60348986 C20.8848637,9.60348986 21.2717625,9.76655106 21.5534635,9.88656411 L21.6588813,9.92972097 L21.6588813,9.92972097 L21.7642992,9.9709211 L21.7647393,9.94048301 C21.7647393,9.22649236 21.1775687,8.64599448 20.4548295,8.64599448 Z M5.85558472,4.11858933 C6.16809682,4.11858933 6.4211876,4.36948616 6.4211876,4.67734571 C6.4211876,4.98564009 6.16809682,5.23653693 5.85558472,5.23653693 C5.54307262,5.23653693 5.28910152,4.98564009 5.28910152,4.67734571 C5.28910152,4.36948616 5.54307262,4.11858933 5.85558472,4.11858933 Z" id="Combined-Shape"></path>
                            </g>
                        </g>
                    </g>
                </g>
            </g>
        </g>
    </g>
</svg>