<?xml version="1.0" encoding="UTF-8"?>
<svg width="126px" height="96px" viewBox="0 0 126 96" version="1.1" xmlns="http://www.w3.org/2000/svg" xmlns:xlink="http://www.w3.org/1999/xlink">
    <title>3D4F270A-0E4C-401B-B7F4-9EE2FE4E58A6</title>
    <defs>
        <polygon id="path-1" points="0.488148973 0.785898385 125.488149 0.785898385 125.488149 95.7858984 0.488148973 95.7858984"></polygon>
    </defs>
    <g id="Page-1" stroke="none" stroke-width="1" fill="none" fill-rule="evenodd">
        <g id="Home_v2" transform="translate(-817.000000, -184.000000)">
            <g id="Fleche-3_rouge_cmjn" transform="translate(880.000000, 232.000000) scale(1, -1) translate(-880.000000, -232.000000) translate(817.000000, 184.000000)">
                <mask id="mask-2" fill="white">
                    <use xlink:href="#path-1"></use>
                </mask>
                <g id="Clip-2"></g>
                <path d="M33.7722989,35.261909 C31.752595,26.5349251 32.5699334,16.9635923 38.9611591,10.192618 C44.2958117,4.53832713 52.4669437,3.35858266 59.460478,6.46085301 C75.2443399,13.4662136 73.9558499,32.9610167 64.7793692,44.6954003 C59.6417334,51.2682624 52.5147906,56.0977367 44.8665976,59.5973476 C39.4643964,52.3531362 35.7283945,43.7120939 33.7722989,35.261909 Z M124.093817,68.959965 C118.005434,66.5463439 111.927746,64.3352997 105.452085,63.1823422 C103.002884,62.7487275 101.954755,66.45817 104.418028,66.8968073 C109.738608,67.8432816 114.790119,69.5096567 119.800539,71.4109762 C103.00007,77.8309291 83.9755626,81.1932566 66.5226867,75.7225683 C58.9060163,73.3346182 52.4872083,68.6251274 47.3326853,62.6678084 C59.1323042,57.0073788 69.7942917,48.1821758 74.0684309,35.5442888 C78.616705,22.0977689 72.9595077,7.73267782 59.4813055,2.31891191 C45.006761,-3.49498492 31.2555497,8.11885718 29.2302168,22.1652944 C27.7587826,32.3783993 31.2583643,42.8169614 35.7925657,51.8497637 C37.3934681,55.0390918 39.2268504,58.1653588 41.307348,61.1203006 C39.5820435,61.8050435 37.8460439,62.4373285 36.1061039,63.002646 C25.6079218,66.4202218 13.7908528,67.9521038 2.91327266,65.4949539 C0.475893121,64.943588 -0.559289552,68.6569369 1.88090451,69.2077448 C15.6816514,72.3256409 30.8187353,69.7021883 43.7019467,64.2973514 C47.1525556,68.5709953 51.1925263,72.3412666 55.9158639,75.1790153 C74.6403426,86.4368134 99.1559901,83.0365376 119.067636,75.773352 C116.45857,81.5013072 114.172049,87.3654297 112.383137,93.4081322 C111.675565,95.7960824 115.424513,96.808408 116.128708,94.4316191 C118.245231,87.2861848 125.469557,72.3429408 125.35191,71.5376564 C125.761705,70.4282278 125.219627,69.4047409 124.093817,68.959965 L124.093817,68.959965 Z" id="Fill-1" fill="#DC3D5A" mask="url(#mask-2)"></path>
            </g>
        </g>
    </g>
</svg>