<?xml version="1.0" encoding="UTF-8"?>
<svg width="20px" height="20px" viewBox="0 0 20 20" version="1.1" xmlns="http://www.w3.org/2000/svg" xmlns:xlink="http://www.w3.org/1999/xlink">
    <title>14BB30B0-CC2E-4B86-820F-C0ADBEC1F928</title>
    <g id="Page-1" stroke="none" stroke-width="1" fill="none" fill-rule="evenodd">
        <g id="Job_offer" transform="translate(-951.000000, -582.000000)" fill="#63BAE9">
            <g id="Group" transform="translate(930.000000, 424.000000)">
                <g id="Group-24-Copy" transform="translate(21.000000, 155.000000)">
                    <g id="ico-/-20px-/-Calendar" transform="translate(0.000000, 3.000000)">
                        <g id="Combined-Shape-2" transform="translate(1.000000, 1.000000)">
                            <path d="M13.5,0 C13.9142136,0 14.25,0.335786438 14.25,0.75 L14.25,0.75 L14.25,1.5 L15,1.5 C16.6568542,1.5 18,2.84314575 18,4.5 L18,4.5 L18,15 C18,16.6568542 16.6568542,18 15,18 L15,18 L3,18 C1.34314575,18 0,16.6568542 0,15 L0,15 L0,4.5 C0,2.84314575 1.34314575,1.5 3,1.5 L3,1.5 L3.75,1.5 L3.75,0.75 C3.75,0.335786438 4.08578644,0 4.5,0 C4.91421356,0 5.25,0.335786438 5.25,0.75 L5.25,0.75 L5.25,1.5 L8.25,1.5 L8.25,0.75 C8.25,0.335786438 8.58578644,0 9,0 C9.41421356,0 9.75,0.335786438 9.75,0.75 L9.75,0.75 L9.75,1.5 L12.75,1.5 L12.75,0.75 C12.75,0.335786438 13.0857864,0 13.5,0 Z M16.5,7.5 L1.5,7.5 L1.5,15 C1.5,15.8284271 2.17157288,16.5 3,16.5 L3,16.5 L15,16.5 C15.8284271,16.5 16.5,15.8284271 16.5,15 L16.5,15 L16.5,7.5 Z M4.5,12.75 C4.91421356,12.75 5.25,13.0857864 5.25,13.5 C5.25,13.9142136 4.91421356,14.25 4.5,14.25 C4.08578644,14.25 3.75,13.9142136 3.75,13.5 C3.75,13.0857864 4.08578644,12.75 4.5,12.75 Z M7.5,12.75 C7.91421356,12.75 8.25,13.0857864 8.25,13.5 C8.25,13.9142136 7.91421356,14.25 7.5,14.25 C7.08578644,14.25 6.75,13.9142136 6.75,13.5 C6.75,13.0857864 7.08578644,12.75 7.5,12.75 Z M10.5,12.75 C10.9142136,12.75 11.25,13.0857864 11.25,13.5 C11.25,13.9142136 10.9142136,14.25 10.5,14.25 C10.0857864,14.25 9.75,13.9142136 9.75,13.5 C9.75,13.0857864 10.0857864,12.75 10.5,12.75 Z M13.5,12.75 C13.9142136,12.75 14.25,13.0857864 14.25,13.5 C14.25,13.9142136 13.9142136,14.25 13.5,14.25 C13.0857864,14.25 12.75,13.9142136 12.75,13.5 C12.75,13.0857864 13.0857864,12.75 13.5,12.75 Z M4.5,9.75 C4.91421356,9.75 5.25,10.0857864 5.25,10.5 C5.25,10.9142136 4.91421356,11.25 4.5,11.25 C4.08578644,11.25 3.75,10.9142136 3.75,10.5 C3.75,10.0857864 4.08578644,9.75 4.5,9.75 Z M7.5,9.75 C7.91421356,9.75 8.25,10.0857864 8.25,10.5 C8.25,10.9142136 7.91421356,11.25 7.5,11.25 C7.08578644,11.25 6.75,10.9142136 6.75,10.5 C6.75,10.0857864 7.08578644,9.75 7.5,9.75 Z M10.5,9.75 C10.9142136,9.75 11.25,10.0857864 11.25,10.5 C11.25,10.9142136 10.9142136,11.25 10.5,11.25 C10.0857864,11.25 9.75,10.9142136 9.75,10.5 C9.75,10.0857864 10.0857864,9.75 10.5,9.75 Z M13.5,9.75 C13.9142136,9.75 14.25,10.0857864 14.25,10.5 C14.25,10.9142136 13.9142136,11.25 13.5,11.25 C13.0857864,11.25 12.75,10.9142136 12.75,10.5 C12.75,10.0857864 13.0857864,9.75 13.5,9.75 Z M3.75,3 L3,3 C2.17157288,3 1.5,3.67157288 1.5,4.5 L1.5,4.5 L1.5,6 L16.5,6 L16.5,4.5 C16.5,3.67157288 15.8284271,3 15,3 L15,3 L14.25,3 L14.25,3.75 C14.25,4.16421356 13.9142136,4.5 13.5,4.5 C13.0857864,4.5 12.75,4.16421356 12.75,3.75 L12.75,3.75 L12.75,3 L9.75,3 L9.75,3.75 C9.75,4.16421356 9.41421356,4.5 9,4.5 C8.58578644,4.5 8.25,4.16421356 8.25,3.75 L8.25,3.75 L8.25,3 L5.25,3 L5.25,3.75 C5.25,4.16421356 4.91421356,4.5 4.5,4.5 C4.08578644,4.5 3.75,4.16421356 3.75,3.75 L3.75,3.75 L3.75,3 Z" id="Combined-Shape"></path>
                        </g>
                    </g>
                </g>
            </g>
        </g>
    </g>
</svg>