<?xml version="1.0" encoding="UTF-8"?>
<svg width="20px" height="20px" viewBox="0 0 20 20" version="1.1" xmlns="http://www.w3.org/2000/svg" xmlns:xlink="http://www.w3.org/1999/xlink">
    <title>6084F43B-A459-479D-B143-8E5C384DFCCC</title>
    <g id="Page-1" stroke="none" stroke-width="1" fill="none" fill-rule="evenodd">
        <g id="Job_offer" transform="translate(-951.000000, -751.000000)" fill="#63BAE9">
            <g id="Group" transform="translate(930.000000, 424.000000)">
                <g id="Group-24-Copy-4" transform="translate(21.000000, 325.000000)">
                    <g id="ico-/-20px-/-Avantages" transform="translate(0.000000, 2.000000)">
                        <g id="Combined-Shape-4" transform="translate(1.000000, 1.900000)">
                            <path d="M9.74968043,0.862475557 C10.1638804,0.862475557 10.4996558,1.20357916 10.4996558,1.62435178 C10.4996558,2.0451244 10.1638804,2.386228 9.74968043,2.386228 L9.74968043,2.386228 L3.74987709,2.386228 C2.50727713,2.386228 1.49995084,3.40953881 1.49995084,4.67185667 L1.49995084,4.67185667 L1.49995084,12.2906189 C1.49995084,13.5529367 2.50727713,14.5762476 3.74987709,14.5762476 L3.74987709,14.5762476 L11.2496313,14.5762476 C11.8463488,14.5762476 12.4186264,14.3354409 12.8405694,13.9068024 C13.2625124,13.4781639 13.4995575,12.8968053 13.4995575,12.2906189 L13.4995575,12.2906189 L13.4995575,10.7668664 C13.4995575,10.3460938 13.835333,10.0049902 14.2495329,10.0049902 C14.6637329,10.0049902 14.9995084,10.3460938 14.9995084,10.7668664 L14.9995084,10.7668664 L14.9995084,12.2906189 C14.9995084,13.3009296 14.6044332,14.2698606 13.9011948,14.9842581 C13.1979564,15.6986556 12.2441605,16.1 11.2496313,16.1 L11.2496313,16.1 L3.74987709,16.1 C1.67887716,16.1 -1.37667655e-13,14.394482 -1.37667655e-13,12.2906189 L-1.37667655e-13,12.2906189 L-1.37667655e-13,4.67185667 C-1.37667655e-13,2.56799357 1.67887716,0.862475557 3.74987709,0.862475557 L3.74987709,0.862475557 Z M14.9995084,0.1 C15.1985588,0.1 15.3894444,0.180385266 15.530116,0.32344813 L15.530116,0.32344813 L17.7800422,2.6090768 C17.9208704,2.75198059 18,2.94589523 18,3.14810422 C18,3.35031322 17.9208704,3.54422786 17.7800422,3.68713165 L17.7800422,3.68713165 L9.53031262,12.0677701 C9.38964104,12.210833 9.19875543,12.2912182 8.99970501,12.2912182 C8.8006546,12.2912182 8.60976899,12.210833 8.46909741,12.0677701 L8.46909741,12.0677701 L3.9692449,7.49651276 C3.82841673,7.35360897 3.74928712,7.15969433 3.74928712,6.95748533 C3.74928712,6.75527634 3.82841673,6.5613617 3.9692449,6.41845791 L3.9692449,6.41845791 L6.21917115,4.13282924 C6.35984273,3.98976638 6.55072835,3.90938111 6.74977876,3.90938111 C6.94882917,3.90938111 7.13971479,3.98976638 7.28038637,4.13282924 L7.28038637,4.13282924 L8.99970501,5.87943048 L14.4689007,0.32344813 C14.6095723,0.180385266 14.8004579,0.1 14.9995084,0.1 Z M14.9995084,1.94053041 L9.53031262,7.49651276 C9.38964104,7.63957563 9.19875543,7.71996089 8.99970501,7.71996089 C8.8006546,7.71996089 8.60976899,7.63957563 8.46909741,7.49651276 L8.46909741,7.49651276 L6.74977876,5.74991152 L5.56106772,6.95748533 L8.99970501,10.4506878 L16.1882194,3.14810422 L14.9995084,1.94053041 Z" id="Combined-Shape"></path>
                        </g>
                    </g>
                </g>
            </g>
        </g>
    </g>
</svg>