<?xml version="1.0" encoding="UTF-8"?>
<svg width="59px" height="61px" viewBox="0 0 59 61" version="1.1" xmlns="http://www.w3.org/2000/svg" xmlns:xlink="http://www.w3.org/1999/xlink">
    <title>310772E1-14B6-4D3E-A460-8905AFFE3F0A</title>
    <g id="Page-1" stroke="none" stroke-width="1" fill="none" fill-rule="evenodd">
        <g id="Home_v2" transform="translate(-154.000000, -8782.000000)" fill="#DE1A46" fill-rule="nonzero">
            <g id="Elements/Footer-+-NL-+-Réa" transform="translate(0.000000, 8742.000000)">
                <g id="Elements-/-Réassurance" transform="translate(154.000000, 0.000000)">
                    <g id="Group-7" transform="translate(0.000000, 31.000000)">
                        <g id="Combined-Shape-4" transform="translate(0.000000, 9.000000)">
                            <path d="M34.4817336,0.883106976 C34.8184574,0.883106976 35.1396813,1.13257926 35.2238929,1.46000193 C35.4976438,2.55946493 37.0321554,3.71163875 39.0544063,5.1618403 C41.007236,6.56256294 43.2990392,8.31371632 44.9198694,11.0032762 C47.2178173,11.4131124 49.9466994,12.1115115 52.4611871,13.0465321 C55.0953149,14.0262608 57.4517995,15.1489627 58.7815246,16.4841238 C59.0418137,16.7435226 59.074277,17.1999137 58.8533163,17.4937091 C57.8451292,18.8434908 57.6562795,20.4024228 57.4647557,22.1332614 C57.2739369,23.8504028 56.8810132,25.8854251 55.7650083,27.5414682 L55.7650083,27.5414682 L48.8222128,35.9069519 L52.3414934,37.0848271 C52.5628371,37.1603151 52.745067,37.3433794 52.8203066,37.5656113 C54.3071537,42.0444917 53.6739155,44.6742614 52.9639513,48.7676988 L52.9639513,48.7676988 L55.3580174,49.3686021 C55.6840529,49.4530933 55.9327496,49.7757451 55.9325887,50.1138638 C55.9325887,52.0369237 54.6221331,53.8702598 52.987887,55.3061486 C51.3536409,56.7419605 49.3568887,57.8061804 47.5054745,57.8061804 C44.6417052,57.8061804 42.7177254,56.7397289 41.1611936,55.7628474 C39.6718074,54.8281346 38.5206268,54.0757165 36.971573,54.0080005 L36.971573,54.0080005 L32.8537778,56.7485013 L32.1594975,60.2580413 C32.0939962,60.6028547 31.766842,60.875412 31.4173382,60.883107 L31.4173382,60.883107 L26.0546194,60.883107 C25.7378241,60.8791056 25.4353718,60.656412 25.3364034,60.354229 C25.0179608,59.394969 24.4193696,58.8017607 23.5647953,58.2869646 C22.881594,57.8752815 21.9716627,57.5628641 21.0749635,57.2532939 L21.0749635,57.2532939 L20.620086,58.142914 C20.4562292,58.472876 20.033861,58.6468602 19.6864029,58.5275106 C16.230869,57.3709506 13.5221606,56.4268498 11.5944572,55.3063795 C9.66675379,54.1857552 8.43428077,52.7422483 8.43428077,50.8832878 C8.43506994,50.7394681 8.47707997,50.5959562 8.55398982,50.4746058 C12.2861708,44.4787312 13.034383,39.2959881 13.7969995,33.9360291 C13.7865717,33.1312003 13.1970292,32.3207618 12.4563179,31.4840834 C11.8088976,30.7611373 11.062417,29.9047596 10.7804678,28.8396164 L10.7804678,28.8396164 L8.5779255,22.9500867 L0.414157777,18.4789782 C0.133319608,18.3334656 -0.0378848679,17.999733 0.00716692536,17.6856227 L0.00716692536,17.6856227 L0.773269605,13.0702327 C0.796676617,12.907945 0.873433226,12.753737 0.988736702,12.6375423 C2.67373476,11.0055847 5.66764861,10.8339859 8.00335424,11.7240677 C8.12821207,11.7820111 8.23698763,11.8744282 8.31457938,11.9884683 C9.05888404,13.1096312 9.71827986,13.9312274 10.6847098,14.4163978 C11.5325493,14.8423166 12.7854718,14.9823657 14.5391589,14.776909 C14.5338415,12.2815712 14.5062511,10.8075921 13.8448785,8.81535401 C13.7135848,8.41936881 13.9703263,7.9388924 14.3715708,7.82985411 C15.2127675,7.4281746 15.9834366,6.93392411 16.9092816,6.79610649 C17.4297831,6.8853686 18.0953007,6.96547366 18.3457213,7.56537662 C18.9070835,9.25643198 20.5831941,10.4532369 22.3917018,11.2432835 C22.7392595,10.0468634 23.6166738,9.12592461 24.7618245,8.55095348 C26.1083215,7.87494687 27.8705591,7.52997958 29.8851328,7.18070308 L29.8851328,7.18070308 L29.8851251,1.65191548 C29.8912776,0.913117585 30.6512278,0.896958064 30.6512278,0.883106976 L30.6512278,0.883106976 Z M34.002928,2.42118561 L31.4173382,2.42118561 L31.4172999,7.80561483 C31.4217361,8.17128169 31.1306387,8.51786494 30.7708986,8.57480801 C28.4862057,8.95701915 26.6161808,9.35054195 25.4321308,9.94498146 C24.2480732,10.539421 23.7562807,11.1389392 23.7562807,12.4210048 C23.7502279,12.9020198 23.2058903,13.2923877 22.7507676,13.1421041 C20.4137978,12.3599833 18.0518502,10.8068995 17.0768314,8.35842433 C16.4903382,8.50586072 15.9757594,8.69585051 15.4249629,9.00765231 C16.0068053,11.0592958 16.0952999,12.7310367 16.0952999,15.4981622 C16.0997361,15.8639061 15.8086387,16.2104893 15.4489063,16.2674324 C13.0552846,16.6678807 11.3462433,16.4793529 10.0143728,15.8106566 C8.77981577,15.1909005 7.95492356,14.1805457 7.21330822,13.0943181 C5.48036187,12.5104977 3.81086347,12.5571295 2.25758797,13.6471276 L2.25758797,13.6471276 L1.63513002,17.3972137 L9.55949528,21.7482031 C9.72303788,21.8349259 9.85325136,21.9831318 9.91860711,22.1568081 C10.7112582,24.2792457 11.5971312,26.4383885 12.2647942,28.5752158 C12.5611936,29.3179382 13.0307589,29.8782118 13.6054681,30.4741903 C14.4277629,31.4066716 15.2748746,32.6591884 15.3291972,34.0800027 C14.5754225,39.3780169 13.7660226,44.8416278 10.0143728,51.003253 C10.0641213,52.1511946 10.7133652,53.0024935 12.3605522,53.9599836 C13.9549873,54.8867706 16.4385976,55.819098 19.5427581,56.8686204 L19.5427581,56.8686204 L19.9976663,55.9309834 C20.1615307,55.6009444 20.5838989,55.4269603 20.9313571,55.5463099 C22.0805073,55.9309834 23.2702577,56.3256605 24.3309363,56.9646541 C25.2280569,57.5050746 25.9640485,58.3106652 26.4616562,59.3444898 L26.4616562,59.3444898 L30.7949185,59.3444898 L31.4413122,56.1232817 C31.4731932,55.9226728 31.5879067,55.7365305 31.752545,55.6184891 L31.752545,55.6184891 L36.3491534,52.5415624 C36.4767542,52.4598414 36.6288499,52.4136714 36.7800876,52.4213664 C38.9507029,52.4213664 40.4673424,53.518367 41.9752137,54.4646223 C43.4830849,55.4108777 45.0065634,56.2675631 47.5055128,56.2675631 C48.7185017,56.2675631 50.5522629,55.4085692 51.9824199,54.152128 C53.2116136,53.0721334 53.979195,51.7580565 54.2088979,50.6665194 L54.2088979,50.6665194 L51.9105975,50.0896245 C51.5423604,49.9989003 51.2777117,49.6003758 51.3360186,49.2241668 C52.0854184,44.7094275 52.7891228,42.6017644 51.4796633,38.4068298 L51.4796633,38.4068298 L47.2661024,36.9884855 C46.8046127,36.832046 46.6075187,36.1723528 46.9069982,35.7866789 C49.4592436,32.7097446 52.0129677,29.6259694 54.5679714,26.5559683 C55.5584979,25.2125735 55.7423444,23.6837289 55.9325887,21.9645098 C56.0984452,20.4657528 56.3925307,18.8352571 57.2732703,17.3010261 C56.1886637,16.3861664 54.242273,15.3468014 51.9344949,14.4885 C49.3974353,13.5450918 46.5583985,12.7954439 44.3213624,12.4212356 C44.0927016,12.3853769 43.8836858,12.2394795 43.7707268,12.036639 C42.3320882,9.5086744 40.1444559,7.84585973 38.1446666,6.4115099 C36.3586618,5.13067551 34.7021043,4.04252418 34.002928,2.42118561 L34.002928,2.42118561 Z" id="Combined-Shape"></path>
                        </g>
                    </g>
                </g>
            </g>
        </g>
    </g>
</svg>