<?xml version="1.0" encoding="UTF-8"?>
<svg width="20px" height="20px" viewBox="0 0 20 20" version="1.1" xmlns="http://www.w3.org/2000/svg" xmlns:xlink="http://www.w3.org/1999/xlink">
    <title>C2CDDE78-AB87-42FA-94FD-AAFF0DF76B44</title>
    <g id="Page-1" stroke="none" stroke-width="1" fill="none" fill-rule="evenodd">
        <g id="Dashboard_client_hover_ico" transform="translate(-1308.000000, -40.000000)" fill="#DE1A46">
            <g id="Elements-/-Header" transform="translate(60.000000, 28.000000)">
                <g id="Combined-Shape-2" transform="translate(1248.000000, 12.000000)">
                    <path d="M10,10.9090909 C13.6202368,10.9090909 18.7640488,13.1033428 19.4621579,14.6198551 C19.5950422,14.9085216 19.6946819,15.3031733 19.7804835,15.810298 L19.7804835,15.810298 L19.8304592,16.1281215 C19.8799781,16.4656338 19.9217203,16.823822 19.9562094,17.1815303 L19.9562094,17.1815303 L19.9936606,17.6087979 L20,17.7272727 C20,18.9809114 18.9836699,20 17.7299081,20 L17.7299081,20 L2.27009185,20 C1.01633015,20 0,18.9809114 0,17.7272727 L0,17.7272727 L0.00229986273,17.6626486 L0.0437905644,17.1815303 C0.0782797221,16.823822 0.120021933,16.4656338 0.169540807,16.1281215 C0.266792059,15.4652734 0.378380966,14.9662548 0.537842122,14.6198551 C1.23595116,13.1033428 6.37976325,10.9090909 10,10.9090909 Z M18.18,17.743 L18.1542089,17.4381334 L18.1213252,17.1089747 C18.0950059,16.8627863 18.0650295,16.6203403 18.0315361,16.3920546 C17.9692968,15.9678426 17.8981943,15.6290363 17.8390492,15.4537814 L17.8390492,15.4537814 L17.8254545,15.4168182 L17.8112377,15.4009271 L17.7542635,15.3453342 L17.6602097,15.2637524 C17.5379457,15.1629944 17.3766104,15.047064 17.1839863,14.9231567 C16.6804504,14.5992525 16.0149312,14.2527013 15.2801953,13.939277 C13.5176897,13.1874258 11.628855,12.7272727 10,12.7272727 C8.37114497,12.7272727 6.48231034,13.1874258 4.71980469,13.939277 C3.98506885,14.2527013 3.31954956,14.5992525 2.81601371,14.9231567 C2.59128556,15.0677152 2.40914496,15.2014163 2.28195032,15.3128337 L2.28195032,15.3128337 L2.24573646,15.3453342 C2.23450619,15.3556804 2.2241257,15.3655217 2.21462125,15.3748049 L2.21462125,15.3748049 L2.17409091,15.4168182 L2.16095085,15.4537814 C2.10673443,15.6144318 2.04247055,15.9125106 1.98419635,16.2878261 L1.98419635,16.2878261 L1.96846395,16.3920546 C1.923806,16.6964356 1.88540066,17.0259902 1.85357973,17.3560247 L1.85357973,17.3560247 L1.81909091,17.745 L1.8212375,17.7801987 C1.84545219,17.9885894 2.01080104,18.1544671 2.21758919,18.1787537 L2.21758919,18.1787537 L2.27009185,18.1818182 L17.7299081,18.1818182 C17.9784109,18.1818182 18.1818182,17.9778588 18.1818182,17.7272727 L18.18,17.744 L18.18,17.743 Z M10,0 C12.7614237,0 15,2.23857625 15,5 C15,7.76142375 12.7614237,10 10,10 C7.23857625,10 5,7.76142375 5,5 C5,2.23857625 7.23857625,0 10,0 Z M10,1.81818182 C8.24273034,1.81818182 6.81818182,3.24273034 6.81818182,5 C6.81818182,6.75726966 8.24273034,8.18181818 10,8.18181818 C11.7572697,8.18181818 13.1818182,6.75726966 13.1818182,5 C13.1818182,3.24273034 11.7572697,1.81818182 10,1.81818182 Z" id="Combined-Shape"></path>
                </g>
            </g>
        </g>
    </g>
</svg>