<?xml version="1.0" encoding="UTF-8"?>
<svg width="32px" height="32px" viewBox="0 0 32 32" version="1.1" xmlns="http://www.w3.org/2000/svg" xmlns:xlink="http://www.w3.org/1999/xlink">
    <title>6697D4A3-5A24-45F3-A314-619D278E09BB</title>
    <g id="Page-1" stroke="none" stroke-width="1" fill="none" fill-rule="evenodd">
        <g id="Home_v2" transform="translate(-1043.000000, -4944.000000)" fill="#FFFFFF">
            <g id="Group-28" transform="translate(154.000000, 4665.000000)">
                <g id="Group-44" transform="translate(582.000000, 53.000000)">
                    <g id="Group-43-Copy-5" transform="translate(291.000000, 200.000000)">
                        <g id="ico/-Charte-/-Laboratoire" transform="translate(16.000000, 26.000000)">
                            <g id="Fill-3" transform="translate(0.000000, 4.000000)">
                                <g id="Fill-2" transform="translate(0.000000, 0.602852)">
                                    <path d="M0.75315942,21.87668 L30.8336232,21.87668 L30.8336232,19.31586 L0.75315942,19.31586 L0.75315942,21.87668 Z M4.17437681,17.36316 L6.64997101,14.1473 L6.69495652,14.12752 C7.51211594,13.7632 8.32788406,13.58472 9.18863768,13.58472 C10.2233043,13.58472 11.3502609,13.846 12.6362899,14.38742 C13.133913,14.60822 13.6486957,14.7154 14.2135652,14.7154 C15.2732754,14.7154 16.0677101,14.21814 16.4461449,13.92098 L16.5968696,13.80276 L17.9204638,15.43346 L18.3257971,15.93256 L19.4875362,17.36132 L19.501913,17.38662 C19.6146087,17.6111 19.6164638,17.9032 19.5023768,18.1332 C19.3873623,18.39126 19.1248696,18.55962 18.8331594,18.55962 L17.4794203,18.55962 L17.4710725,18.55962 L16.4428986,18.55962 L16.2485797,18.55962 L4.79907246,18.55962 C4.50365217,18.55962 4.23976812,18.38896 4.12707246,18.1263 C4.00927536,17.85398 4.02550725,17.58534 4.17437681,17.36316 L4.17437681,17.36316 Z M8.30330435,11.9416 C9.5142029,10.29388 10.1537391,8.33934 10.1537391,6.29234 L10.1537391,2.46744 L13.1877101,2.46744 L13.1877101,6.29234 C13.1877101,8.3283 13.8031304,10.26122 14.9695072,11.88594 L16.0556522,13.20752 L15.9044638,13.32896 C15.6187826,13.55942 15.0103188,13.94674 14.1597681,13.94674 C13.7442319,13.94674 13.3171014,13.85566 12.8885797,13.67396 C11.5237101,13.10356 10.3118841,12.82572 9.1826087,12.82572 C8.77449275,12.82572 8.36776812,12.86298 7.97310145,12.93612 L7.48104348,13.02812 L8.30330435,11.9416 Z M9.05043478,1.219 C9.05043478,0.97382 9.27257971,0.76728 9.53553623,0.76728 L13.8351304,0.76728 C14.0869565,0.76728 14.2914783,0.96968 14.2914783,1.219 C14.2914783,1.46878 14.0869565,1.6721 13.8351304,1.6721 L9.50585507,1.6721 C9.25449275,1.6721 9.05043478,1.46878 9.05043478,1.219 L9.05043478,1.219 Z M19.1067826,14.9155 L19.1406377,14.89986 C19.8293333,14.59258 20.5166377,14.444 21.2224928,14.44124 L24.1525797,15.12112 C24.5824928,15.31248 25.0291014,15.40586 25.5169855,15.40586 C26.4384928,15.40586 27.1262609,14.97438 27.4541449,14.71678 L27.538087,14.65192 L29.9677681,17.64882 C30.0568116,17.82454 30.0572754,18.0527 29.9686957,18.2344 C29.8791884,18.4345 29.6765217,18.56514 29.4506667,18.56514 L20.1326377,18.56514 L20.1228986,18.56514 C20.1391304,18.53662 20.1567536,18.50948 20.1702029,18.48188 C20.4382609,17.9492 20.3942029,17.3719 20.0422029,16.8981 L18.7807536,15.33916 L19.1067826,14.9155 Z M20.5333333,13.02076 C21.5717101,11.6081 22.1203478,9.93324 22.1203478,8.17742 L22.1203478,4.9795 L22.124058,4.9795 L22.124058,4.1883 L21.5114203,4.1883 C21.3282319,4.1883 21.1807536,4.0411 21.1807536,3.86032 C21.1807536,3.6823 21.3435362,3.53188 21.5350725,3.53188 L25.1969855,3.53188 C25.3792464,3.53188 25.5276522,3.67862 25.5276522,3.86032 C25.5276522,4.0411 25.3792464,4.1883 25.1969855,4.1883 L24.5588406,4.1883 L24.5685797,4.27846 C24.6028986,4.62116 24.6093913,4.96386 24.5871304,5.30288 L24.5871304,8.17742 C24.5871304,9.92404 25.1153623,11.58142 26.1175652,12.97522 L27.0052174,14.05668 L26.9222029,14.12476 C26.6838261,14.31612 26.1792464,14.63858 25.472,14.63858 C25.1264928,14.63858 24.7698551,14.56084 24.4127536,14.40996 C23.244058,13.92098 22.2042899,13.68316 21.2354783,13.68316 C20.8848696,13.68316 20.5342609,13.71582 20.1952464,13.77884 L19.9211594,13.82944 L20.5333333,13.02076 Z M31.1346087,18.60148 L30.6267826,18.60148 C30.6309565,18.59412 30.636058,18.58768 30.6397681,18.57986 C30.8776812,18.10652 30.8373333,17.59408 30.5256812,17.1718 L26.7891014,12.55892 C25.8546087,11.25528 25.3602319,9.74004 25.3602319,8.17742 L25.3602319,4.95144 L25.4441739,4.93258 C25.9408696,4.82126 26.2993623,4.36908 26.2993623,3.86032 C26.2993623,3.2568 25.8049855,2.76506 25.1969855,2.76506 L21.5350725,2.76506 C20.9270725,2.76506 20.4322319,3.2568 20.4322319,3.86032 C20.4322319,4.36908 20.7925797,4.82126 21.2874203,4.93258 L21.3722899,4.95144 L21.3722899,8.1535 C21.3722899,9.74004 20.8774493,11.25528 19.9429565,12.53178 L18.2710725,14.70896 L15.6526377,11.47608 C14.546087,9.93324 13.9603478,8.14108 13.9603478,6.29234 L13.9603478,2.44858 L14.1124638,2.41454 C14.6643478,2.28942 15.0645797,1.78802 15.0645797,1.219 C15.0645797,0.54648 14.5126957,3.71420066e-15 13.8351304,3.71420066e-15 L9.53553623,3.71420066e-15 C8.85797101,3.71420066e-15 8.30608696,0.54648 8.30608696,1.219 C8.30608696,1.78802 8.70724638,2.28942 9.25913043,2.41454 L9.40985507,2.44858 L9.40985507,6.26336 C9.40985507,8.14108 8.82457971,9.9337 7.71756522,11.4471 L3.53113043,16.8981 C3.19443478,17.36132 3.14573913,17.96944 3.40452174,18.48188 C3.42585507,18.52328 3.45136232,18.56192 3.47686957,18.60148 L0.435014493,18.60148 C0.195246377,18.60148 2.56712214e-14,18.79468 2.56712214e-14,19.0325 L2.56712214e-14,22.1927 C2.56712214e-14,22.43098 0.195246377,22.62372 0.435014493,22.62372 L31.1346087,22.62372 C31.3743768,22.62372 31.5696232,22.43098 31.5696232,22.1927 L31.5696232,19.0325 C31.5696232,18.79468 31.3743768,18.60148 31.1346087,18.60148 L31.1346087,18.60148 Z" id="Fill-1"></path>
                                </g>
                            </g>
                        </g>
                    </g>
                </g>
            </g>
        </g>
    </g>
</svg>