<?xml version="1.0" encoding="UTF-8"?>
<svg width="32px" height="32px" viewBox="0 0 32 32" version="1.1" xmlns="http://www.w3.org/2000/svg" xmlns:xlink="http://www.w3.org/1999/xlink">
    <title>CE726FC0-7064-41A8-A5A5-AB7C62DCED44</title>
    <g id="Page-1" stroke="none" stroke-width="1" fill="none" fill-rule="evenodd">
        <g id="Home_v2" transform="translate(-1043.000000, -4744.000000)" fill="#FFFFFF">
            <g id="Group-28" transform="translate(154.000000, 4665.000000)">
                <g id="Group-44" transform="translate(582.000000, 53.000000)">
                    <g id="Group-43-Copy" transform="translate(291.000000, 0.000000)">
                        <g id="ico/-Charte-/-Chirurgie" transform="translate(16.000000, 26.000000)">
                            <path d="M5.92103543,1.0759122 C6.03373024,0.990661409 6.18349572,0.976620103 6.31151308,1.03679713 C6.31446799,1.03822524 6.31887652,1.04037239 6.32469019,1.0432562 L6.3760457,1.06954009 C6.8593731,1.32328262 9.76142721,3.00431336 11.2260945,7.51435256 C11.2473483,7.58054729 11.2695907,7.64172727 11.2913389,7.70441167 L11.2913389,7.70441167 L31.6184193,7.70441167 C31.8289807,7.70441167 32,7.87892505 32,8.09305497 L32,8.09305497 L32,24.7390235 C32,24.9531534 31.8289807,25.1271653 31.6184193,25.1271653 L31.6184193,25.1271653 L28.381409,25.1271653 C28.3389013,25.3708822 28.270197,25.9280212 28.2692084,27.0839216 C28.2692084,29.9664012 26.851132,29.9729203 24.7049877,29.9809439 C24.3560292,29.9829498 23.9779084,29.9849557 23.5706254,29.9974926 C23.5113124,29.998997 23.4529878,29.9994985 23.3966404,29.9994985 C22.6290306,29.9994985 22.1510661,29.8249851 21.9375391,29.4674333 C21.8465924,29.3149848 21.7304377,28.9915333 21.9775754,28.5482292 C22.3364195,27.9018277 23.4376653,27.1616502 24.4627927,27.0102047 C24.4682297,26.9354849 24.4731725,26.8617681 24.4791038,26.7845409 C24.5023348,26.448051 24.5310027,26.0373428 24.5478081,25.1271653 L24.5478081,25.1271653 L11.1756784,25.1271653 C11.1282279,25.3874309 11.0590294,25.9566053 11.0590294,27.0839216 C11.0590294,29.9664012 9.64095293,29.9724189 7.49382011,29.9814454 C7.14585015,29.9829498 6.76772938,29.9844543 6.35896353,29.9969911 C6.30014474,29.9984956 6.24280878,30 6.18547283,30 C5.41885151,30 4.93989853,29.8249851 4.72736006,29.4679348 C4.63641337,29.3149848 4.51976435,28.9915333 4.76739638,28.5477278 C5.12772323,27.8993203 6.23391183,27.1566355 7.26249917,27.0087003 C7.28573012,26.7925645 7.3223065,26.5358092 7.36431992,26.2409417 C7.62084891,24.4356309 8.09683623,21.074744 6.6644258,18.4690788 C6.63526354,18.4234445 5.79548945,16.9947416 6.19486406,14.5114363 C6.33672113,13.6333532 6.24577444,13.0230579 5.92498963,12.696096 C5.5340177,12.2989276 4.72488869,12.2071577 3.44817504,12.4152699 C1.46761306,12.7387214 0.415300496,10.9690154 0.102918372,9.87429495 C0.0361911779,9.64010602 -0.166956058,8.92801121 0.289754516,8.72892555 C0.82999765,8.446595 1.16313935,7.97621124 1.54867425,7.43160915 C2.13537928,6.60267061 2.80166267,5.66290604 4.42980621,5.19402671 C5.32988191,4.93576697 5.92400108,4.7652654 6.07772076,4.51803811 C6.22600342,4.27933591 6.13110252,3.70163645 5.97441718,2.74432026 C5.91312702,2.37473302 5.84244562,1.94597171 5.76929284,1.44349353 C5.74902755,1.30207752 5.80735206,1.16116298 5.92103543,1.0759122 Z M27.6113277,25.1271653 L25.311958,25.1271653 C25.295647,26.0659269 25.2659904,26.4916794 25.2412766,26.8402046 C25.2289198,27.0182283 25.2175514,27.1787004 25.2101373,27.3843052 L25.2101373,27.3843052 L25.1962976,27.7574028 L24.827568,27.7574028 C24.0930746,27.7574028 23.166308,28.2764297 22.7614964,28.7608547 C22.6097538,28.9423888 22.5904771,29.0517104 22.593937,29.0707664 C22.5954198,29.0707664 22.7501281,29.2497931 23.5464059,29.2227134 C23.9620916,29.2091736 24.346638,29.2076692 24.7020221,29.2056632 C26.8555805,29.1971382 27.5055528,29.1946308 27.5055528,27.0839216 C27.5055528,26.2429476 27.5426234,25.5804989 27.6113277,25.1271653 L27.6113277,25.1271653 Z M6.65404601,2.16411343 C6.67925406,2.32358255 6.70446211,2.47552954 6.72719879,2.61644408 C7.12805623,5.04709447 6.99114191,5.26423324 4.6378962,5.94122479 C3.43816596,6.28611438 2.87987405,6.90475458 2.38123211,7.58784904 L2.16948429,7.8839398 C1.7938349,8.41600501 1.40484007,8.96411742 0.769696038,9.34423564 C0.80577815,9.65715618 1.05242163,10.4855932 1.66334616,11.0938827 C2.13735638,11.5647679 2.69539343,11.7508152 3.32658326,11.6485143 C4.8840454,11.3942663 5.88198766,11.5537355 6.46720987,12.1489866 C6.97779647,12.6690164 7.13645891,13.4829106 6.94962277,14.6373066 C6.59473295,16.8387828 7.31588092,18.0653912 7.32378933,18.0774266 C8.89014843,20.9258059 8.38944733,24.4551885 8.12105573,26.3512663 C8.06025984,26.782535 8.00687809,27.1546296 7.9984754,27.3853082 C7.99155555,27.5934204 7.82201905,27.7574028 7.61640043,27.7574028 C6.88289557,27.7574028 5.95612899,28.2769311 5.55181162,28.7598518 C5.39908049,28.9418873 5.37930946,29.0512089 5.38276939,29.0717694 C5.38573505,29.0717694 5.53994901,29.250796 6.33573258,29.2227134 C6.75092401,29.2086721 7.13645891,29.2071677 7.49085445,29.2056632 C9.64441286,29.1966367 10.2938909,29.1941293 10.2938909,27.0839216 C10.2938909,25.5458971 10.4189426,24.9155427 10.5084065,24.6612948 L10.5084065,24.6612948 L10.5084065,8.09305497 C10.5084065,8.02786319 10.5281775,7.96919059 10.5563512,7.91503126 C10.5375687,7.86137341 10.5177977,7.81273032 10.4995095,7.75706657 C9.46449657,4.56668121 7.63567718,2.87921709 6.65404601,2.16411343 Z M31.2358501,8.48019384 L11.2725564,8.48019384 L11.2725564,24.3513831 L31.2358501,24.3513831 L31.2358501,8.48019384 Z M23.6347054,11 C23.8364917,11 24,11.163725 24,11.3657786 L24,11.3657786 L24,17.3474187 C24,17.5494724 23.8364917,17.7131974 23.6347054,17.7131974 C22.9305798,17.7131974 22.3587732,18.286708 22.3587732,18.9903469 C22.3587732,19.6944589 22.9305798,20.2674963 23.6347054,20.2674963 C23.8364917,20.2674963 24,20.4316945 24,20.6337482 C24,20.8358018 23.8364917,21 23.6347054,21 L23.6347054,21 L14.3652946,21 C14.1635083,21 14,20.8358018 14,20.6337482 C14,20.4316945 14.1635083,20.2674963 14.3652946,20.2674963 C15.068475,20.2674963 15.6402817,19.6944589 15.6402817,18.9903469 C15.6402817,18.286708 15.068475,17.7131974 14.3652946,17.7131974 C14.1635083,17.7131974 14,17.5494724 14,17.3474187 L14,17.3474187 L14,11.3657786 C14,11.163725 14.1635083,11 14.3652946,11 C15.4715751,11 16.3713435,11.9014338 16.3713435,13.00918 L16.3713435,13.00918 L16.3713435,13.3971987 L21.6281839,13.3971987 L21.6281839,13.00918 C21.6281839,11.9014338 22.5284249,11 23.6347054,11 Z M28.5379201,11.0000368 L28.6087971,11.0091637 C28.7980815,11.0565248 28.9174622,11.2663399 28.8757017,11.4787012 L28.8757017,11.4787012 L27.8593764,16.644123 L28.2792518,18.7789399 C28.4830615,18.6154675 28.7340789,18.5238007 29.0023451,18.5507915 C29.6024264,18.6108842 30.0472673,19.2062088 29.9959744,19.878941 C29.9460433,20.5165342 29.4789604,20.9982939 28.9079299,20.9982939 C28.8557292,21.0033865 28.8448352,20.9957476 28.8126069,20.9926921 C28.5207368,20.9646828 28.2579175,20.8098678 28.0704489,20.5582935 C27.9905591,20.4513489 27.9324574,20.3306544 27.889789,20.2038487 C27.8516598,20.155469 27.8203394,20.0999597 27.8067218,20.0322282 L27.8067218,20.0322282 L27.4998724,18.471347 L27.192569,20.0322282 C27.1794054,20.0989412 27.1485389,20.1539412 27.1108636,20.2023209 C27.0677412,20.3301451 27.0096396,20.4518582 26.9288419,20.559312 C26.7413733,20.8103771 26.4776462,20.9641735 26.1875918,20.9932013 C26.1549096,20.9962569 26.1231352,20.9982939 26.0913609,20.9982939 C25.5212383,20.9982939 25.0541554,20.5170435 25.0042242,19.8794502 C24.9515696,19.2062088 25.3973183,18.6108842 25.9973996,18.5513008 C26.2674816,18.526347 26.5175911,18.616486 26.7200391,18.7784306 L26.7200391,18.7784306 L27.1403683,16.6436137 L26.1240431,11.4787012 C26.0827364,11.2663399 26.2021172,11.0565248 26.3914015,11.0091637 C26.5806859,10.962821 26.7677006,11.0967564 26.8094612,11.3091177 L26.8094612,11.3091177 L27.4998724,14.8163897 L28.1898297,11.3091177 C28.2320441,11.0967564 28.418605,10.962821 28.6087971,11.0091637 Z M21.6281839,14.128756 L16.3713435,14.128756 L16.3713435,18.9903469 C16.3713435,19.4748971 16.199329,19.9206454 15.9129531,20.2674963 L15.9129531,20.2674963 L22.0865744,20.2674963 C21.8001985,19.9206454 21.6281839,19.4748971 21.6281839,18.9903469 L21.6281839,18.9903469 L21.6281839,14.128756 Z M26.0927226,19.3345423 C25.8439749,19.3569497 25.6851031,19.5698203 25.7037138,19.8101909 C25.7214167,20.0383393 25.888459,20.2099598 26.0913609,20.2099598 L26.0913609,20.2099598 L26.1258588,20.2079228 C26.2298063,20.1982468 26.3237676,20.1437561 26.3914015,20.0531078 C26.4581277,19.9639874 26.4894481,19.8509317 26.4803697,19.7338019 C26.4626668,19.5092184 26.292901,19.3345423 26.0927226,19.3345423 Z M28.94152,19.3360701 C28.705028,19.3360701 28.5361701,19.5102369 28.519829,19.7338019 C28.5098427,19.8514409 28.542071,19.9634781 28.6083432,20.0531078 C28.6759772,20.1427375 28.7699385,20.1977376 28.873886,20.2074135 L28.873886,20.2074135 L28.9079299,20.2099598 C29.1081083,20.2099598 29.278782,20.0347745 29.2960309,19.8101909 C29.3146416,19.5698203 29.1557699,19.3564405 28.94152,19.3360701 L28.94152,19.3360701 Z M23.2689381,11.7859745 C22.7434431,11.9430748 22.3587732,12.4318838 22.3587732,13.00918 L22.3587732,13.00918 L22.3587732,17.4415843 C22.6163225,17.2277008 22.9277444,17.0776984 23.2689381,17.0152368 L23.2689381,17.0152368 Z M14.7310619,11.7859745 L14.7310619,17.0152368 C15.0722556,17.0776984 15.383205,17.2277008 15.6402817,17.4401647 L15.6402817,17.4401647 L15.6402817,13.00918 C15.6402817,12.4318838 15.2560843,11.9430748 14.7310619,11.7859745 L14.7310619,11.7859745 Z M4.5,8 C4.77643857,8 5,8.22442629 5,8.50019448 C5,8.77596266 4.77643857,9 4.5,9 C4.22395023,9 4,8.77596266 4,8.50019448 C4,8.22442629 4.22395023,8 4.5,8 Z" id="Combined-Shape"></path>
                        </g>
                    </g>
                </g>
            </g>
        </g>
    </g>
</svg>