<?xml version="1.0" encoding="UTF-8"?>
<svg width="32px" height="32px" viewBox="0 0 32 32" version="1.1" xmlns="http://www.w3.org/2000/svg" xmlns:xlink="http://www.w3.org/1999/xlink">
    <title>73114A30-453B-4C11-A5C8-6FAE489D3301</title>
    <g id="Page-1" stroke="none" stroke-width="1" fill="none" fill-rule="evenodd">
        <g id="Home_v2" transform="translate(-752.000000, -4744.000000)" fill="#FFFFFF">
            <g id="Group-28" transform="translate(154.000000, 4665.000000)">
                <g id="Group-44" transform="translate(582.000000, 53.000000)">
                    <g id="ico/-Charte-/-Dentisterie" transform="translate(16.000000, 26.000000)">
                        <path d="M15.9584561,0.0851929825 C18.1098947,0.0851929825 20.2005614,0.507508772 22.1705263,1.33936842 C24.0750877,2.14596491 25.7807719,3.29684211 27.2408421,4.7605614 C28.7052632,6.22147368 29.8562807,7.92842105 30.6620351,9.8322807 C31.4945965,11.8015439 31.9169123,13.8913684 31.9169123,16.0444912 C31.9169123,18.194386 31.4945965,20.2833684 30.6620351,22.2550175 C30.562386,22.4927719 30.2872982,22.6044912 30.0509474,22.5032982 C29.8130526,22.4037895 29.7014737,22.1292632 29.8011228,21.8922105 C30.5847018,20.0357895 30.9832982,18.0687719 30.9832982,16.0444912 C30.9832982,14.0178246 30.5847018,12.0491228 29.8011228,10.1957895 C29.0429474,8.40421053 27.9588772,6.79761404 26.5806316,5.42147368 C25.205193,4.04252632 23.5994386,2.95915789 21.8061754,2.2002807 C18.0981053,0.633824561 13.8174035,0.633122807 10.1121404,2.2002807 C8.32350877,2.95705263 6.71621053,4.0402807 5.33487719,5.42077193 C3.95508772,6.80070175 2.87115789,8.40715789 2.11873684,10.1950877 C1.33221053,12.0477193 0.933754386,14.0155789 0.933754386,16.0444912 C0.933754386,18.0710175 1.33221053,20.0380351 2.11719298,21.8906667 C2.87115789,23.6794386 3.95508772,25.2860351 5.33487719,26.6666667 C6.71775439,28.0471579 8.32491228,29.1302456 10.1121404,29.8854737 C11.9618246,30.6683509 13.9289825,31.0661053 15.9584561,31.0661053 C17.986386,31.0661053 19.9552281,30.6683509 21.8061754,29.8863158 C22.0440702,29.7844211 22.3177544,29.896 22.4202105,30.1347368 C22.5198596,30.3717895 22.4084211,30.6453333 22.1705263,30.7465263 C20.2033684,31.578386 18.1129825,32 15.9584561,32 C13.802386,32 11.7135439,31.578386 9.74792982,30.7465263 C7.84912281,29.9435789 6.14217544,28.7935439 4.67480702,27.3267368 C3.20870175,25.8613333 2.05782456,24.1552281 1.25782456,22.2550175 C0.422315789,20.2864561 -5.1159077e-13,18.1966316 -5.1159077e-13,16.0444912 C-5.1159077e-13,13.8884211 0.422315789,11.7985965 1.25782456,9.83157895 C2.05782456,7.93207018 3.20870175,6.22526316 4.67480702,4.75985965 C6.14077193,3.29375439 7.8477193,2.14301754 9.74792982,1.34007018 C11.7164912,0.507508772 13.8054737,0.0851929825 15.9584561,0.0851929825 Z M11.5049199,5.3640034 C11.6712972,5.29867823 11.8593523,5.33920534 11.9856257,5.4712727 C12.1105441,5.60277325 12.1507836,5.79931555 12.0875114,5.97346875 C10.0206663,11.6277088 10.4054477,13.2181852 11.1760944,14.8470632 C11.2690381,15.0438889 11.3312263,15.223852 11.3701109,15.3879442 C11.4364993,15.62388 12.346426,18.9123856 12.7392011,21.1895556 C12.8181896,21.6442811 12.9115398,22.0858282 13.0004188,22.504561 C13.2961857,23.8929687 13.551713,25.0924861 13.0435035,25.8928256 C12.7951569,26.2837847 12.3919494,26.5353078 11.8406552,26.6403099 C11.7473051,26.6575977 11.6555808,26.6666667 11.5622306,26.6666667 C10.416964,26.6666667 9.37629296,25.3298389 8.3671902,24.0343885 L8.3671902,24.0343885 L7.99839621,23.5613833 C7.81034107,23.3227552 7.61090508,23.1066578 7.40699804,22.8858843 C6.35006858,21.7353962 5.15128486,20.4318687 4.67125652,15.7198131 C4.66773387,15.6930312 4.66597255,15.6658242 4.66692095,15.638192 C4.86364722,10.6938849 7.29224105,7.04531156 11.5049199,5.3640034 Z M21.714494,7.33334367 L21.8060686,7.34243856 C21.9584227,7.37263712 22.084745,7.4827479 22.1426998,7.63288601 L22.1426998,7.63288601 L23.3561889,10.8276655 L25.0529088,10.0232728 C25.1734768,9.96672173 25.3113079,9.96672173 25.4318758,10.0232728 C25.5521698,10.0806785 25.6421847,10.1892224 25.6798622,10.3212699 C26.1137698,11.8492884 26.9106144,15.0256924 26.5942605,16.7529929 C26.6001519,16.7924505 26.6028921,16.8327627 26.5987818,16.8743569 C26.586999,16.9898807 26.2996911,19.7248444 25.4695533,22.0249204 C25.2734934,22.5679247 25.1051093,23.0570843 24.9542623,23.4962454 C24.2589414,25.5129963 23.8613412,26.6666667 22.8481594,26.6666667 C22.7989731,26.6666667 22.7464987,26.6636753 22.6942982,26.659117 C21.5432853,26.5353314 21.1456851,24.4732827 20.6724558,21.3396126 C20.5272263,20.3815206 20.3329474,19.0972272 20.1556577,18.7019395 C19.9306889,18.9267193 19.5824119,19.7664386 19.3427831,20.3400688 C19.1324742,20.8477464 18.8928454,21.4226586 18.6214305,21.9531276 C18.3950916,22.3959923 18.2064302,22.8629304 18.0235231,23.3141994 C17.6156472,24.3230022 17.2628489,25.1937747 16.6010953,25.4638524 C16.2962501,25.5883502 15.9697576,25.5695474 15.627098,25.4090107 C14.9513694,25.0922107 14.2830393,22.9593664 14.9288999,14.611032 C14.4618361,12.7388639 14.9565758,11.8851848 15.7040971,10.6064468 C16.0422354,10.0301102 16.4239426,9.37671028 16.8346957,8.46063988 C16.900049,8.31434781 17.0322627,8.21321113 17.1859868,8.19127444 C17.3413551,8.16720106 17.4937091,8.22902264 17.5938627,8.35195356 L17.5938627,8.35195356 L19.007659,10.0601663 L21.3895611,7.4790443 C21.4968392,7.36280834 21.6535776,7.31081554 21.8060686,7.34243856 Z M5.65285554,16.3559186 C6.13803236,20.1412355 7.113399,21.2033008 8.05868766,22.2313573 C8.27695626,22.4699855 8.49061832,22.7035123 8.69452536,22.9608453 L8.69452536,22.9608453 L9.06779041,23.4382433 C9.94750365,24.5701682 10.9393996,25.8476223 11.6786135,25.7124375 C12.1307316,25.6254317 12.2526694,25.4346993 12.291554,25.3710745 C12.5871853,24.9057213 12.3602456,23.8391215 12.1207056,22.7101723 C12.0287103,22.2793947 11.9311601,21.8245275 11.8508167,21.3577572 C11.6087025,19.9527703 11.1513004,18.1056694 10.8367009,16.8960911 C10.5141078,17.101419 10.0686285,17.2068462 9.49972108,17.2068462 C8.55131623,17.2068462 7.23018828,16.913804 5.65285554,16.3559186 Z M15.7800001,15.5117182 C15.6724781,17.121678 15.6087937,18.7756748 15.6017389,20.2245317 L15.6017729,20.7577505 C15.6122701,22.7611633 15.7430912,24.2763111 16.0322337,24.5630237 C16.1656805,24.6218539 16.2396654,24.5917978 16.2673412,24.5811144 C16.5720493,24.4574712 16.8973088,23.654503 17.1831097,22.9461189 C17.3645096,22.497129 17.5707082,21.9885967 17.8159544,21.508696 C18.0699692,21.0114169 18.2920608,20.4788112 18.506891,19.9634415 C18.9901219,18.7992301 19.3400429,17.9579439 19.9278117,17.7556705 C20.1585349,17.6771828 20.3937795,17.7045324 20.6129939,17.8355827 C21.0701931,18.1103611 21.2311787,18.9267193 21.5738383,21.1924658 C21.7581155,22.414083 22.2486078,25.6571517 22.7871903,25.714415 C23.1717747,25.760425 23.4955271,24.9191388 24.0950786,23.1761692 C24.2474327,22.7340167 24.418557,22.2391592 24.6146169,21.6928787 C25.0607183,20.4577292 25.3452861,19.059479 25.5091489,18.0703338 C25.2159496,18.1845755 24.9100084,18.2415539 24.585571,18.2415539 C23.599928,18.2415539 22.4693294,17.7286058 20.7276705,16.7854706 C19.6970885,16.2270822 18.8537979,16.1644059 18.038046,16.1031542 C17.263671,16.0461757 16.5199859,15.9897671 15.7800001,15.5117182 Z M21.5549311,8.66889597 L19.3181215,11.0938971 C19.2282436,11.1897633 19.1106898,11.2501604 18.9755989,11.239477 C18.8463994,11.2357734 18.7259684,11.1755187 18.643352,11.074382 L18.643352,11.074382 L17.3530009,9.51474048 C17.0350029,10.1575994 16.7360492,10.6684109 16.4834045,11.0991676 C15.778082,12.3079646 15.4443279,12.8768941 15.7998664,14.3271371 C16.506833,15.0379428 17.1831097,15.0892233 18.1032624,15.1571701 C18.9698445,15.221983 19.9511033,15.2953427 21.1484252,15.9431873 C22.7625287,16.8185181 23.7887264,17.292436 24.585571,17.292436 C24.9382323,17.292436 25.2474617,17.1958576 25.556554,16.9883138 C25.6249216,16.9424461 25.6756149,16.8380332 25.7097301,16.6840491 C25.7101412,16.6823397 25.7104152,16.6806303 25.7109632,16.6790634 C25.8946923,15.8352132 25.586422,13.5204652 24.949878,11.1151216 L24.949878,11.1151216 L23.296727,11.8990021 C23.1832835,11.9525618 23.054358,11.9556956 22.9366672,11.9065517 C22.8206206,11.858405 22.7292355,11.7616841 22.6827895,11.6410323 L22.6827895,11.6410323 L21.5549311,8.66889597 Z M10.8761275,6.67759182 C8.4419787,7.92358783 5.8914471,10.4035351 5.58700914,15.3333885 C7.64965419,16.097452 8.84952181,16.2626779 9.49972108,16.2626779 C10.0106403,16.2626779 10.3782149,16.1576759 10.4829459,15.9818222 C10.561799,15.8489047 10.5203402,15.5870372 10.3681889,15.2659378 C9.44376519,13.3128429 9.26573605,11.3829874 10.8761275,6.67759182 Z" id="Combined-Shape"></path>
                    </g>
                </g>
            </g>
        </g>
    </g>
</svg>