<?xml version="1.0" encoding="UTF-8"?>
<svg width="15px" height="18px" viewBox="0 0 15 18" version="1.1" xmlns="http://www.w3.org/2000/svg" xmlns:xlink="http://www.w3.org/1999/xlink">
    <title>97F6E3CC-BE3C-485B-B860-A6151D1A4BEE</title>
    <g id="Page-1" stroke="none" stroke-width="1" fill="none" fill-rule="evenodd">
        <g id="Home_v2" transform="translate(-907.000000, -42.000000)" fill="#DE1A46" fill-rule="nonzero">
            <g id="noun_Pin_444025" transform="translate(907.000000, 42.000000)">
                <path d="M7.48172411,0 C4.11747363,0 0.5,2.35758836 0.5,7.52182952 C0.5,12.3118503 6.64970517,17.5509356 6.90292833,17.7754678 C7.08380201,17.9251559 7.26467569,18 7.48172411,18 C7.66259779,18 7.84347147,17.962578 7.98817041,17.8503119 C8.24139357,17.6632017 14.4996229,13.0977131 14.4996229,7.55925156 C14.5357977,2.73180873 11.9673914,0 7.48172411,0 Z M7.51789884,15.8295218 C5.67298729,14.1455301 2.30873682,10.4407484 2.30873682,7.52182952 C2.30873682,3.62993763 4.91331783,1.87110187 7.48172411,1.87110187 C10.9544988,1.87110187 12.7270609,3.77962578 12.7270609,7.52182952 C12.7270609,11.2266112 8.96488829,14.6320166 7.51789884,15.8295218 Z M7.51789884,3.66735967 C5.63681256,3.66735967 4.08129889,5.27650728 4.08129889,7.22245322 C4.08129889,9.16839917 5.63681256,10.7775468 7.51789884,10.7775468 C9.39898513,10.7775468 10.9544988,9.16839917 10.9544988,7.22245322 C10.9544988,5.27650728 9.39898513,3.66735967 7.51789884,3.66735967 Z M7.51789884,8.90644491 C6.61353044,8.90644491 5.89003571,8.15800416 5.89003571,7.22245322 C5.89003571,6.28690229 6.61353044,5.53846154 7.51789884,5.53846154 C8.42226725,5.53846154 9.14576198,6.28690229 9.14576198,7.22245322 C9.14576198,8.15800416 8.42226725,8.90644491 7.51789884,8.90644491 Z" id="Shape"></path>
            </g>
        </g>
    </g>
</svg>