<svg xmlns="http://www.w3.org/2000/svg" width="48" height="48" viewBox="0 0 48 48">
    <g fill="none" fill-opacity=".16" fill-rule="evenodd">
        <g fill="#63BAE9">
            <g>
                <g>
                    <g>
                        <g>
                            <path d="M42.055.275c2.017-.931 4.236.621 4.236 2.847 0 1.087-.605 2.122-1.563 2.69-3.43 2.123-5.446 4.348-6.555 6.418 5.446.518 9.732 5.176 9.732 10.92 0 6.055-4.74 10.972-10.69 10.972-5.95 0-10.741-4.917-10.741-11.024 0-13.61 9.732-20.183 15.581-22.823zm-26.524 0c2.017-.931 4.236.621 4.236 2.847 0 1.087-.605 2.122-1.563 2.69-3.43 2.123-5.446 4.348-6.556 6.418 5.497.518 9.783 5.176 9.783 10.868 0 6.107-4.84 11.024-10.74 11.024S0 29.205 0 23.098C0 9.488 9.732 2.915 15.531.275z" transform="translate(-154 -5071) translate(154 5005) translate(0 66) translate(0 4.8) translate(0 1.938)"/>
                        </g>
                    </g>
                </g>
            </g>
        </g>
    </g>
</svg>
