<?xml version="1.0" encoding="UTF-8"?>
<svg width="32px" height="32px" viewBox="0 0 32 32" version="1.1" xmlns="http://www.w3.org/2000/svg" xmlns:xlink="http://www.w3.org/1999/xlink">
    <title>65D96878-EF81-48BA-A51B-85AA8D17A018</title>
    <g id="Page-1" stroke="none" stroke-width="1" fill="none" fill-rule="evenodd">
        <g id="Home_v2" transform="translate(-752.000000, -4944.000000)" fill="#FFFFFF">
            <g id="Group-28" transform="translate(154.000000, 4665.000000)">
                <g id="Group-44" transform="translate(582.000000, 53.000000)">
                    <g id="Group-43-Copy-4" transform="translate(0.000000, 200.000000)">
                        <g id="Combined-Shape-2" transform="translate(16.000000, 26.000000)">
                            <path d="M16.0001212,0.000338120379 C18.1601381,0.000338120379 20.2547184,0.422669914 22.2281196,1.25763865 C24.1336605,2.06352285 25.8453149,3.2172097 27.3127935,4.68597909 C28.7820897,6.15474848 29.9357145,7.86649499 30.7421612,9.77274438 C31.5764791,11.7450399 32,13.8403388 32,15.9998661 C32,18.1599993 31.5764791,20.2552982 30.7421612,22.2275937 C29.9357145,24.1332372 28.7826956,25.8443778 27.3127935,27.3137531 C25.844709,28.7831284 24.1336605,29.9362093 22.2281196,30.7433054 C20.2553243,31.5770623 18.160744,32 16.0001212,32 C13.8394983,32 11.7449181,31.5770623 9.77212275,30.7433054 C7.86658184,29.9362093 6.15553334,28.7825225 4.68744888,27.3131472 C3.21754673,25.8443778 2.06452786,24.1332372 1.25808113,22.2275937 C0.423763216,20.2552982 0.000242358145,18.1599993 0.000242358145,15.9998661 C0.000242358145,13.8403388 0.423763216,11.7450399 1.25808113,9.77274438 C1.35987155,9.53400876 1.63494804,9.42251801 1.87306492,9.52370798 C2.1111818,9.62429202 2.22266655,9.89938332 2.12087612,10.137513 C1.33624163,11.9946822 0.937562483,13.9663718 0.937562483,15.9998661 C0.937562483,18.0339663 1.33624163,20.0056559 2.12087612,21.863431 C2.88006301,23.6563719 3.96522161,25.2675344 5.34969251,26.6508679 C6.73234572,28.0348074 8.34342149,29.1212362 10.1374777,29.879858 C11.993941,30.6645348 13.9655246,31.0626294 16.0001212,31.0626294 C16.730831,31.0626294 17.4530583,31.0093078 18.1649853,30.9069059 C18.0225999,29.8283542 18.039565,28.6843622 18.2340574,27.4949256 C18.4685389,26.0661474 18.317065,25.1063575 17.7723651,24.5604164 C17.1228453,23.9090439 15.8074465,23.7539263 13.7504317,24.084763 C10.7294374,24.571929 9.11109091,21.8919096 8.63001,20.2328789 C8.36462783,19.3197454 8.43612348,18.7901644 8.84752643,18.6144453 C9.73637493,18.1563637 10.2701687,17.4147079 10.8875761,16.555502 C11.8006604,15.2842652 12.8349238,13.8451862 15.3560544,13.1301912 C16.9804599,12.6715038 17.7723651,12.4309504 18.0292647,12.0237668 C18.2910115,11.609312 18.1455967,10.7452588 17.8844558,9.17590533 L17.8352913,8.88139067 C17.7512934,8.37720811 17.6575479,7.80570022 17.5621194,7.15634741 C17.5372777,6.98608166 17.6093793,6.8158159 17.7475234,6.71280814 C17.8874852,6.60980039 18.0710715,6.59222848 18.2267866,6.66615169 C18.2303311,6.66781799 18.2352082,6.67013465 18.2413839,6.67311399 L18.3311073,6.71815216 C19.0961038,7.11385167 23.6130348,9.70342622 25.9010573,16.6476031 C26.8135357,19.4172998 27.8950589,20.5055465 30.2356327,20.9236368 C30.7815444,19.3451944 31.0626799,17.6952525 31.0626799,15.9998661 C31.0626799,13.9663718 30.6640007,11.9946822 29.8793662,10.137513 C29.1201793,8.3433603 28.033809,6.73219784 26.6505499,5.34886429 C25.2678966,3.96613667 23.6574268,2.88031375 21.8627647,2.11987415 C20.0063013,1.3345915 18.0341119,0.93649683 16.0001212,0.93649683 C13.9661304,0.93649683 11.993941,1.3345915 10.1374777,2.11987415 C9.89936078,2.22227598 9.62367839,2.10957337 9.52370566,1.87144368 C9.42252113,1.63331399 9.53461177,1.3582227 9.77212275,1.25763865 C11.7455239,0.422669914 13.8401042,0.000338120379 16.0001212,0.000338120379 Z M18.6406132,8.00161693 C18.6987791,8.37062706 18.7569451,8.70994672 18.8090521,9.02078777 C19.4319125,12.7581515 19.2834681,12.9926456 15.6117423,14.0318121 C13.4050713,14.6571297 12.5119816,15.9004939 11.6491866,17.1008372 C11.0487443,17.9352 10.4301251,18.7962237 9.40919143,19.373673 C9.4261565,19.8359961 9.8315005,21.1872154 10.7821503,22.1742721 C11.5776909,23.0007578 12.5259172,23.3309886 13.6013814,23.158905 C16.0104214,22.7717171 17.546972,23.007423 18.4346087,23.8975312 C19.2083371,24.6725131 19.4440304,25.9001232 19.1592596,27.6464076 C18.9817323,28.7304127 18.9635554,29.7683673 19.0889757,30.7451232 C20.0359902,30.5475907 20.9630101,30.2603808 21.8627647,29.879858 C23.6568209,29.1212362 25.2672907,28.0348074 26.6505499,26.6508679 C28.0350208,25.2675344 29.1201793,23.6563719 29.8793662,21.863431 C29.8860311,21.847071 29.8914841,21.8307109 29.898149,21.8149568 C27.3218819,21.3071892 26.0095126,19.9723298 25.010997,16.9414782 C23.2654125,11.6420322 20.1220273,8.99958029 18.6406132,8.00161693 Z M14.9480445,15.7897303 C15.5012269,15.7897303 15.9495895,16.2362992 15.9495895,16.7907233 C15.9495895,17.3445414 15.5012269,17.7929281 14.9480445,17.7929281 C14.3942561,17.7929281 13.9464994,17.3445414 13.9464994,16.7907233 C13.9464994,16.2362992 14.3942561,15.7897303 14.9480445,15.7897303 Z M6.75815687,0.00106523394 C6.98354994,-0.0140829652 7.18773668,0.133763459 7.24347905,0.353109383 L7.24347905,0.353109383 L8.7000515,6.08700574 L9.45439123,4.04987591 C9.52103972,3.87173309 9.68705505,3.75115342 9.87730619,3.74448822 C10.0705868,3.73297558 10.2420552,3.84689004 10.3202157,4.02018544 L10.3202157,4.02018544 L11.0860674,5.7113304 L13.9967888,5.7113304 C14.2555061,5.7113304 14.4657518,5.92098147 14.4657518,6.17971272 C14.4657518,6.43844396 14.2555061,6.64870096 13.9967888,6.64870096 L13.9967888,6.64870096 L10.7831198,6.64870096 C10.5995335,6.64870096 10.4323063,6.54023986 10.3559635,6.37300374 L10.3559635,6.37300374 L9.93668393,5.44472209 L9.05510618,7.82238344 C8.98421643,8.01506853 8.79275349,8.13746598 8.59099034,8.12837706 C8.3861977,8.11686443 8.21230573,7.97447136 8.16201642,7.77572698 L8.16201642,7.77572698 L6.96597898,3.06463704 L6.10863704,10.5945039 C6.08258354,10.8217269 5.89536187,10.997446 5.66633342,11.0089586 C5.65845678,11.0089586 5.65058014,11.0095645 5.64270351,11.0095645 C5.42336938,11.0095645 5.23190645,10.8562648 5.18525251,10.6399485 L5.18525251,10.6399485 L4.07767579,5.51500974 L3.79654034,6.33240656 C3.73170953,6.52085016 3.55418219,6.64870096 3.35302493,6.64870096 L3.35302493,6.64870096 L0.46896301,6.64870096 C0.210245691,6.64870096 0,6.43844396 0,6.17971272 C0,5.92098147 0.210245691,5.7113304 0.46896301,5.7113304 L0.46896301,5.7113304 L3.01857069,5.7113304 L3.73716259,3.62209077 C3.80562877,3.42274047 4.00193887,3.29186002 4.20794329,3.30700822 C4.41818898,3.31912678 4.59389863,3.46939692 4.638129,3.67541243 L4.638129,3.67541243 L5.4997122,7.65999474 L6.32433579,0.415519964 C6.35038929,0.190720688 6.53276379,0.0162134331 6.75815687,0.00106523394 Z" id="Combined-Shape"></path>
                        </g>
                    </g>
                </g>
            </g>
        </g>
    </g>
</svg>